<?xml version="1.0" encoding="UTF-8" standalone="no"?>
<!DOCTYPE svg PUBLIC "-//W3C//DTD SVG 1.1//EN" "http://www.w3.org/Graphics/SVG/1.1/DTD/svg11.dtd">
<svg width="100%" height="100%" viewBox="0 0 32 32" version="1.1" xmlns="http://www.w3.org/2000/svg" xmlns:xlink="http://www.w3.org/1999/xlink" xml:space="preserve" xmlns:serif="http://www.serif.com/" style="fill-rule:evenodd;clip-rule:evenodd;stroke-linejoin:round;stroke-miterlimit:1.41421;">
    <g transform="matrix(1,0,0,1,-72,0)">
        <g id="archive_rib" transform="matrix(1,0,0,1,72,0)">
            <rect x="0" y="0" width="32" height="32" style="fill:none;"/>
            <g transform="matrix(1,0,0,1,-72,0)">
                <rect x="75" y="3" width="26" height="26" style="fill-opacity:0.25098;"/>
            </g>
            <g transform="matrix(0.833333,0,0,1,-64,1)">
                <path d="M102,10C102,8.896 100.925,8 99.6,8L92.4,8C91.075,8 90,8.896 90,10C90,11.104 91.075,12 92.4,12L99.6,12C100.925,12 102,11.104 102,10Z" style="fill:white;"/>
            </g>
            <g transform="matrix(1,0,0,1,-80,0)">
                <path d="M109,29L83,29L83,3L109,3L109,29ZM107,27L107,5L85,5L85,27L107,27Z" style="fill:white;"/>
            </g>
        </g>
    </g>
</svg>
