<?xml version="1.0" encoding="UTF-8" standalone="no"?>
<!DOCTYPE svg PUBLIC "-//W3C//DTD SVG 1.1//EN" "http://www.w3.org/Graphics/SVG/1.1/DTD/svg11.dtd">
<svg width="100%" height="100%" viewBox="0 0 32 32" version="1.1" xmlns="http://www.w3.org/2000/svg" xmlns:xlink="http://www.w3.org/1999/xlink" xml:space="preserve" xmlns:serif="http://www.serif.com/" style="fill-rule:evenodd;clip-rule:evenodd;stroke-linejoin:round;stroke-miterlimit:1.41421;">
    <g transform="matrix(1,0,0,1,0,-178)">
        <g id="batch_render" transform="matrix(1,0,0,1,0,178)">
            <rect x="0" y="0" width="32" height="32" style="fill:none;"/>
            <g transform="matrix(1.07692,0,0,1.07692,-1.23077,-155.231)">
                <rect x="3" y="146" width="26" height="26" style="fill:rgb(2,153,90);"/>
                <path d="M29,172L3,172L3,146L29,146L29,172ZM4.857,147.857L4.857,170.143L27.143,170.143L27.143,147.857L4.857,147.857Z" style="fill:white;"/>
            </g>
            <g transform="matrix(1,0,0,1,1,0)">
                <g transform="matrix(0.893895,0,0,0.893895,0.371167,-157.416)">
                    <path d="M26.349,194L17.5,185.151L17.5,202.849L26.349,194Z" style="fill:white;"/>
                </g>
                <g transform="matrix(0.893895,0,0,0.893895,0.477272,-157.416)">
                    <path d="M17.349,194L8.5,185.151L8.5,202.849L17.349,194Z" style="fill:white;"/>
                </g>
            </g>
        </g>
    </g>
</svg>
