<?xml version="1.0" encoding="UTF-8" standalone="no"?>
<!DOCTYPE svg PUBLIC "-//W3C//DTD SVG 1.1//EN" "http://www.w3.org/Graphics/SVG/1.1/DTD/svg11.dtd">
<svg width="100%" height="100%" viewBox="0 0 32 32" version="1.1" xmlns="http://www.w3.org/2000/svg" xmlns:xlink="http://www.w3.org/1999/xlink" xml:space="preserve" xmlns:serif="http://www.serif.com/" style="fill-rule:evenodd;clip-rule:evenodd;stroke-linejoin:round;stroke-miterlimit:1.41421;">
    <g transform="matrix(1,0,0,1,-36,-107)">
        <g id="camera" transform="matrix(1,0,0,1,36,107)">
            <rect x="0" y="0" width="32" height="32" style="fill:none;"/>
            <g transform="matrix(1.5,0,0,1.5,-1232,-1952)">
                <path d="M832.667,1307.33C833.403,1307.33 834,1307.93 834,1308.67C834,1310.44 834,1313.56 834,1315.33C834,1316.07 833.403,1316.67 832.667,1316.67C830.753,1316.67 827.247,1316.67 825.333,1316.67C824.597,1316.67 824,1316.07 824,1315.33C824,1313.56 824,1310.44 824,1308.67C824,1307.93 824.597,1307.33 825.333,1307.33C827.247,1307.33 830.753,1307.33 832.667,1307.33ZM840,1307.33L835.333,1310L835.333,1314L840,1316.67L840,1307.33Z" style="fill:white;"/>
            </g>
        </g>
    </g>
</svg>
