<?xml version="1.0" encoding="UTF-8" standalone="no"?>
<!DOCTYPE svg PUBLIC "-//W3C//DTD SVG 1.1//EN" "http://www.w3.org/Graphics/SVG/1.1/DTD/svg11.dtd">
<svg width="100%" height="100%" viewBox="0 0 32 32" version="1.1" xmlns="http://www.w3.org/2000/svg" xmlns:xlink="http://www.w3.org/1999/xlink" xml:space="preserve" xmlns:serif="http://www.serif.com/" style="fill-rule:evenodd;clip-rule:evenodd;stroke-linejoin:round;stroke-miterlimit:1.41421;">
    <g transform="matrix(1,0,0,1,-36,-107)">
        <g id="camera" transform="matrix(1,0,0,1,36,107)">
            <rect x="0" y="0" width="32" height="32" style="fill:none;"/>
            <g transform="matrix(1.5,0,0,1.5,-1232,-1952)">
                <path d="M832.333,1307.33C832.687,1307.33 833.026,1307.47 833.276,1307.72C833.526,1307.97 833.667,1308.31 833.667,1308.67C833.667,1310.44 833.667,1313.56 833.667,1315.33C833.667,1315.69 833.526,1316.03 833.276,1316.28C833.026,1316.53 832.687,1316.67 832.333,1316.67C830.489,1316.67 827.178,1316.67 825.333,1316.67C824.98,1316.67 824.641,1316.53 824.391,1316.28C824.14,1316.03 824,1315.69 824,1315.33C824,1313.56 824,1310.44 824,1308.67C824,1308.31 824.14,1307.97 824.391,1307.72C824.641,1307.47 824.98,1307.33 825.333,1307.33C827.178,1307.33 830.489,1307.33 832.333,1307.33ZM840,1308L835,1310L835,1314L840,1316L840,1308Z" style="fill:white;"/>
            </g>
        </g>
    </g>
</svg>
