<?xml version="1.0" encoding="UTF-8" standalone="no"?>
<!DOCTYPE svg PUBLIC "-//W3C//DTD SVG 1.1//EN" "http://www.w3.org/Graphics/SVG/1.1/DTD/svg11.dtd">
<svg width="100%" height="100%" viewBox="0 0 32 32" version="1.1" xmlns="http://www.w3.org/2000/svg" xmlns:xlink="http://www.w3.org/1999/xlink" xml:space="preserve" xmlns:serif="http://www.serif.com/" style="fill-rule:evenodd;clip-rule:evenodd;stroke-linejoin:round;stroke-miterlimit:1.41421;">
    <g transform="matrix(1,0,0,1,0,-36)">
        <g id="envlight" transform="matrix(1,0,0,1,0,36)">
            <rect x="0" y="0" width="32" height="32" style="fill:none;"/>
            <g transform="matrix(1.99961,0,0,1.99961,-2031.6,-463.906)">
                <circle cx="1024" cy="240" r="4.243" style="fill:rgb(255,171,0);"/>
                <path d="M1024.06,235.758L1024.11,235.759L1024.16,235.76L1024.22,235.763L1024.27,235.766L1024.33,235.77L1024.38,235.774L1024.43,235.779L1024.49,235.785L1024.54,235.791L1024.59,235.799L1024.65,235.806L1024.7,235.815L1024.75,235.824L1024.8,235.833L1024.86,235.844L1024.91,235.855L1024.96,235.866L1025.01,235.878L1025.06,235.891L1025.11,235.904L1025.16,235.918L1025.21,235.933L1025.26,235.948L1025.31,235.964L1025.36,235.98L1025.41,235.997L1025.46,236.015L1025.51,236.033L1025.56,236.052L1025.6,236.071L1025.65,236.091L1025.7,236.111L1025.75,236.132L1025.79,236.154L1025.84,236.176L1025.88,236.199L1025.93,236.222L1025.98,236.245L1026.02,236.27L1026.07,236.295L1026.11,236.32L1026.15,236.346L1026.2,236.372L1026.24,236.399L1026.29,236.426L1026.33,236.454L1026.37,236.482L1026.41,236.511L1026.45,236.541L1026.5,236.57L1026.54,236.601L1026.58,236.631L1026.62,236.663L1026.66,236.694L1026.7,236.727L1026.74,236.759L1026.78,236.792L1026.81,236.826L1026.85,236.86L1026.89,236.895L1026.93,236.929L1026.96,236.965L1027,237.001L1027.04,237.037L1027.07,237.073L1027.11,237.11L1027.14,237.148L1027.17,237.186L1027.21,237.224L1027.24,237.263L1027.27,237.302L1027.31,237.341L1027.34,237.381L1027.37,237.422L1027.4,237.462L1027.43,237.503L1027.46,237.545L1027.49,237.586L1027.52,237.629L1027.55,237.671L1027.57,237.714L1027.6,237.757L1027.63,237.801L1027.65,237.845L1027.68,237.889L1027.7,237.933L1027.73,237.978L1027.76,238.024L1027.78,238.069L1027.8,238.115L1027.82,238.161L1027.85,238.208L1027.87,238.255L1027.89,238.302L1027.91,238.349L1027.93,238.397L1027.95,238.445L1027.97,238.493L1027.99,238.542L1028,238.591L1028.02,238.64L1028.04,238.689L1028.05,238.739L1028.07,238.789L1028.08,238.839L1028.1,238.89L1028.11,238.94L1028.12,238.991L1028.13,239.042L1028.14,239.094L1028.16,239.145L1028.17,239.197L1028.18,239.249L1028.18,239.302L1028.19,239.354L1028.2,239.407L1028.21,239.46L1028.21,239.513L1028.22,239.566L1028.23,239.62L1028.23,239.674L1028.23,239.728L1028.24,239.782L1028.24,239.836L1028.24,239.891L1028.24,239.945L1028.24,240L1028.24,240.055L1028.24,240.109L1028.24,240.164L1028.24,240.218L1028.23,240.272L1028.23,240.326L1028.23,240.38L1028.22,240.434L1028.21,240.487L1028.21,240.54L1028.2,240.593L1028.19,240.646L1028.18,240.698L1028.18,240.751L1028.17,240.803L1028.16,240.855L1028.14,240.906L1028.13,240.958L1028.12,241.009L1028.11,241.06L1028.1,241.11L1028.08,241.161L1028.07,241.211L1028.05,241.261L1028.04,241.311L1028.02,241.36L1028,241.409L1027.99,241.458L1027.97,241.507L1027.95,241.555L1027.93,241.603L1027.91,241.651L1027.89,241.698L1027.87,241.745L1027.85,241.792L1027.82,241.839L1027.8,241.885L1027.78,241.931L1027.76,241.976L1027.73,242.022L1027.7,242.067L1027.68,242.111L1027.65,242.155L1027.63,242.199L1027.6,242.243L1027.57,242.286L1027.55,242.329L1027.52,242.371L1027.49,242.414L1027.46,242.455L1027.43,242.497L1027.4,242.538L1027.37,242.578L1027.34,242.619L1027.31,242.659L1027.27,242.698L1027.24,242.737L1027.21,242.776L1027.17,242.814L1027.14,242.852L1027.11,242.89L1027.07,242.927L1027.04,242.963L1027,242.999L1026.96,243.035L1026.93,243.071L1026.89,243.105L1026.85,243.14L1026.81,243.174L1026.78,243.208L1026.74,243.241L1026.7,243.273L1026.66,243.306L1026.62,243.337L1026.58,243.369L1026.54,243.399L1026.5,243.43L1026.45,243.459L1026.41,243.489L1026.37,243.518L1026.33,243.546L1026.29,243.574L1026.24,243.601L1026.2,243.628L1026.15,243.654L1026.11,243.68L1026.07,243.705L1026.02,243.73L1025.98,243.755L1025.93,243.778L1025.88,243.801L1025.84,243.824L1025.79,243.846L1025.75,243.868L1025.7,243.889L1025.65,243.909L1025.6,243.929L1025.56,243.948L1025.51,243.967L1025.46,243.985L1025.41,244.003L1025.36,244.02L1025.31,244.036L1025.26,244.052L1025.21,244.067L1025.16,244.082L1025.11,244.096L1025.06,244.109L1025.01,244.122L1024.96,244.134L1024.91,244.145L1024.86,244.156L1024.8,244.167L1024.75,244.176L1024.7,244.185L1024.65,244.194L1024.59,244.201L1024.54,244.209L1024.49,244.215L1024.43,244.221L1024.38,244.226L1024.33,244.23L1024.27,244.234L1024.22,244.237L1024.16,244.24L1024.11,244.241L1024.06,244.242L1024,244.243L1023.95,244.242L1023.89,244.241L1023.84,244.24L1023.78,244.237L1023.73,244.234L1023.67,244.23L1023.62,244.226L1023.57,244.221L1023.51,244.215L1023.46,244.209L1023.41,244.201L1023.35,244.194L1023.3,244.185L1023.25,244.176L1023.2,244.167L1023.14,244.156L1023.09,244.145L1023.04,244.134L1022.99,244.122L1022.94,244.109L1022.89,244.096L1022.84,244.082L1022.79,244.067L1022.74,244.052L1022.69,244.036L1022.64,244.02L1022.59,244.003L1022.54,243.985L1022.49,243.967L1022.45,243.948L1022.4,243.929L1022.35,243.909L1022.3,243.889L1022.25,243.868L1022.21,243.846L1022.16,243.824L1022.12,243.801L1022.07,243.778L1022.02,243.755L1021.98,243.73L1021.93,243.705L1021.89,243.68L1021.85,243.654L1021.8,243.628L1021.76,243.601L1021.71,243.574L1021.67,243.546L1021.63,243.518L1021.59,243.489L1021.55,243.459L1021.5,243.43L1021.46,243.399L1021.42,243.369L1021.38,243.337L1021.34,243.306L1021.3,243.273L1021.26,243.241L1021.22,243.208L1021.19,243.174L1021.15,243.14L1021.11,243.105L1021.07,243.071L1021.04,243.035L1021,242.999L1020.97,242.963L1020.93,242.927L1020.89,242.89L1020.86,242.852L1020.83,242.814L1020.79,242.776L1020.76,242.737L1020.73,242.698L1020.69,242.659L1020.66,242.619L1020.63,242.578L1020.6,242.538L1020.57,242.497L1020.54,242.455L1020.51,242.414L1020.48,242.371L1020.45,242.329L1020.43,242.286L1020.4,242.243L1020.37,242.199L1020.35,242.155L1020.32,242.111L1020.3,242.067L1020.27,242.022L1020.25,241.976L1020.22,241.931L1020.2,241.885L1020.18,241.839L1020.15,241.792L1020.13,241.745L1020.11,241.698L1020.09,241.651L1020.07,241.603L1020.05,241.555L1020.03,241.507L1020.01,241.458L1020,241.409L1019.98,241.36L1019.96,241.311L1019.95,241.261L1019.93,241.211L1019.92,241.161L1019.9,241.11L1019.89,241.06L1019.88,241.009L1019.87,240.958L1019.86,240.906L1019.84,240.855L1019.83,240.803L1019.82,240.751L1019.82,240.698L1019.81,240.646L1019.8,240.593L1019.79,240.54L1019.78,240.487L1019.78,240.434L1019.77,240.38L1019.77,240.326L1019.77,240.272L1019.76,240.218L1019.76,240.164L1019.76,240.109L1019.76,240.055L1019.76,240L1019.76,239.945L1019.76,239.891L1019.76,239.836L1019.76,239.782L1019.77,239.728L1019.77,239.674L1019.77,239.62L1019.78,239.566L1019.78,239.513L1019.79,239.46L1019.8,239.407L1019.81,239.354L1019.82,239.302L1019.82,239.249L1019.83,239.197L1019.84,239.145L1019.86,239.094L1019.87,239.042L1019.88,238.991L1019.89,238.94L1019.9,238.89L1019.92,238.839L1019.93,238.789L1019.95,238.739L1019.96,238.689L1019.98,238.64L1020,238.591L1020.01,238.542L1020.03,238.493L1020.05,238.445L1020.07,238.397L1020.09,238.349L1020.11,238.302L1020.13,238.255L1020.15,238.208L1020.18,238.161L1020.2,238.115L1020.22,238.069L1020.25,238.024L1020.27,237.978L1020.3,237.933L1020.32,237.889L1020.35,237.845L1020.37,237.801L1020.4,237.757L1020.43,237.714L1020.45,237.671L1020.48,237.629L1020.51,237.586L1020.54,237.545L1020.57,237.503L1020.6,237.462L1020.63,237.422L1020.66,237.381L1020.69,237.341L1020.73,237.302L1020.76,237.263L1020.79,237.224L1020.83,237.186L1020.86,237.148L1020.89,237.11L1020.93,237.073L1020.97,237.037L1021,237.001L1021.04,236.965L1021.07,236.929L1021.11,236.895L1021.15,236.86L1021.19,236.826L1021.22,236.792L1021.26,236.759L1021.3,236.727L1021.34,236.694L1021.38,236.663L1021.42,236.631L1021.46,236.601L1021.5,236.57L1021.55,236.541L1021.59,236.511L1021.63,236.482L1021.67,236.454L1021.71,236.426L1021.76,236.399L1021.8,236.372L1021.85,236.346L1021.89,236.32L1021.93,236.295L1021.98,236.27L1022.02,236.245L1022.07,236.222L1022.12,236.199L1022.16,236.176L1022.21,236.154L1022.25,236.132L1022.3,236.111L1022.35,236.091L1022.4,236.071L1022.45,236.052L1022.49,236.033L1022.54,236.015L1022.59,235.997L1022.64,235.98L1022.69,235.964L1022.74,235.948L1022.79,235.933L1022.84,235.918L1022.89,235.904L1022.94,235.891L1022.99,235.878L1023.04,235.866L1023.09,235.855L1023.14,235.844L1023.2,235.833L1023.25,235.824L1023.3,235.815L1023.35,235.806L1023.41,235.799L1023.46,235.791L1023.51,235.785L1023.57,235.779L1023.62,235.774L1023.67,235.77L1023.73,235.766L1023.78,235.763L1023.84,235.76L1023.89,235.759L1023.95,235.758L1024,235.757L1024.06,235.758ZM1023.96,236.758L1023.92,236.759L1023.87,236.76L1023.83,236.762L1023.79,236.764L1023.75,236.767L1023.71,236.77L1023.67,236.774L1023.63,236.779L1023.59,236.784L1023.55,236.789L1023.5,236.795L1023.47,236.801L1023.43,236.808L1023.39,236.816L1023.35,236.823L1023.31,236.832L1023.27,236.841L1023.23,236.85L1023.19,236.86L1023.15,236.87L1023.11,236.881L1023.07,236.892L1023.04,236.903L1023,236.915L1022.96,236.928L1022.92,236.941L1022.89,236.954L1022.85,236.968L1022.81,236.982L1022.78,236.997L1022.74,237.012L1022.7,237.028L1022.67,237.044L1022.63,237.06L1022.6,237.077L1022.56,237.094L1022.52,237.112L1022.49,237.13L1022.46,237.149L1022.42,237.167L1022.39,237.187L1022.35,237.207L1022.32,237.227L1022.29,237.247L1022.25,237.268L1022.22,237.289L1022.19,237.311L1022.16,237.333L1022.12,237.356L1022.09,237.378L1022.06,237.402L1022.03,237.425L1022,237.449L1021.97,237.473L1021.94,237.498L1021.91,237.523L1021.88,237.548L1021.85,237.574L1021.82,237.6L1021.79,237.627L1021.76,237.653L1021.74,237.68L1021.71,237.708L1021.68,237.736L1021.65,237.764L1021.63,237.792L1021.6,237.821L1021.57,237.85L1021.55,237.879L1021.52,237.909L1021.5,237.939L1021.47,237.969L1021.45,237.999L1021.43,238.03L1021.4,238.061L1021.38,238.093L1021.36,238.124L1021.33,238.156L1021.31,238.189L1021.29,238.221L1021.27,238.254L1021.25,238.287L1021.23,238.32L1021.21,238.354L1021.19,238.388L1021.17,238.422L1021.15,238.456L1021.13,238.491L1021.11,238.525L1021.09,238.56L1021.08,238.596L1021.06,238.631L1021.04,238.667L1021.03,238.703L1021.01,238.739L1021,238.776L1020.98,238.812L1020.97,238.849L1020.95,238.886L1020.94,238.923L1020.93,238.961L1020.92,238.998L1020.9,239.036L1020.89,239.074L1020.88,239.113L1020.87,239.151L1020.86,239.19L1020.85,239.229L1020.84,239.268L1020.83,239.307L1020.82,239.346L1020.82,239.386L1020.81,239.425L1020.8,239.465L1020.8,239.505L1020.79,239.546L1020.78,239.586L1020.78,239.627L1020.77,239.668L1020.77,239.709L1020.77,239.75L1020.76,239.791L1020.76,239.833L1020.76,239.874L1020.76,239.916L1020.76,239.958L1020.76,240L1020.76,240.042L1020.76,240.084L1020.76,240.126L1020.76,240.167L1020.76,240.209L1020.77,240.25L1020.77,240.291L1020.77,240.332L1020.78,240.373L1020.78,240.414L1020.79,240.454L1020.8,240.494L1020.8,240.535L1020.81,240.575L1020.82,240.614L1020.82,240.654L1020.83,240.693L1020.84,240.732L1020.85,240.771L1020.86,240.81L1020.87,240.849L1020.88,240.887L1020.89,240.926L1020.9,240.964L1020.92,241.002L1020.93,241.039L1020.94,241.077L1020.95,241.114L1020.97,241.151L1020.98,241.188L1021,241.224L1021.01,241.261L1021.03,241.297L1021.04,241.333L1021.06,241.369L1021.08,241.404L1021.09,241.44L1021.11,241.475L1021.13,241.509L1021.15,241.544L1021.17,241.578L1021.19,241.612L1021.21,241.646L1021.23,241.68L1021.25,241.713L1021.27,241.746L1021.29,241.779L1021.31,241.811L1021.33,241.844L1021.36,241.876L1021.38,241.907L1021.4,241.939L1021.43,241.97L1021.45,242.001L1021.47,242.031L1021.5,242.061L1021.52,242.091L1021.55,242.121L1021.57,242.15L1021.6,242.179L1021.63,242.208L1021.65,242.236L1021.68,242.264L1021.71,242.292L1021.74,242.32L1021.76,242.347L1021.79,242.373L1021.82,242.4L1021.85,242.426L1021.88,242.452L1021.91,242.477L1021.94,242.502L1021.97,242.527L1022,242.551L1022.03,242.575L1022.06,242.598L1022.09,242.622L1022.12,242.644L1022.16,242.667L1022.19,242.689L1022.22,242.711L1022.25,242.732L1022.29,242.753L1022.32,242.773L1022.35,242.793L1022.39,242.813L1022.42,242.833L1022.46,242.851L1022.49,242.87L1022.52,242.888L1022.56,242.906L1022.6,242.923L1022.63,242.94L1022.67,242.956L1022.7,242.972L1022.74,242.988L1022.78,243.003L1022.81,243.018L1022.85,243.032L1022.89,243.046L1022.92,243.059L1022.96,243.072L1023,243.085L1023.04,243.097L1023.07,243.108L1023.11,243.119L1023.15,243.13L1023.19,243.14L1023.23,243.15L1023.27,243.159L1023.31,243.168L1023.35,243.177L1023.39,243.184L1023.43,243.192L1023.47,243.199L1023.5,243.205L1023.55,243.211L1023.59,243.216L1023.63,243.221L1023.67,243.226L1023.71,243.23L1023.75,243.233L1023.79,243.236L1023.83,243.238L1023.87,243.24L1023.92,243.241L1023.96,243.242L1024,243.242L1024.04,243.242L1024.08,243.241L1024.13,243.24L1024.17,243.238L1024.21,243.236L1024.25,243.233L1024.29,243.23L1024.33,243.226L1024.37,243.221L1024.41,243.216L1024.45,243.211L1024.5,243.205L1024.54,243.199L1024.58,243.192L1024.61,243.184L1024.65,243.177L1024.69,243.168L1024.73,243.159L1024.77,243.15L1024.81,243.14L1024.85,243.13L1024.89,243.119L1024.93,243.108L1024.96,243.097L1025,243.085L1025.04,243.072L1025.08,243.059L1025.11,243.046L1025.15,243.032L1025.19,243.018L1025.22,243.003L1025.26,242.988L1025.3,242.972L1025.33,242.956L1025.37,242.94L1025.4,242.923L1025.44,242.906L1025.47,242.888L1025.51,242.87L1025.54,242.851L1025.58,242.833L1025.61,242.813L1025.65,242.793L1025.68,242.773L1025.71,242.753L1025.75,242.732L1025.78,242.711L1025.81,242.689L1025.84,242.667L1025.88,242.644L1025.91,242.622L1025.94,242.598L1025.97,242.575L1026,242.551L1026.03,242.527L1026.06,242.502L1026.09,242.477L1026.12,242.452L1026.15,242.426L1026.18,242.4L1026.21,242.373L1026.24,242.347L1026.26,242.32L1026.29,242.292L1026.32,242.264L1026.35,242.236L1026.37,242.208L1026.4,242.179L1026.43,242.15L1026.45,242.121L1026.48,242.091L1026.5,242.061L1026.53,242.031L1026.55,242.001L1026.58,241.97L1026.6,241.939L1026.62,241.907L1026.64,241.876L1026.67,241.844L1026.69,241.811L1026.71,241.779L1026.73,241.746L1026.75,241.713L1026.77,241.68L1026.79,241.646L1026.81,241.612L1026.83,241.578L1026.85,241.544L1026.87,241.509L1026.89,241.475L1026.91,241.44L1026.92,241.404L1026.94,241.369L1026.96,241.333L1026.97,241.297L1026.99,241.261L1027,241.224L1027.02,241.188L1027.03,241.151L1027.05,241.114L1027.06,241.077L1027.07,241.039L1027.09,241.002L1027.1,240.964L1027.11,240.926L1027.12,240.887L1027.13,240.849L1027.14,240.81L1027.15,240.771L1027.16,240.732L1027.17,240.693L1027.18,240.654L1027.18,240.614L1027.19,240.575L1027.2,240.535L1027.2,240.494L1027.21,240.454L1027.22,240.414L1027.22,240.373L1027.23,240.332L1027.23,240.291L1027.23,240.25L1027.24,240.209L1027.24,240.167L1027.24,240.126L1027.24,240.084L1027.24,240.042L1027.24,240L1027.24,239.958L1027.24,239.916L1027.24,239.874L1027.24,239.833L1027.24,239.791L1027.23,239.75L1027.23,239.709L1027.23,239.668L1027.22,239.627L1027.22,239.586L1027.21,239.546L1027.2,239.505L1027.2,239.465L1027.19,239.425L1027.18,239.386L1027.18,239.346L1027.17,239.307L1027.16,239.268L1027.15,239.229L1027.14,239.19L1027.13,239.151L1027.12,239.113L1027.11,239.074L1027.1,239.036L1027.09,238.998L1027.07,238.961L1027.06,238.923L1027.05,238.886L1027.03,238.849L1027.02,238.812L1027,238.776L1026.99,238.739L1026.97,238.703L1026.96,238.667L1026.94,238.631L1026.92,238.596L1026.91,238.56L1026.89,238.525L1026.87,238.491L1026.85,238.456L1026.83,238.422L1026.81,238.388L1026.79,238.354L1026.77,238.32L1026.75,238.287L1026.73,238.254L1026.71,238.221L1026.69,238.189L1026.67,238.156L1026.64,238.124L1026.62,238.093L1026.6,238.061L1026.58,238.03L1026.55,237.999L1026.53,237.969L1026.5,237.939L1026.48,237.909L1026.45,237.879L1026.43,237.85L1026.4,237.821L1026.37,237.792L1026.35,237.764L1026.32,237.736L1026.29,237.708L1026.26,237.68L1026.24,237.653L1026.21,237.627L1026.18,237.6L1026.15,237.574L1026.12,237.548L1026.09,237.523L1026.06,237.498L1026.03,237.473L1026,237.449L1025.97,237.425L1025.94,237.402L1025.91,237.378L1025.88,237.356L1025.84,237.333L1025.81,237.311L1025.78,237.289L1025.75,237.268L1025.71,237.247L1025.68,237.227L1025.65,237.207L1025.61,237.187L1025.58,237.167L1025.54,237.149L1025.51,237.13L1025.47,237.112L1025.44,237.094L1025.4,237.077L1025.37,237.06L1025.33,237.044L1025.3,237.028L1025.26,237.012L1025.22,236.997L1025.19,236.982L1025.15,236.968L1025.11,236.954L1025.08,236.941L1025.04,236.928L1025,236.915L1024.96,236.903L1024.93,236.892L1024.89,236.881L1024.85,236.87L1024.81,236.86L1024.77,236.85L1024.73,236.841L1024.69,236.832L1024.65,236.823L1024.61,236.816L1024.58,236.808L1024.54,236.801L1024.5,236.795L1024.45,236.789L1024.41,236.784L1024.37,236.779L1024.33,236.774L1024.29,236.77L1024.25,236.767L1024.21,236.764L1024.17,236.762L1024.13,236.76L1024.08,236.759L1024.04,236.758L1024,236.758L1023.96,236.758Z" style="fill-opacity:0.25098;"/>
            </g>
            <g transform="matrix(1.66667,0,0,1,-1690.67,-221)">
                <rect x="1018" y="248" width="12" height="2" style="fill:white;fill-opacity:0.501961;"/>
            </g>
            <g transform="matrix(1,0,0,1,0,-36)">
                <path d="M5.322,61.051C3.25,58.609 2,55.45 2,52C2,44.273 8.273,38 16,38C23.727,38 30,44.273 30,52C30,55.45 28.75,58.609 26.678,61.051L25.258,59.631C26.971,57.556 28,54.897 28,52C28,45.377 22.623,40 16,40C9.377,40 4,45.377 4,52C4,54.897 5.029,57.556 6.742,59.631L5.322,61.051Z" style="fill:white;"/>
            </g>
        </g>
    </g>
</svg>
