<?xml version="1.0" encoding="UTF-8" standalone="no"?>
<!DOCTYPE svg PUBLIC "-//W3C//DTD SVG 1.1//EN" "http://www.w3.org/Graphics/SVG/1.1/DTD/svg11.dtd">
<svg width="100%" height="100%" viewBox="0 0 32 32" version="1.1" xmlns="http://www.w3.org/2000/svg" xmlns:xlink="http://www.w3.org/1999/xlink" xml:space="preserve" xmlns:serif="http://www.serif.com/" style="fill-rule:evenodd;clip-rule:evenodd;stroke-linejoin:round;stroke-miterlimit:1.41421;">
    <g transform="matrix(1,0,0,1,-36,-72)">
        <g id="info" transform="matrix(1,0,0,1,36,72)">
            <rect x="0" y="0" width="32" height="32" style="fill:none;"/>
            <g transform="matrix(1,0,0,1,0,-72)">
                <circle cx="16" cy="88" r="14" style="fill-opacity:0.25098;"/>
            </g>
            <g transform="matrix(1,0,0,1,-36,-72)">
                <path d="M52,74C59.727,74 66,80.273 66,88C66,95.727 59.727,102 52,102C44.273,102 38,95.727 38,88C38,80.273 44.273,74 52,74ZM55.769,98L55.769,95.756L53.974,95.372L53.974,84.128L48.231,84.128L48.231,86.385L50.231,86.769L50.231,95.372L48.423,95.756L48.423,98L55.769,98ZM53.974,80.808L53.974,78L50.231,78L50.231,80.808L53.974,80.808Z" style="fill:white;"/>
            </g>
        </g>
    </g>
</svg>
