<?xml version="1.0" encoding="UTF-8" standalone="no"?>
<!DOCTYPE svg PUBLIC "-//W3C//DTD SVG 1.1//EN" "http://www.w3.org/Graphics/SVG/1.1/DTD/svg11.dtd">
<svg width="100%" height="100%" viewBox="0 0 32 32" version="1.1" xmlns="http://www.w3.org/2000/svg" xmlns:xlink="http://www.w3.org/1999/xlink" xml:space="preserve" xmlns:serif="http://www.serif.com/" style="fill-rule:evenodd;clip-rule:evenodd;stroke-linejoin:round;stroke-miterlimit:1.41421;">
    <g transform="matrix(1,0,0,1,0,-251)">
        <g id="mute_on" transform="matrix(1,0,0,1,0,251)">
            <rect x="0" y="0" width="32" height="32" style="fill:none;"/>
            <clipPath id="_clip1">
                <rect x="0" y="0" width="32" height="32"/>
            </clipPath>
            <g clip-path="url(#_clip1)">
                <g transform="matrix(1.23077,0,0,1.23077,-3.69231,-179.692)">
                    <path d="M29,149.25C29,147.456 27.544,146 25.75,146L6.25,146C4.456,146 3,147.456 3,149.25L3,168.75C3,170.544 4.456,172 6.25,172L25.75,172C27.544,172 29,170.544 29,168.75L29,149.25Z" style="fill-opacity:0.34902;"/>
                </g>
                <g transform="matrix(1,0,0,1,0,-251)">
                    <path d="M28,283L4,283C1.792,283 0,281.208 0,279L0,255C0,252.792 1.792,251 4,251L28,251C30.208,251 32,252.792 32,255L32,279C32,281.208 30.208,283 28,283ZM13.379,274.671C14.201,274.953 15.083,275.105 16,275.105C16.917,275.105 17.799,274.953 18.621,274.671L16,281L13.379,274.671ZM25.899,276.899L19.57,274.278C21.178,273.487 22.487,272.178 23.278,270.57L25.899,276.899ZM8.722,270.57C9.513,272.178 10.822,273.487 12.43,274.278L6.101,276.899L8.722,270.57ZM16,261.27C19.163,261.27 21.73,263.837 21.73,267C21.73,270.163 19.163,272.73 16,272.73C12.837,272.73 10.27,270.163 10.27,267C10.27,263.837 12.837,261.27 16,261.27ZM8.329,264.379C8.047,265.201 7.895,266.083 7.895,267C7.895,267.917 8.047,268.799 8.329,269.621L2,267L8.329,264.379ZM30,267L23.671,269.621C23.953,268.799 24.105,267.917 24.105,267C24.105,266.083 23.953,265.201 23.671,264.379L30,267ZM12.43,259.722C10.822,260.513 9.513,261.822 8.722,263.43L6.101,257.101L12.43,259.722ZM23.278,263.43C22.487,261.822 21.178,260.513 19.57,259.722L25.899,257.101L23.278,263.43ZM18.621,259.329C17.799,259.047 16.917,258.895 16,258.895C15.083,258.895 14.201,259.047 13.379,259.329L16,253L18.621,259.329Z" style="fill:rgb(169,227,255);"/>
                </g>
            </g>
        </g>
    </g>
</svg>
