<?xml version="1.0" encoding="UTF-8" standalone="no"?>
<!DOCTYPE svg PUBLIC "-//W3C//DTD SVG 1.1//EN" "http://www.w3.org/Graphics/SVG/1.1/DTD/svg11.dtd">
<svg width="100%" height="100%" viewBox="0 0 32 32" version="1.1" xmlns="http://www.w3.org/2000/svg" xmlns:xlink="http://www.w3.org/1999/xlink" xml:space="preserve" xmlns:serif="http://www.serif.com/" style="fill-rule:evenodd;clip-rule:evenodd;stroke-linejoin:round;stroke-miterlimit:1.41421;">
    <g transform="matrix(1,0,0,1,-34,0)">
        <g id="light_on" transform="matrix(1,0,0,1,34,0)">
            <rect x="0" y="0" width="32" height="32" style="fill:none;"/>
            <clipPath id="_clip1">
                <rect x="0" y="0" width="32" height="32"/>
            </clipPath>
            <g clip-path="url(#_clip1)">
                <g id="BG" transform="matrix(1,0,0,1,-34,0)">
                    <path d="M64.72,0C65.427,0 66,0.574 66,1.28L66,30.72C66,31.426 65.427,32 64.72,32L35.28,32C34.574,32 34,31.426 34,30.72L34,1.28C34,0.574 34.573,0 35.28,0L64.72,0Z" style="fill-opacity:0.25098;"/>
                </g>
                <g transform="matrix(1,0,0,1,-34,0)">
                    <path d="M64.72,32L35.28,32C34.574,32 34,31.426 34,30.72L34,1.28C34,0.574 34.573,0 35.28,0L64.72,0C65.427,0 66,0.574 66,1.28L66,30.72C66,31.426 65.427,32 64.72,32ZM47.379,23.671C48.201,23.953 49.083,24.105 50,24.105C50.917,24.105 51.799,23.953 52.621,23.671L50,30L47.379,23.671ZM42.722,19.57C43.514,21.178 44.822,22.487 46.43,23.278L40.101,25.9L42.722,19.57ZM59.899,25.9L53.57,23.278C55.178,22.487 56.487,21.178 57.278,19.57L59.899,25.9ZM50,10C53.311,10 56,12.689 56,16C56,19.311 53.311,22 50,22C46.689,22 44,19.311 44,16C44,12.689 46.689,10 50,10ZM42.329,13.379C42.047,14.201 41.895,15.083 41.895,16C41.895,16.918 42.047,17.799 42.329,18.622L36,16L42.329,13.379ZM64,16L57.671,18.622C57.953,17.799 58.105,16.918 58.105,16C58.105,15.083 57.953,14.201 57.671,13.379L64,16ZM46.43,8.722C44.822,9.514 43.513,10.822 42.722,12.431L40.101,6.101L46.43,8.722ZM57.278,12.431C56.486,10.822 55.178,9.513 53.57,8.722L59.899,6.101L57.278,12.431ZM52.621,8.329C51.799,8.047 50.917,7.895 50,7.895C49.083,7.895 48.201,8.047 47.379,8.329L50,2L52.621,8.329Z" style="fill:rgb(250,170,1);"/>
                </g>
            </g>
        </g>
    </g>
</svg>
