<?xml version="1.0" encoding="UTF-8" standalone="no"?>
<!DOCTYPE svg PUBLIC "-//W3C//DTD SVG 1.1//EN" "http://www.w3.org/Graphics/SVG/1.1/DTD/svg11.dtd">
<svg width="100%" height="100%" viewBox="0 0 32 32" version="1.1" xmlns="http://www.w3.org/2000/svg" xmlns:xlink="http://www.w3.org/1999/xlink" xml:space="preserve" xmlns:serif="http://www.serif.com/" style="fill-rule:evenodd;clip-rule:evenodd;stroke-linejoin:round;stroke-miterlimit:1.41421;">
    <rect id="light_off" x="0" y="0" width="32" height="32" style="fill:none;"/>
    <clipPath id="_clip1">
        <rect id="light_off1" serif:id="light_off" x="0" y="0" width="32" height="32"/>
    </clipPath>
    <g clip-path="url(#_clip1)">
        <path d="M13.379,23.671C14.201,23.953 15.083,24.105 16,24.105C16.917,24.105 17.799,23.953 18.621,23.671L16,30L13.379,23.671ZM8.722,19.57C9.514,21.178 10.822,22.487 12.43,23.278L6.101,25.9L8.722,19.57ZM25.899,25.9L19.57,23.278C21.178,22.487 22.487,21.178 23.278,19.57L25.899,25.9ZM16,9C19.863,9 23,12.137 23,16C23,19.863 19.863,23 16,23C12.137,23 9,19.863 9,16C9,12.137 12.137,9 16,9ZM8.329,13.379C8.047,14.201 7.895,15.083 7.895,16C7.895,16.918 8.047,17.799 8.329,18.622L2,16L8.329,13.379ZM30,16L23.671,18.622C23.953,17.799 24.105,16.918 24.105,16C24.105,15.083 23.953,14.201 23.671,13.379L30,16ZM12.43,8.722C10.822,9.514 9.513,10.822 8.722,12.431L6.101,6.101L12.43,8.722ZM23.278,12.431C22.486,10.822 21.178,9.513 19.57,8.722L25.899,6.101L23.278,12.431ZM18.621,8.329C17.799,8.047 16.917,7.895 16,7.895C15.083,7.895 14.201,8.047 13.379,8.329L16,2L18.621,8.329Z" style="fill-opacity:0.501961;"/>
        <g transform="matrix(0.35,0,0,0.35,-280.8,-191.2)">
            <path d="M848.258,572.002L848.516,572.007L848.773,572.015L849.029,572.026L849.284,572.041L849.538,572.058L849.791,572.079L850.044,572.103L850.295,572.131L850.546,572.161L850.795,572.194L851.044,572.231L851.292,572.27L851.538,572.313L851.784,572.358L852.029,572.407L852.272,572.458L852.514,572.513L852.756,572.57L852.996,572.63L853.235,572.693L853.473,572.759L853.709,572.828L853.945,572.9L854.179,572.974L854.412,573.052L854.643,573.132L854.874,573.214L855.103,573.3L855.33,573.388L855.557,573.479L855.782,573.573L856.005,573.669L856.228,573.768L856.448,573.869L856.668,573.973L856.885,574.08L857.102,574.189L857.317,574.301L857.53,574.415L857.742,574.532L857.952,574.651L858.16,574.773L858.367,574.897L858.573,575.024L858.777,575.153L858.979,575.284L859.179,575.418L859.378,575.554L859.575,575.692L859.77,575.833L859.963,575.975L860.155,576.121L860.345,576.268L860.533,576.418L860.719,576.569L860.903,576.723L861.086,576.88L861.266,577.038L861.445,577.198L861.621,577.361L861.796,577.525L861.969,577.692L862.139,577.861L862.308,578.031L862.475,578.204L862.639,578.379L862.802,578.555L862.962,578.734L863.12,578.914L863.277,579.097L863.431,579.281L863.582,579.467L863.732,579.655L863.879,579.845L864.025,580.037L864.167,580.23L864.308,580.425L864.446,580.622L864.582,580.821L864.716,581.021L864.847,581.223L864.976,581.427L865.103,581.633L865.227,581.84L865.349,582.048L865.468,582.258L865.585,582.47L865.699,582.683L865.811,582.898L865.92,583.115L866.027,583.332L866.131,583.552L866.232,583.772L866.331,583.995L866.427,584.218L866.521,584.443L866.612,584.67L866.7,584.897L866.786,585.126L866.868,585.357L866.948,585.588L867.026,585.821L867.1,586.055L867.172,586.291L867.241,586.527L867.307,586.765L867.37,587.004L867.43,587.244L867.487,587.486L867.542,587.728L867.593,587.971L867.642,588.216L867.687,588.462L867.73,588.708L867.769,588.956L867.806,589.205L867.839,589.454L867.869,589.705L867.897,589.956L867.921,590.209L867.942,590.462L867.959,590.716L867.974,590.971L867.985,591.227L867.993,591.484L867.998,591.742L868,592L867.998,592.258L867.993,592.516L867.985,592.773L867.974,593.029L867.959,593.284L867.942,593.538L867.921,593.791L867.897,594.044L867.869,594.295L867.839,594.546L867.806,594.795L867.769,595.044L867.73,595.292L867.687,595.538L867.642,595.784L867.593,596.029L867.542,596.272L867.487,596.514L867.43,596.756L867.37,596.996L867.307,597.235L867.241,597.473L867.172,597.709L867.1,597.945L867.026,598.179L866.948,598.412L866.868,598.643L866.786,598.874L866.7,599.103L866.612,599.33L866.521,599.557L866.427,599.782L866.331,600.005L866.232,600.228L866.131,600.448L866.027,600.668L865.92,600.885L865.811,601.102L865.699,601.317L865.585,601.53L865.468,601.742L865.349,601.952L865.227,602.16L865.103,602.367L864.976,602.573L864.847,602.777L864.716,602.979L864.582,603.179L864.446,603.378L864.308,603.575L864.167,603.77L864.025,603.963L863.879,604.155L863.732,604.345L863.582,604.533L863.431,604.719L863.277,604.903L863.12,605.086L862.962,605.266L862.802,605.445L862.639,605.621L862.475,605.796L862.308,605.969L862.139,606.139L861.969,606.308L861.796,606.475L861.621,606.639L861.445,606.802L861.266,606.962L861.086,607.12L860.903,607.277L860.719,607.431L860.533,607.582L860.345,607.732L860.155,607.879L859.963,608.025L859.77,608.167L859.575,608.308L859.378,608.446L859.179,608.582L858.979,608.716L858.777,608.847L858.573,608.976L858.367,609.103L858.16,609.227L857.952,609.349L857.742,609.468L857.53,609.585L857.317,609.699L857.102,609.811L856.885,609.92L856.668,610.027L856.448,610.131L856.228,610.232L856.005,610.331L855.782,610.427L855.557,610.521L855.33,610.612L855.103,610.7L854.874,610.786L854.643,610.868L854.412,610.948L854.179,611.026L853.945,611.1L853.709,611.172L853.473,611.241L853.235,611.307L852.996,611.37L852.756,611.43L852.514,611.487L852.272,611.542L852.029,611.593L851.784,611.642L851.538,611.687L851.292,611.73L851.044,611.769L850.795,611.806L850.546,611.839L850.295,611.869L850.044,611.897L849.791,611.921L849.538,611.942L849.284,611.959L849.029,611.974L848.773,611.985L848.516,611.993L848.258,611.998L848,612L847.742,611.998L847.484,611.993L847.227,611.985L846.971,611.974L846.716,611.959L846.462,611.942L846.209,611.921L845.956,611.897L845.705,611.869L845.454,611.839L845.205,611.806L844.956,611.769L844.708,611.73L844.462,611.687L844.216,611.642L843.971,611.593L843.728,611.542L843.486,611.487L843.244,611.43L843.004,611.37L842.765,611.307L842.527,611.241L842.291,611.172L842.055,611.1L841.821,611.026L841.588,610.948L841.357,610.868L841.126,610.786L840.897,610.7L840.67,610.612L840.443,610.521L840.218,610.427L839.995,610.331L839.772,610.232L839.552,610.131L839.332,610.027L839.115,609.92L838.898,609.811L838.683,609.699L838.47,609.585L838.258,609.468L838.048,609.349L837.84,609.227L837.633,609.103L837.427,608.976L837.223,608.847L837.021,608.716L836.821,608.582L836.622,608.446L836.425,608.308L836.23,608.167L836.037,608.025L835.845,607.879L835.655,607.732L835.467,607.582L835.281,607.431L835.097,607.277L834.914,607.12L834.734,606.962L834.555,606.802L834.379,606.639L834.204,606.475L834.031,606.308L833.861,606.139L833.692,605.969L833.525,605.796L833.361,605.621L833.198,605.445L833.038,605.266L832.88,605.086L832.723,604.903L832.569,604.719L832.418,604.533L832.268,604.345L832.121,604.155L831.975,603.963L831.833,603.77L831.692,603.575L831.554,603.378L831.418,603.179L831.284,602.979L831.153,602.777L831.024,602.573L830.897,602.367L830.773,602.16L830.651,601.952L830.532,601.742L830.415,601.53L830.301,601.317L830.189,601.102L830.08,600.885L829.973,600.668L829.869,600.448L829.768,600.228L829.669,600.005L829.573,599.782L829.479,599.557L829.388,599.33L829.3,599.103L829.214,598.874L829.132,598.643L829.052,598.412L828.974,598.179L828.9,597.945L828.828,597.709L828.759,597.473L828.693,597.235L828.63,596.996L828.57,596.756L828.513,596.514L828.458,596.272L828.407,596.029L828.358,595.784L828.313,595.538L828.27,595.292L828.231,595.044L828.194,594.795L828.161,594.546L828.131,594.295L828.103,594.044L828.079,593.791L828.058,593.538L828.041,593.284L828.026,593.029L828.015,592.773L828.007,592.516L828.002,592.258L828,592L828.002,591.742L828.007,591.484L828.015,591.227L828.026,590.971L828.041,590.716L828.058,590.462L828.079,590.209L828.103,589.956L828.131,589.705L828.161,589.454L828.194,589.205L828.231,588.956L828.27,588.708L828.313,588.462L828.358,588.216L828.407,587.971L828.458,587.728L828.513,587.486L828.57,587.244L828.63,587.004L828.693,586.765L828.759,586.527L828.828,586.291L828.9,586.055L828.974,585.821L829.052,585.588L829.132,585.357L829.214,585.126L829.3,584.897L829.388,584.67L829.479,584.443L829.573,584.218L829.669,583.995L829.768,583.772L829.869,583.552L829.973,583.332L830.08,583.115L830.189,582.898L830.301,582.683L830.415,582.47L830.532,582.258L830.651,582.048L830.773,581.84L830.897,581.633L831.024,581.427L831.153,581.223L831.284,581.021L831.418,580.821L831.554,580.622L831.692,580.425L831.833,580.23L831.975,580.037L832.121,579.845L832.268,579.655L832.418,579.467L832.569,579.281L832.723,579.097L832.88,578.914L833.038,578.734L833.198,578.555L833.361,578.379L833.525,578.204L833.692,578.031L833.861,577.861L834.031,577.692L834.204,577.525L834.379,577.361L834.555,577.198L834.734,577.038L834.914,576.88L835.097,576.723L835.281,576.569L835.467,576.418L835.655,576.268L835.845,576.121L836.037,575.975L836.23,575.833L836.425,575.692L836.622,575.554L836.821,575.418L837.021,575.284L837.223,575.153L837.427,575.024L837.633,574.897L837.84,574.773L838.048,574.651L838.258,574.532L838.47,574.415L838.683,574.301L838.898,574.189L839.115,574.08L839.332,573.973L839.552,573.869L839.772,573.768L839.995,573.669L840.218,573.573L840.443,573.479L840.67,573.388L840.897,573.3L841.126,573.214L841.357,573.132L841.588,573.052L841.821,572.974L842.055,572.9L842.291,572.828L842.527,572.759L842.765,572.693L843.004,572.63L843.244,572.57L843.486,572.513L843.728,572.458L843.971,572.407L844.216,572.358L844.462,572.313L844.708,572.27L844.956,572.231L845.205,572.194L845.454,572.161L845.705,572.131L845.956,572.103L846.209,572.079L846.462,572.058L846.716,572.041L846.971,572.026L847.227,572.015L847.484,572.007L847.742,572.002L848,572L848.258,572.002ZM847.814,577.716L847.629,577.719L847.445,577.725L847.261,577.733L847.078,577.744L846.896,577.756L846.715,577.771L846.534,577.788L846.355,577.808L846.176,577.829L845.997,577.853L845.82,577.879L845.643,577.907L845.467,577.938L845.292,577.97L845.119,578.005L844.945,578.041L844.772,578.08L844.601,578.121L844.429,578.164L844.259,578.209L844.09,578.256L843.922,578.305L843.754,578.356L843.587,578.409L843.421,578.464L843.257,578.521L843.092,578.58L842.929,578.641L842.767,578.704L842.606,578.768L842.446,578.835L842.286,578.904L842.128,578.974L841.971,579.046L841.814,579.121L841.659,579.197L841.505,579.275L841.351,579.355L841.199,579.436L841.048,579.519L840.898,579.605L840.749,579.692L840.601,579.78L840.454,579.87L840.308,579.963L840.164,580.057L840.021,580.152L839.879,580.249L839.738,580.348L839.598,580.449L839.46,580.551L839.323,580.655L839.187,580.761L839.052,580.868L838.919,580.977L838.787,581.087L838.656,581.198L838.527,581.312L838.399,581.427L838.272,581.543L838.147,581.661L838.024,581.781L837.901,581.901L837.781,582.023L837.661,582.147L837.543,582.273L837.427,582.399L837.312,582.527L837.199,582.656L837.087,582.787L836.976,582.919L836.868,583.052L836.761,583.187L836.655,583.322L836.551,583.46L836.449,583.598L836.348,583.738L836.25,583.878L836.152,584.021L836.057,584.164L835.963,584.309L835.871,584.454L835.78,584.601L835.691,584.749L835.604,584.898L835.519,585.048L835.436,585.199L835.355,585.351L835.275,585.504L835.197,585.659L835.121,585.814L835.047,585.97L834.974,586.128L834.904,586.286L834.835,586.446L834.769,586.606L834.704,586.767L834.641,586.929L834.58,587.092L834.521,587.257L834.464,587.421L834.409,587.587L834.356,587.754L834.305,587.922L834.256,588.09L834.209,588.259L834.164,588.429L834.121,588.6L834.08,588.772L834.041,588.945L834.005,589.118L833.97,589.293L833.938,589.468L833.907,589.643L833.879,589.82L833.853,589.997L833.829,590.176L833.808,590.355L833.788,590.534L833.771,590.715L833.756,590.896L833.744,591.078L833.733,591.261L833.725,591.445L833.719,591.629L833.716,591.814L833.714,592L833.716,592.186L833.719,592.371L833.725,592.555L833.733,592.739L833.744,592.922L833.756,593.104L833.771,593.285L833.788,593.466L833.808,593.645L833.829,593.824L833.853,594.002L833.879,594.18L833.907,594.357L833.938,594.532L833.97,594.708L834.005,594.882L834.041,595.055L834.08,595.228L834.121,595.4L834.164,595.571L834.209,595.741L834.256,595.91L834.305,596.079L834.356,596.246L834.409,596.413L834.464,596.579L834.521,596.743L834.58,596.908L834.641,597.071L834.704,597.233L834.769,597.394L834.835,597.554L834.904,597.714L834.974,597.872L835.047,598.03L835.121,598.186L835.197,598.341L835.275,598.496L835.355,598.649L835.436,598.801L835.519,598.952L835.604,599.102L835.691,599.251L835.78,599.399L835.871,599.546L835.963,599.691L836.057,599.836L836.152,599.979L836.249,600.121L836.348,600.262L836.449,600.402L836.551,600.54L836.655,600.678L836.761,600.813L836.868,600.948L836.976,601.081L837.087,601.213L837.199,601.344L837.312,601.473L837.427,601.601L837.543,601.727L837.661,601.853L837.781,601.977L837.902,602.099L838.024,602.219L838.147,602.339L838.272,602.457L838.399,602.573L838.527,602.688L838.656,602.802L838.787,602.913L838.919,603.023L839.052,603.132L839.187,603.239L839.323,603.345L839.46,603.449L839.598,603.551L839.738,603.652L839.879,603.751L840.02,603.848L840.164,603.943L840.309,604.037L840.454,604.13L840.601,604.22L840.749,604.309L840.898,604.395L841.048,604.481L841.199,604.564L841.351,604.645L841.505,604.725L841.659,604.803L841.814,604.879L841.971,604.954L842.128,605.026L842.286,605.096L842.446,605.165L842.606,605.232L842.767,605.296L842.929,605.359L843.092,605.42L843.257,605.479L843.421,605.536L843.587,605.591L843.754,605.644L843.922,605.695L844.09,605.744L844.259,605.791L844.429,605.836L844.601,605.879L844.772,605.92L844.945,605.959L845.119,605.995L845.292,606.03L845.467,606.062L845.643,606.093L845.82,606.121L845.997,606.147L846.176,606.171L846.355,606.192L846.534,606.212L846.715,606.229L846.896,606.244L847.078,606.256L847.261,606.267L847.445,606.275L847.629,606.281L847.814,606.284L848,606.286L848.186,606.284L848.371,606.281L848.555,606.275L848.739,606.267L848.922,606.256L849.104,606.244L849.285,606.229L849.466,606.212L849.645,606.192L849.824,606.171L850.003,606.147L850.18,606.121L850.357,606.093L850.533,606.062L850.708,606.03L850.881,605.995L851.055,605.959L851.228,605.92L851.399,605.879L851.571,605.836L851.741,605.791L851.91,605.744L852.078,605.695L852.246,605.644L852.413,605.591L852.579,605.536L852.743,605.479L852.908,605.42L853.071,605.359L853.233,605.296L853.394,605.232L853.554,605.165L853.714,605.096L853.872,605.026L854.029,604.954L854.186,604.879L854.341,604.803L854.495,604.725L854.649,604.645L854.801,604.564L854.952,604.481L855.102,604.395L855.251,604.308L855.399,604.22L855.546,604.13L855.691,604.037L855.836,603.943L855.98,603.848L856.121,603.751L856.262,603.652L856.402,603.551L856.54,603.449L856.677,603.345L856.813,603.239L856.948,603.132L857.081,603.023L857.213,602.913L857.344,602.802L857.473,602.688L857.601,602.573L857.728,602.457L857.853,602.339L857.976,602.219L858.098,602.099L858.219,601.977L858.339,601.853L858.457,601.727L858.573,601.601L858.688,601.473L858.801,601.344L858.913,601.213L859.024,601.081L859.132,600.948L859.239,600.813L859.345,600.678L859.449,600.54L859.551,600.402L859.652,600.262L859.751,600.121L859.848,599.979L859.943,599.836L860.037,599.691L860.129,599.546L860.22,599.399L860.309,599.251L860.396,599.102L860.481,598.952L860.564,598.801L860.645,598.649L860.725,598.496L860.803,598.341L860.879,598.186L860.953,598.03L861.026,597.872L861.096,597.714L861.165,597.554L861.231,597.394L861.296,597.233L861.359,597.071L861.42,596.908L861.479,596.743L861.536,596.579L861.591,596.413L861.644,596.246L861.695,596.079L861.744,595.91L861.791,595.741L861.836,595.571L861.879,595.4L861.92,595.228L861.959,595.055L861.995,594.882L862.03,594.708L862.062,594.532L862.093,594.357L862.121,594.18L862.147,594.002L862.171,593.824L862.192,593.645L862.212,593.466L862.229,593.285L862.244,593.104L862.256,592.922L862.267,592.739L862.275,592.555L862.281,592.371L862.284,592.186L862.286,592L862.284,591.814L862.281,591.629L862.275,591.445L862.267,591.261L862.256,591.078L862.244,590.896L862.229,590.715L862.212,590.534L862.192,590.355L862.171,590.176L862.147,589.997L862.121,589.82L862.093,589.643L862.062,589.467L862.03,589.293L861.995,589.118L861.959,588.945L861.92,588.772L861.879,588.6L861.836,588.429L861.791,588.259L861.744,588.09L861.695,587.922L861.644,587.754L861.591,587.587L861.536,587.421L861.479,587.257L861.42,587.092L861.359,586.929L861.296,586.767L861.231,586.606L861.165,586.446L861.096,586.286L861.026,586.128L860.953,585.97L860.879,585.814L860.803,585.659L860.725,585.504L860.645,585.351L860.564,585.199L860.481,585.048L860.396,584.898L860.309,584.749L860.22,584.601L860.129,584.454L860.037,584.309L859.943,584.164L859.848,584.021L859.75,583.878L859.652,583.738L859.551,583.598L859.449,583.46L859.345,583.322L859.239,583.187L859.132,583.052L859.024,582.919L858.913,582.787L858.801,582.656L858.688,582.527L858.573,582.399L858.457,582.273L858.339,582.147L858.219,582.023L858.099,581.901L857.976,581.781L857.853,581.661L857.728,581.543L857.601,581.427L857.473,581.312L857.344,581.198L857.213,581.087L857.081,580.977L856.948,580.868L856.813,580.761L856.677,580.655L856.54,580.551L856.402,580.449L856.262,580.348L856.121,580.249L855.979,580.152L855.836,580.057L855.692,579.963L855.546,579.87L855.399,579.78L855.251,579.692L855.102,579.605L854.952,579.519L854.801,579.436L854.649,579.355L854.495,579.275L854.341,579.197L854.186,579.121L854.029,579.046L853.872,578.974L853.714,578.904L853.554,578.835L853.394,578.768L853.233,578.704L853.071,578.641L852.908,578.58L852.743,578.521L852.579,578.464L852.413,578.409L852.246,578.356L852.078,578.305L851.91,578.256L851.741,578.209L851.571,578.164L851.399,578.121L851.228,578.08L851.055,578.041L850.881,578.005L850.708,577.97L850.533,577.938L850.357,577.907L850.18,577.879L850.003,577.853L849.824,577.829L849.645,577.808L849.466,577.788L849.285,577.771L849.104,577.756L848.922,577.744L848.739,577.733L848.555,577.725L848.371,577.719L848.186,577.716L848,577.714L847.814,577.716Z" style="fill-opacity:0.247059;"/>
        </g>
    </g>
</svg>
