<?xml version="1.0" encoding="UTF-8" standalone="no"?>
<!DOCTYPE svg PUBLIC "-//W3C//DTD SVG 1.1//EN" "http://www.w3.org/Graphics/SVG/1.1/DTD/svg11.dtd">
<svg width="100%" height="100%" viewBox="0 0 32 32" version="1.1" xmlns="http://www.w3.org/2000/svg" xmlns:xlink="http://www.w3.org/1999/xlink" xml:space="preserve" xmlns:serif="http://www.serif.com/" style="fill-rule:evenodd;clip-rule:evenodd;stroke-linejoin:round;stroke-miterlimit:1.41421;">
    <g transform="matrix(1,0,0,1,-72,-287)">
        <g id="ll_on" transform="matrix(1,0,0,1,72,287)">
            <rect x="0" y="0" width="32" height="32" style="fill:none;"/>
            <g transform="matrix(1.375,0,0,1.375,-6,-389.625)">
                <circle cx="16" cy="295" r="8" style="fill:rgb(250,170,1);"/>
                <path d="M16.122,285.546L16.243,285.549L16.364,285.552L16.485,285.558L16.606,285.565L16.726,285.573L16.845,285.583L16.965,285.594L17.083,285.607L17.202,285.621L17.32,285.637L17.438,285.654L17.555,285.673L17.672,285.693L17.788,285.715L17.903,285.738L18.019,285.762L18.133,285.788L18.247,285.815L18.361,285.843L18.474,285.873L18.587,285.905L18.699,285.937L18.81,285.971L18.921,286.006L19.031,286.043L19.141,286.081L19.25,286.12L19.358,286.161L19.466,286.202L19.573,286.245L19.68,286.29L19.786,286.335L19.891,286.382L19.995,286.43L20.099,286.479L20.202,286.53L20.304,286.581L20.406,286.634L20.507,286.688L20.607,286.743L20.706,286.8L20.805,286.857L20.903,286.916L21,286.976L21.096,287.037L21.191,287.099L21.286,287.162L21.38,287.226L21.473,287.292L21.565,287.358L21.656,287.425L21.747,287.494L21.837,287.564L21.925,287.634L22.013,287.706L22.1,287.779L22.187,287.852L22.272,287.927L22.356,288.003L22.44,288.08L22.522,288.157L22.604,288.236L22.684,288.316L22.764,288.396L22.843,288.478L22.92,288.56L22.997,288.644L23.073,288.728L23.148,288.813L23.221,288.9L23.294,288.987L23.366,289.074L23.436,289.163L23.506,289.253L23.575,289.343L23.642,289.435L23.708,289.527L23.774,289.62L23.838,289.714L23.901,289.809L23.963,289.904L24.024,290L24.084,290.097L24.143,290.195L24.2,290.294L24.257,290.393L24.312,290.493L24.366,290.594L24.419,290.696L24.47,290.798L24.521,290.901L24.57,291.005L24.618,291.109L24.665,291.214L24.71,291.32L24.755,291.427L24.798,291.534L24.84,291.642L24.88,291.75L24.919,291.859L24.957,291.969L24.994,292.079L25.029,292.19L25.063,292.301L25.095,292.413L25.127,292.526L25.157,292.639L25.185,292.753L25.212,292.867L25.238,292.981L25.262,293.097L25.285,293.212L25.307,293.329L25.327,293.445L25.346,293.562L25.363,293.68L25.379,293.798L25.393,293.917L25.406,294.035L25.417,294.155L25.427,294.274L25.435,294.394L25.442,294.515L25.448,294.636L25.451,294.757L25.454,294.878L25.455,295L25.454,295.122L25.451,295.243L25.448,295.364L25.442,295.485L25.435,295.606L25.427,295.726L25.417,295.845L25.406,295.965L25.393,296.083L25.379,296.202L25.363,296.32L25.346,296.438L25.327,296.555L25.307,296.671L25.285,296.788L25.262,296.903L25.238,297.019L25.212,297.133L25.185,297.247L25.157,297.361L25.127,297.474L25.095,297.587L25.063,297.699L25.029,297.81L24.994,297.921L24.957,298.031L24.919,298.141L24.88,298.25L24.84,298.358L24.798,298.466L24.755,298.573L24.71,298.68L24.665,298.786L24.618,298.891L24.57,298.995L24.521,299.099L24.47,299.202L24.419,299.304L24.366,299.406L24.312,299.507L24.257,299.607L24.2,299.706L24.143,299.805L24.084,299.903L24.024,300L23.963,300.096L23.901,300.191L23.838,300.286L23.774,300.38L23.708,300.473L23.642,300.565L23.575,300.657L23.506,300.747L23.436,300.837L23.366,300.926L23.294,301.013L23.221,301.1L23.148,301.187L23.073,301.272L22.997,301.356L22.92,301.44L22.843,301.522L22.764,301.604L22.684,301.684L22.604,301.764L22.522,301.843L22.44,301.92L22.356,301.997L22.272,302.073L22.187,302.148L22.1,302.221L22.013,302.294L21.925,302.366L21.837,302.436L21.747,302.506L21.656,302.575L21.565,302.642L21.473,302.708L21.38,302.774L21.286,302.838L21.191,302.901L21.096,302.963L21,303.024L20.902,303.084L20.805,303.143L20.706,303.2L20.607,303.257L20.507,303.312L20.406,303.366L20.304,303.419L20.202,303.47L20.099,303.521L19.995,303.57L19.891,303.618L19.786,303.665L19.68,303.71L19.573,303.755L19.466,303.798L19.358,303.839L19.25,303.88L19.141,303.919L19.031,303.957L18.921,303.994L18.81,304.029L18.699,304.063L18.587,304.095L18.474,304.127L18.361,304.157L18.247,304.185L18.133,304.212L18.019,304.238L17.903,304.262L17.788,304.285L17.672,304.307L17.555,304.327L17.438,304.346L17.32,304.363L17.202,304.379L17.084,304.393L16.965,304.406L16.845,304.417L16.726,304.427L16.606,304.435L16.485,304.442L16.364,304.448L16.243,304.451L16.122,304.454L16,304.455L15.878,304.454L15.757,304.451L15.636,304.448L15.515,304.442L15.394,304.435L15.274,304.427L15.155,304.417L15.035,304.406L14.916,304.393L14.798,304.379L14.68,304.363L14.562,304.346L14.445,304.327L14.328,304.307L14.212,304.285L14.097,304.262L13.981,304.238L13.867,304.212L13.753,304.185L13.639,304.157L13.526,304.127L13.413,304.095L13.301,304.063L13.19,304.029L13.079,303.994L12.969,303.957L12.859,303.919L12.75,303.88L12.642,303.839L12.534,303.798L12.427,303.755L12.32,303.71L12.214,303.665L12.109,303.618L12.005,303.57L11.901,303.521L11.798,303.47L11.696,303.419L11.594,303.366L11.493,303.312L11.393,303.257L11.294,303.2L11.195,303.143L11.098,303.084L11,303.024L10.904,302.963L10.809,302.901L10.714,302.838L10.62,302.774L10.527,302.708L10.435,302.642L10.344,302.575L10.253,302.506L10.163,302.436L10.075,302.366L9.987,302.294L9.9,302.221L9.813,302.148L9.728,302.073L9.644,301.997L9.56,301.92L9.478,301.843L9.396,301.764L9.316,301.684L9.236,301.604L9.157,301.522L9.08,301.44L9.003,301.356L8.927,301.272L8.852,301.187L8.779,301.1L8.706,301.013L8.634,300.926L8.564,300.837L8.494,300.747L8.425,300.657L8.358,300.565L8.292,300.473L8.226,300.38L8.162,300.286L8.099,300.191L8.037,300.096L7.976,300L7.916,299.903L7.857,299.805L7.8,299.706L7.743,299.607L7.688,299.507L7.634,299.406L7.581,299.304L7.53,299.202L7.479,299.099L7.43,298.995L7.382,298.891L7.335,298.786L7.29,298.68L7.245,298.573L7.202,298.466L7.16,298.358L7.12,298.25L7.081,298.141L7.043,298.031L7.006,297.921L6.971,297.81L6.937,297.699L6.905,297.587L6.873,297.474L6.843,297.361L6.815,297.247L6.788,297.133L6.762,297.019L6.738,296.903L6.715,296.788L6.693,296.671L6.673,296.555L6.654,296.438L6.637,296.32L6.621,296.202L6.607,296.083L6.594,295.965L6.583,295.845L6.573,295.726L6.565,295.606L6.558,295.485L6.552,295.364L6.549,295.243L6.546,295.122L6.545,295L6.546,294.878L6.549,294.757L6.552,294.636L6.558,294.515L6.565,294.394L6.573,294.274L6.583,294.155L6.594,294.035L6.607,293.917L6.621,293.798L6.637,293.68L6.654,293.562L6.673,293.445L6.693,293.329L6.715,293.212L6.738,293.097L6.762,292.981L6.788,292.867L6.815,292.753L6.843,292.639L6.873,292.526L6.905,292.413L6.937,292.301L6.971,292.19L7.006,292.079L7.043,291.969L7.081,291.859L7.12,291.75L7.16,291.642L7.202,291.534L7.245,291.427L7.29,291.32L7.335,291.214L7.382,291.109L7.43,291.005L7.479,290.901L7.53,290.798L7.581,290.696L7.634,290.594L7.688,290.493L7.743,290.393L7.8,290.294L7.857,290.195L7.916,290.097L7.976,290L8.037,289.904L8.099,289.809L8.162,289.714L8.226,289.62L8.292,289.527L8.358,289.435L8.425,289.343L8.494,289.253L8.564,289.163L8.634,289.074L8.706,288.987L8.779,288.9L8.852,288.813L8.927,288.728L9.003,288.644L9.08,288.56L9.157,288.478L9.236,288.396L9.316,288.316L9.396,288.236L9.478,288.157L9.56,288.08L9.644,288.003L9.728,287.927L9.813,287.852L9.9,287.779L9.987,287.706L10.075,287.634L10.163,287.564L10.253,287.494L10.344,287.425L10.435,287.358L10.527,287.292L10.62,287.226L10.714,287.162L10.809,287.099L10.904,287.037L11,286.976L11.097,286.916L11.195,286.857L11.294,286.8L11.393,286.743L11.493,286.688L11.594,286.634L11.696,286.581L11.798,286.53L11.901,286.479L12.005,286.43L12.109,286.382L12.214,286.335L12.32,286.29L12.427,286.245L12.534,286.202L12.642,286.161L12.75,286.12L12.859,286.081L12.969,286.043L13.079,286.006L13.19,285.971L13.301,285.937L13.413,285.905L13.526,285.873L13.639,285.843L13.753,285.815L13.867,285.788L13.981,285.762L14.097,285.738L14.212,285.715L14.328,285.693L14.445,285.673L14.562,285.654L14.68,285.637L14.798,285.621L14.917,285.607L15.035,285.594L15.155,285.583L15.274,285.573L15.394,285.565L15.515,285.558L15.636,285.552L15.757,285.549L15.878,285.546L16,285.545L16.122,285.546ZM15.897,287.001L15.794,287.003L15.691,287.006L15.589,287.01L15.487,287.016L15.385,287.023L15.284,287.032L15.183,287.041L15.082,287.052L14.982,287.064L14.882,287.078L14.782,287.092L14.683,287.108L14.585,287.125L14.486,287.143L14.389,287.163L14.291,287.183L14.194,287.205L14.098,287.228L14.002,287.252L13.906,287.277L13.811,287.304L13.716,287.331L13.622,287.36L13.528,287.39L13.435,287.421L13.343,287.453L13.251,287.486L13.159,287.52L13.068,287.555L12.977,287.592L12.887,287.629L12.798,287.668L12.709,287.707L12.621,287.748L12.533,287.789L12.446,287.832L12.359,287.876L12.273,287.92L12.188,287.966L12.103,288.013L12.019,288.061L11.936,288.109L11.853,288.159L11.771,288.209L11.689,288.261L11.609,288.314L11.528,288.367L11.449,288.421L11.37,288.477L11.292,288.533L11.215,288.59L11.138,288.648L11.062,288.707L10.987,288.767L10.912,288.828L10.839,288.889L10.766,288.952L10.694,289.015L10.622,289.079L10.551,289.144L10.482,289.21L10.413,289.277L10.344,289.344L10.277,289.413L10.21,289.482L10.144,289.551L10.079,289.622L10.015,289.694L9.952,289.766L9.889,289.839L9.828,289.912L9.767,289.987L9.707,290.062L9.648,290.138L9.59,290.215L9.533,290.292L9.477,290.37L9.421,290.449L9.367,290.528L9.314,290.609L9.261,290.689L9.209,290.771L9.159,290.853L9.109,290.936L9.061,291.019L9.013,291.103L8.966,291.188L8.92,291.273L8.876,291.359L8.832,291.446L8.789,291.533L8.748,291.621L8.707,291.709L8.668,291.798L8.629,291.887L8.592,291.977L8.555,292.068L8.52,292.159L8.486,292.251L8.453,292.343L8.421,292.435L8.39,292.528L8.36,292.622L8.331,292.716L8.304,292.811L8.277,292.906L8.252,293.002L8.228,293.098L8.205,293.194L8.183,293.291L8.163,293.389L8.143,293.486L8.125,293.585L8.108,293.683L8.092,293.782L8.078,293.882L8.064,293.982L8.052,294.082L8.041,294.183L8.032,294.284L8.023,294.385L8.016,294.487L8.01,294.589L8.006,294.691L8.003,294.794L8.001,294.897L8,295L8.001,295.103L8.003,295.206L8.006,295.309L8.01,295.411L8.016,295.513L8.023,295.615L8.032,295.716L8.041,295.817L8.052,295.918L8.064,296.018L8.078,296.118L8.092,296.218L8.108,296.317L8.125,296.415L8.143,296.514L8.163,296.611L8.183,296.709L8.205,296.806L8.228,296.902L8.252,296.998L8.277,297.094L8.304,297.189L8.331,297.284L8.36,297.378L8.39,297.472L8.421,297.565L8.453,297.657L8.486,297.749L8.52,297.841L8.555,297.932L8.592,298.023L8.629,298.113L8.668,298.202L8.707,298.291L8.748,298.379L8.789,298.467L8.832,298.554L8.876,298.641L8.92,298.727L8.966,298.812L9.013,298.897L9.061,298.981L9.109,299.064L9.159,299.147L9.209,299.229L9.261,299.311L9.314,299.391L9.367,299.472L9.421,299.551L9.477,299.63L9.533,299.708L9.59,299.785L9.648,299.862L9.707,299.938L9.767,300.013L9.828,300.088L9.889,300.161L9.952,300.234L10.015,300.306L10.079,300.378L10.144,300.449L10.21,300.518L10.277,300.587L10.344,300.656L10.413,300.723L10.482,300.79L10.551,300.856L10.622,300.921L10.694,300.985L10.766,301.048L10.839,301.111L10.912,301.172L10.987,301.233L11.062,301.293L11.138,301.352L11.215,301.41L11.292,301.467L11.37,301.523L11.449,301.579L11.528,301.633L11.609,301.686L11.689,301.739L11.771,301.791L11.853,301.841L11.936,301.891L12.019,301.939L12.103,301.987L12.188,302.034L12.273,302.08L12.359,302.124L12.446,302.168L12.533,302.211L12.621,302.252L12.709,302.293L12.798,302.332L12.887,302.371L12.977,302.408L13.068,302.445L13.159,302.48L13.251,302.514L13.343,302.547L13.435,302.579L13.528,302.61L13.622,302.64L13.716,302.669L13.811,302.696L13.906,302.723L14.002,302.748L14.098,302.772L14.194,302.795L14.291,302.817L14.389,302.837L14.486,302.857L14.585,302.875L14.683,302.892L14.782,302.908L14.882,302.922L14.982,302.936L15.082,302.948L15.183,302.959L15.284,302.968L15.385,302.977L15.487,302.984L15.589,302.99L15.691,302.994L15.794,302.997L15.897,302.999L16,303L16.103,302.999L16.206,302.997L16.309,302.994L16.411,302.99L16.513,302.984L16.615,302.977L16.716,302.968L16.817,302.959L16.918,302.948L17.018,302.936L17.118,302.922L17.218,302.908L17.317,302.892L17.415,302.875L17.514,302.857L17.611,302.837L17.709,302.817L17.806,302.795L17.902,302.772L17.998,302.748L18.094,302.723L18.189,302.696L18.284,302.669L18.378,302.64L18.472,302.61L18.565,302.579L18.657,302.547L18.749,302.514L18.841,302.48L18.932,302.445L19.023,302.408L19.113,302.371L19.202,302.332L19.291,302.293L19.379,302.252L19.467,302.211L19.554,302.168L19.641,302.124L19.727,302.08L19.812,302.034L19.897,301.987L19.981,301.939L20.064,301.891L20.147,301.841L20.229,301.791L20.311,301.739L20.391,301.686L20.472,301.633L20.551,301.579L20.63,301.523L20.708,301.467L20.785,301.41L20.862,301.352L20.938,301.293L21.013,301.233L21.088,301.172L21.161,301.111L21.234,301.048L21.306,300.985L21.378,300.921L21.449,300.856L21.518,300.79L21.587,300.723L21.656,300.656L21.723,300.587L21.79,300.518L21.856,300.449L21.921,300.378L21.985,300.306L22.048,300.234L22.111,300.161L22.172,300.088L22.233,300.013L22.293,299.938L22.352,299.862L22.41,299.785L22.467,299.708L22.523,299.63L22.579,299.551L22.633,299.472L22.686,299.391L22.739,299.311L22.791,299.229L22.841,299.147L22.891,299.064L22.939,298.981L22.987,298.897L23.034,298.812L23.08,298.727L23.124,298.641L23.168,298.554L23.211,298.467L23.252,298.379L23.293,298.291L23.332,298.202L23.371,298.113L23.408,298.023L23.445,297.932L23.48,297.841L23.514,297.749L23.547,297.657L23.579,297.565L23.61,297.472L23.64,297.378L23.669,297.284L23.696,297.189L23.723,297.094L23.748,296.998L23.772,296.902L23.795,296.806L23.817,296.709L23.837,296.611L23.857,296.514L23.875,296.415L23.892,296.317L23.908,296.218L23.922,296.118L23.936,296.018L23.948,295.918L23.959,295.817L23.968,295.716L23.977,295.615L23.984,295.513L23.99,295.411L23.994,295.309L23.997,295.206L23.999,295.103L24,295L23.999,294.897L23.997,294.794L23.994,294.691L23.99,294.589L23.984,294.487L23.977,294.385L23.968,294.284L23.959,294.183L23.948,294.082L23.936,293.982L23.922,293.882L23.908,293.782L23.892,293.683L23.875,293.585L23.857,293.486L23.837,293.389L23.817,293.291L23.795,293.194L23.772,293.098L23.748,293.002L23.723,292.906L23.696,292.811L23.669,292.716L23.64,292.622L23.61,292.528L23.579,292.435L23.547,292.343L23.514,292.251L23.48,292.159L23.445,292.068L23.408,291.977L23.371,291.887L23.332,291.798L23.293,291.709L23.252,291.621L23.211,291.533L23.168,291.446L23.124,291.359L23.08,291.273L23.034,291.188L22.987,291.103L22.939,291.019L22.891,290.936L22.841,290.853L22.791,290.771L22.739,290.689L22.686,290.609L22.633,290.528L22.579,290.449L22.523,290.37L22.467,290.292L22.41,290.215L22.352,290.138L22.293,290.062L22.233,289.987L22.172,289.912L22.111,289.839L22.048,289.766L21.985,289.694L21.921,289.622L21.856,289.551L21.79,289.482L21.723,289.413L21.656,289.344L21.587,289.277L21.518,289.21L21.449,289.144L21.378,289.079L21.306,289.015L21.234,288.952L21.161,288.889L21.088,288.828L21.013,288.767L20.938,288.707L20.862,288.648L20.785,288.59L20.708,288.533L20.63,288.477L20.551,288.421L20.472,288.367L20.391,288.314L20.311,288.261L20.229,288.209L20.147,288.159L20.064,288.109L19.981,288.061L19.897,288.013L19.812,287.966L19.727,287.92L19.641,287.876L19.554,287.832L19.467,287.789L19.379,287.748L19.291,287.707L19.202,287.668L19.113,287.629L19.023,287.592L18.932,287.555L18.841,287.52L18.749,287.486L18.657,287.453L18.565,287.421L18.472,287.39L18.378,287.36L18.284,287.331L18.189,287.304L18.094,287.277L17.998,287.252L17.902,287.228L17.806,287.205L17.709,287.183L17.611,287.163L17.514,287.143L17.415,287.125L17.317,287.108L17.218,287.092L17.118,287.078L17.018,287.064L16.918,287.052L16.817,287.041L16.716,287.032L16.615,287.023L16.513,287.016L16.411,287.01L16.309,287.006L16.206,287.003L16.103,287.001L16,287L15.897,287.001Z" style="fill:white;"/>
            </g>
        </g>
    </g>
</svg>
