<?xml version="1.0" encoding="UTF-8" standalone="no"?>
<!DOCTYPE svg PUBLIC "-//W3C//DTD SVG 1.1//EN" "http://www.w3.org/Graphics/SVG/1.1/DTD/svg11.dtd">
<svg width="100%" height="100%" viewBox="0 0 32 32" version="1.1" xmlns="http://www.w3.org/2000/svg" xmlns:xlink="http://www.w3.org/1999/xlink" xml:space="preserve" xmlns:serif="http://www.serif.com/" style="fill-rule:evenodd;clip-rule:evenodd;stroke-linejoin:round;stroke-miterlimit:1.41421;">
    <g transform="matrix(1,0,0,1,-72,-287)">
        <g id="ll_on" transform="matrix(1,0,0,1,72,287)">
            <rect x="0" y="0" width="32" height="32" style="fill:none;"/>
            <g transform="matrix(1.45697,0,0,1.45697,-7.31149,-413.806)">
                <circle cx="16" cy="295" r="8" style="fill:rgb(250,170,1);"/>
                <path d="M16.121,285.628L16.241,285.63L16.361,285.634L16.481,285.639L16.6,285.646L16.719,285.655L16.838,285.664L16.956,285.676L17.074,285.688L17.192,285.703L17.309,285.718L17.425,285.735L17.541,285.754L17.657,285.774L17.772,285.795L17.887,285.818L18.001,285.842L18.115,285.868L18.228,285.894L18.341,285.923L18.453,285.952L18.564,285.983L18.675,286.016L18.786,286.049L18.896,286.084L19.005,286.12L19.114,286.158L19.222,286.197L19.329,286.237L19.436,286.278L19.542,286.321L19.648,286.365L19.753,286.41L19.857,286.456L19.96,286.504L20.063,286.553L20.165,286.603L20.267,286.654L20.367,286.706L20.468,286.76L20.567,286.815L20.665,286.871L20.763,286.928L20.86,286.986L20.956,287.045L21.052,287.106L21.146,287.167L21.24,287.23L21.333,287.293L21.426,287.358L21.517,287.424L21.608,287.491L21.697,287.559L21.786,287.628L21.874,287.698L21.961,287.769L22.048,287.841L22.133,287.914L22.218,287.988L22.301,288.063L22.384,288.14L22.466,288.217L22.546,288.295L22.626,288.374L22.705,288.454L22.783,288.534L22.86,288.616L22.936,288.699L23.012,288.782L23.086,288.867L23.159,288.952L23.231,289.039L23.302,289.126L23.372,289.214L23.441,289.303L23.509,289.392L23.576,289.483L23.642,289.574L23.707,289.667L23.77,289.76L23.833,289.854L23.894,289.948L23.955,290.044L24.014,290.14L24.072,290.237L24.129,290.335L24.185,290.433L24.24,290.533L24.293,290.632L24.346,290.733L24.397,290.835L24.447,290.937L24.496,291.04L24.544,291.143L24.59,291.247L24.635,291.352L24.679,291.458L24.722,291.564L24.763,291.671L24.803,291.778L24.842,291.886L24.88,291.995L24.916,292.104L24.951,292.214L24.984,292.325L25.017,292.436L25.048,292.547L25.077,292.659L25.106,292.772L25.132,292.885L25.158,292.999L25.182,293.113L25.205,293.228L25.226,293.343L25.246,293.459L25.265,293.575L25.282,293.691L25.297,293.808L25.312,293.926L25.324,294.044L25.336,294.162L25.345,294.281L25.354,294.4L25.361,294.519L25.366,294.639L25.37,294.759L25.372,294.879L25.373,295L25.372,295.121L25.37,295.241L25.366,295.361L25.361,295.481L25.354,295.6L25.345,295.719L25.336,295.838L25.324,295.956L25.312,296.074L25.297,296.192L25.282,296.309L25.265,296.425L25.246,296.541L25.226,296.657L25.205,296.772L25.182,296.887L25.158,297.001L25.132,297.115L25.106,297.228L25.077,297.341L25.048,297.453L25.017,297.564L24.984,297.675L24.951,297.786L24.916,297.896L24.88,298.005L24.842,298.114L24.803,298.222L24.763,298.329L24.722,298.436L24.679,298.542L24.635,298.648L24.59,298.753L24.544,298.857L24.496,298.96L24.447,299.063L24.397,299.165L24.346,299.267L24.293,299.368L24.24,299.467L24.185,299.567L24.129,299.665L24.072,299.763L24.014,299.86L23.955,299.956L23.894,300.052L23.833,300.146L23.77,300.24L23.707,300.333L23.642,300.426L23.576,300.517L23.509,300.608L23.441,300.697L23.372,300.786L23.302,300.874L23.231,300.961L23.159,301.048L23.086,301.133L23.012,301.218L22.937,301.301L22.86,301.384L22.783,301.466L22.705,301.547L22.626,301.626L22.547,301.705L22.466,301.783L22.384,301.86L22.301,301.937L22.218,302.012L22.133,302.086L22.048,302.159L21.961,302.231L21.874,302.302L21.786,302.372L21.697,302.441L21.607,302.509L21.517,302.576L21.426,302.642L21.333,302.707L21.24,302.77L21.146,302.833L21.052,302.894L20.956,302.955L20.86,303.014L20.763,303.072L20.665,303.129L20.567,303.185L20.468,303.24L20.368,303.293L20.267,303.346L20.165,303.397L20.063,303.447L19.96,303.496L19.857,303.543L19.753,303.59L19.648,303.635L19.542,303.679L19.436,303.722L19.329,303.763L19.222,303.803L19.114,303.842L19.005,303.88L18.896,303.916L18.786,303.951L18.675,303.984L18.564,304.017L18.453,304.048L18.341,304.077L18.228,304.106L18.115,304.132L18.001,304.158L17.887,304.182L17.772,304.205L17.657,304.226L17.541,304.246L17.425,304.265L17.309,304.282L17.192,304.297L17.074,304.312L16.956,304.324L16.838,304.336L16.719,304.345L16.6,304.354L16.481,304.361L16.361,304.366L16.241,304.37L16.121,304.372L16,304.373L15.879,304.372L15.759,304.37L15.639,304.366L15.519,304.361L15.4,304.354L15.281,304.345L15.162,304.336L15.044,304.324L14.926,304.312L14.808,304.297L14.691,304.282L14.575,304.265L14.459,304.246L14.343,304.226L14.228,304.205L14.113,304.182L13.999,304.158L13.885,304.132L13.772,304.106L13.659,304.077L13.547,304.048L13.436,304.017L13.325,303.984L13.214,303.951L13.104,303.916L12.995,303.88L12.886,303.842L12.778,303.803L12.671,303.763L12.564,303.722L12.458,303.679L12.352,303.635L12.247,303.59L12.143,303.543L12.04,303.496L11.937,303.447L11.835,303.397L11.733,303.346L11.632,303.293L11.532,303.24L11.433,303.185L11.335,303.129L11.237,303.072L11.14,303.014L11.044,302.955L10.948,302.894L10.854,302.833L10.76,302.77L10.667,302.707L10.574,302.642L10.483,302.576L10.393,302.509L10.303,302.441L10.214,302.372L10.126,302.302L10.039,302.231L9.952,302.159L9.867,302.086L9.782,302.012L9.699,301.937L9.616,301.86L9.534,301.783L9.453,301.705L9.374,301.626L9.295,301.547L9.217,301.466L9.14,301.384L9.063,301.301L8.988,301.218L8.914,301.133L8.841,301.048L8.769,300.961L8.698,300.874L8.628,300.786L8.559,300.697L8.491,300.608L8.424,300.517L8.358,300.426L8.293,300.333L8.23,300.24L8.167,300.146L8.106,300.052L8.045,299.956L7.986,299.86L7.928,299.763L7.871,299.665L7.815,299.567L7.76,299.468L7.706,299.368L7.654,299.267L7.603,299.165L7.553,299.063L7.504,298.96L7.456,298.857L7.41,298.753L7.365,298.648L7.321,298.542L7.278,298.436L7.237,298.329L7.197,298.222L7.158,298.114L7.12,298.005L7.084,297.896L7.049,297.786L7.016,297.675L6.983,297.564L6.952,297.453L6.923,297.341L6.894,297.228L6.868,297.115L6.842,297.001L6.818,296.887L6.795,296.772L6.774,296.657L6.754,296.541L6.735,296.425L6.718,296.309L6.703,296.192L6.688,296.074L6.676,295.956L6.664,295.838L6.655,295.719L6.646,295.6L6.639,295.481L6.634,295.361L6.63,295.241L6.628,295.121L6.627,295L6.628,294.879L6.63,294.759L6.634,294.639L6.639,294.519L6.646,294.4L6.655,294.281L6.664,294.162L6.676,294.044L6.688,293.926L6.703,293.808L6.718,293.691L6.735,293.575L6.754,293.459L6.774,293.343L6.795,293.228L6.818,293.113L6.842,292.999L6.868,292.885L6.894,292.772L6.923,292.659L6.952,292.547L6.983,292.436L7.016,292.325L7.049,292.214L7.084,292.104L7.12,291.995L7.158,291.886L7.197,291.778L7.237,291.671L7.278,291.564L7.321,291.458L7.365,291.352L7.41,291.247L7.456,291.143L7.504,291.04L7.553,290.937L7.603,290.835L7.654,290.733L7.706,290.632L7.76,290.532L7.815,290.433L7.871,290.335L7.928,290.237L7.986,290.14L8.045,290.044L8.106,289.948L8.167,289.854L8.23,289.76L8.293,289.667L8.358,289.574L8.424,289.483L8.491,289.393L8.559,289.303L8.628,289.214L8.698,289.126L8.769,289.039L8.841,288.952L8.914,288.867L8.988,288.782L9.064,288.699L9.14,288.616L9.217,288.534L9.295,288.454L9.374,288.374L9.454,288.295L9.534,288.217L9.616,288.14L9.699,288.063L9.782,287.988L9.867,287.914L9.952,287.841L10.039,287.769L10.126,287.698L10.214,287.628L10.303,287.559L10.392,287.491L10.483,287.424L10.574,287.358L10.667,287.293L10.76,287.23L10.854,287.167L10.948,287.106L11.044,287.045L11.14,286.986L11.237,286.928L11.335,286.871L11.433,286.815L11.532,286.76L11.633,286.706L11.733,286.654L11.835,286.603L11.937,286.553L12.04,286.504L12.143,286.456L12.247,286.41L12.352,286.365L12.458,286.321L12.564,286.278L12.671,286.237L12.778,286.197L12.886,286.158L12.995,286.12L13.104,286.084L13.214,286.049L13.325,286.016L13.436,285.983L13.547,285.952L13.659,285.923L13.772,285.894L13.885,285.868L13.999,285.842L14.113,285.818L14.228,285.795L14.343,285.774L14.459,285.754L14.575,285.735L14.691,285.718L14.808,285.703L14.926,285.688L15.044,285.676L15.162,285.664L15.281,285.655L15.4,285.646L15.519,285.639L15.639,285.634L15.759,285.63L15.879,285.628L16,285.627L16.121,285.628ZM15.897,287.001L15.794,287.003L15.691,287.006L15.589,287.01L15.487,287.016L15.385,287.023L15.284,287.032L15.183,287.041L15.082,287.052L14.982,287.064L14.882,287.078L14.782,287.092L14.683,287.108L14.585,287.125L14.486,287.143L14.389,287.163L14.291,287.183L14.194,287.205L14.098,287.228L14.002,287.252L13.906,287.277L13.811,287.304L13.716,287.331L13.622,287.36L13.528,287.39L13.435,287.421L13.343,287.453L13.251,287.486L13.159,287.52L13.068,287.555L12.977,287.592L12.887,287.629L12.798,287.668L12.709,287.707L12.621,287.748L12.533,287.789L12.446,287.832L12.359,287.876L12.273,287.92L12.188,287.966L12.103,288.013L12.019,288.061L11.936,288.109L11.853,288.159L11.771,288.209L11.689,288.261L11.609,288.314L11.528,288.367L11.449,288.421L11.37,288.477L11.292,288.533L11.215,288.59L11.138,288.648L11.062,288.707L10.987,288.767L10.912,288.828L10.839,288.889L10.766,288.952L10.694,289.015L10.622,289.079L10.551,289.144L10.482,289.21L10.413,289.277L10.344,289.344L10.277,289.413L10.21,289.482L10.144,289.551L10.079,289.622L10.015,289.694L9.952,289.766L9.889,289.839L9.828,289.912L9.767,289.987L9.707,290.062L9.648,290.138L9.59,290.215L9.533,290.292L9.477,290.37L9.421,290.449L9.367,290.528L9.314,290.609L9.261,290.689L9.209,290.771L9.159,290.853L9.109,290.936L9.061,291.019L9.013,291.103L8.966,291.188L8.92,291.273L8.876,291.359L8.832,291.446L8.789,291.533L8.748,291.621L8.707,291.709L8.668,291.798L8.629,291.887L8.592,291.977L8.555,292.068L8.52,292.159L8.486,292.251L8.453,292.343L8.421,292.435L8.39,292.528L8.36,292.622L8.331,292.716L8.304,292.811L8.277,292.906L8.252,293.002L8.228,293.098L8.205,293.194L8.183,293.291L8.163,293.389L8.143,293.486L8.125,293.585L8.108,293.683L8.092,293.782L8.078,293.882L8.064,293.982L8.052,294.082L8.041,294.183L8.032,294.284L8.023,294.385L8.016,294.487L8.01,294.589L8.006,294.691L8.003,294.794L8.001,294.897L8,295L8.001,295.103L8.003,295.206L8.006,295.309L8.01,295.411L8.016,295.513L8.023,295.615L8.032,295.716L8.041,295.817L8.052,295.918L8.064,296.018L8.078,296.118L8.092,296.218L8.108,296.317L8.125,296.415L8.143,296.514L8.163,296.611L8.183,296.709L8.205,296.806L8.228,296.902L8.252,296.998L8.277,297.094L8.304,297.189L8.331,297.284L8.36,297.378L8.39,297.472L8.421,297.565L8.453,297.657L8.486,297.749L8.52,297.841L8.555,297.932L8.592,298.023L8.629,298.113L8.668,298.202L8.707,298.291L8.748,298.379L8.789,298.467L8.832,298.554L8.876,298.641L8.92,298.727L8.966,298.812L9.013,298.897L9.061,298.981L9.109,299.064L9.159,299.147L9.209,299.229L9.261,299.311L9.314,299.391L9.367,299.472L9.421,299.551L9.477,299.63L9.533,299.708L9.59,299.785L9.648,299.862L9.707,299.938L9.767,300.013L9.828,300.088L9.889,300.161L9.952,300.234L10.015,300.306L10.079,300.378L10.144,300.449L10.21,300.518L10.277,300.587L10.344,300.656L10.413,300.723L10.482,300.79L10.551,300.856L10.622,300.921L10.694,300.985L10.766,301.048L10.839,301.111L10.912,301.172L10.987,301.233L11.062,301.293L11.138,301.352L11.215,301.41L11.292,301.467L11.37,301.523L11.449,301.579L11.528,301.633L11.609,301.686L11.689,301.739L11.771,301.791L11.853,301.841L11.936,301.891L12.019,301.939L12.103,301.987L12.188,302.034L12.273,302.08L12.359,302.124L12.446,302.168L12.533,302.211L12.621,302.252L12.709,302.293L12.798,302.332L12.887,302.371L12.977,302.408L13.068,302.445L13.159,302.48L13.251,302.514L13.343,302.547L13.435,302.579L13.528,302.61L13.622,302.64L13.716,302.669L13.811,302.696L13.906,302.723L14.002,302.748L14.098,302.772L14.194,302.795L14.291,302.817L14.389,302.837L14.486,302.857L14.585,302.875L14.683,302.892L14.782,302.908L14.882,302.922L14.982,302.936L15.082,302.948L15.183,302.959L15.284,302.968L15.385,302.977L15.487,302.984L15.589,302.99L15.691,302.994L15.794,302.997L15.897,302.999L16,303L16.103,302.999L16.206,302.997L16.309,302.994L16.411,302.99L16.513,302.984L16.615,302.977L16.716,302.968L16.817,302.959L16.918,302.948L17.018,302.936L17.118,302.922L17.218,302.908L17.317,302.892L17.415,302.875L17.514,302.857L17.611,302.837L17.709,302.817L17.806,302.795L17.902,302.772L17.998,302.748L18.094,302.723L18.189,302.696L18.284,302.669L18.378,302.64L18.472,302.61L18.565,302.579L18.657,302.547L18.749,302.514L18.841,302.48L18.932,302.445L19.023,302.408L19.113,302.371L19.202,302.332L19.291,302.293L19.379,302.252L19.467,302.211L19.554,302.168L19.641,302.124L19.727,302.08L19.812,302.034L19.897,301.987L19.981,301.939L20.064,301.891L20.147,301.841L20.229,301.791L20.311,301.739L20.391,301.686L20.472,301.633L20.551,301.579L20.63,301.523L20.708,301.467L20.785,301.41L20.862,301.352L20.938,301.293L21.013,301.233L21.088,301.172L21.161,301.111L21.234,301.048L21.306,300.985L21.378,300.921L21.449,300.856L21.518,300.79L21.587,300.723L21.656,300.656L21.723,300.587L21.79,300.518L21.856,300.449L21.921,300.378L21.985,300.306L22.048,300.234L22.111,300.161L22.172,300.088L22.233,300.013L22.293,299.938L22.352,299.862L22.41,299.785L22.467,299.708L22.523,299.63L22.579,299.551L22.633,299.472L22.686,299.391L22.739,299.311L22.791,299.229L22.841,299.147L22.891,299.064L22.939,298.981L22.987,298.897L23.034,298.812L23.08,298.727L23.124,298.641L23.168,298.554L23.211,298.467L23.252,298.379L23.293,298.291L23.332,298.202L23.371,298.113L23.408,298.023L23.445,297.932L23.48,297.841L23.514,297.749L23.547,297.657L23.579,297.565L23.61,297.472L23.64,297.378L23.669,297.284L23.696,297.189L23.723,297.094L23.748,296.998L23.772,296.902L23.795,296.806L23.817,296.709L23.837,296.611L23.857,296.514L23.875,296.415L23.892,296.317L23.908,296.218L23.922,296.118L23.936,296.018L23.948,295.918L23.959,295.817L23.968,295.716L23.977,295.615L23.984,295.513L23.99,295.411L23.994,295.309L23.997,295.206L23.999,295.103L24,295L23.999,294.897L23.997,294.794L23.994,294.691L23.99,294.589L23.984,294.487L23.977,294.385L23.968,294.284L23.959,294.183L23.948,294.082L23.936,293.982L23.922,293.882L23.908,293.782L23.892,293.683L23.875,293.585L23.857,293.486L23.837,293.389L23.817,293.291L23.795,293.194L23.772,293.098L23.748,293.002L23.723,292.906L23.696,292.811L23.669,292.716L23.64,292.622L23.61,292.528L23.579,292.435L23.547,292.343L23.514,292.251L23.48,292.159L23.445,292.068L23.408,291.977L23.371,291.887L23.332,291.798L23.293,291.709L23.252,291.621L23.211,291.533L23.168,291.446L23.124,291.359L23.08,291.273L23.034,291.188L22.987,291.103L22.939,291.019L22.891,290.936L22.841,290.853L22.791,290.771L22.739,290.689L22.686,290.609L22.633,290.528L22.579,290.449L22.523,290.37L22.467,290.292L22.41,290.215L22.352,290.138L22.293,290.062L22.233,289.987L22.172,289.912L22.111,289.839L22.048,289.766L21.985,289.694L21.921,289.622L21.856,289.551L21.79,289.482L21.723,289.413L21.656,289.344L21.587,289.277L21.518,289.21L21.449,289.144L21.378,289.079L21.306,289.015L21.234,288.952L21.161,288.889L21.088,288.828L21.013,288.767L20.938,288.707L20.862,288.648L20.785,288.59L20.708,288.533L20.63,288.477L20.551,288.421L20.472,288.367L20.391,288.314L20.311,288.261L20.229,288.209L20.147,288.159L20.064,288.109L19.981,288.061L19.897,288.013L19.812,287.966L19.727,287.92L19.641,287.876L19.554,287.832L19.467,287.789L19.379,287.748L19.291,287.707L19.202,287.668L19.113,287.629L19.023,287.592L18.932,287.555L18.841,287.52L18.749,287.486L18.657,287.453L18.565,287.421L18.472,287.39L18.378,287.36L18.284,287.331L18.189,287.304L18.094,287.277L17.998,287.252L17.902,287.228L17.806,287.205L17.709,287.183L17.611,287.163L17.514,287.143L17.415,287.125L17.317,287.108L17.218,287.092L17.118,287.078L17.018,287.064L16.918,287.052L16.817,287.041L16.716,287.032L16.615,287.023L16.513,287.016L16.411,287.01L16.309,287.006L16.206,287.003L16.103,287.001L16,287L15.897,287.001Z" style="fill:white;"/>
            </g>
        </g>
    </g>
</svg>
