<?xml version="1.0" encoding="UTF-8" standalone="no"?>
<!DOCTYPE svg PUBLIC "-//W3C//DTD SVG 1.1//EN" "http://www.w3.org/Graphics/SVG/1.1/DTD/svg11.dtd">
<svg width="100%" height="100%" viewBox="0 0 32 32" version="1.1" xmlns="http://www.w3.org/2000/svg" xmlns:xlink="http://www.w3.org/1999/xlink" xml:space="preserve" xmlns:serif="http://www.serif.com/" style="fill-rule:evenodd;clip-rule:evenodd;stroke-linejoin:round;stroke-miterlimit:1.41421;">
    <g transform="matrix(1,0,0,1,-36,0)">
        <g id="add_subdiv_sheme" transform="matrix(1,0,0,1,36,0)">
            <rect x="0" y="0" width="32" height="32" style="fill:none;"/>
            <g transform="matrix(1.07692,0,0,1.07692,-40.0009,-1.23077)">
                <rect x="39.024" y="3" width="25.976" height="26" style="fill-opacity:0.25098;"/>
            </g>
            <path d="M28,28L4,28L4,4L28,4L28,28ZM14,26L14,18L6,18L6,26L14,26ZM26,18L18,18L18,26L26,26L26,18ZM6,6L6,14L14,14L14,6L6,6ZM18,6L18,14L26,14L26,6L18,6Z" style="fill:white;"/>
        </g>
    </g>
</svg>
