<?xml version="1.0" encoding="UTF-8" standalone="no"?>
<!DOCTYPE svg PUBLIC "-//W3C//DTD SVG 1.1//EN" "http://www.w3.org/Graphics/SVG/1.1/DTD/svg11.dtd">
<svg width="100%" height="100%" viewBox="0 0 32 32" version="1.1" xmlns="http://www.w3.org/2000/svg" xmlns:xlink="http://www.w3.org/1999/xlink" xml:space="preserve" xmlns:serif="http://www.serif.com/" style="fill-rule:evenodd;clip-rule:evenodd;stroke-linejoin:round;stroke-miterlimit:1.41421;">
    <g transform="matrix(1,0,0,1,-36,0)">
        <g id="add_subdiv_sheme" transform="matrix(1,0,0,1,36,0)">
            <rect x="0" y="0" width="32" height="32" style="fill:none;"/>
            <g transform="matrix(1,0,0,1,-36,0)">
                <rect x="39.024" y="3" width="25.976" height="26" style="fill-opacity:0.25098;"/>
            </g>
            <path d="M29,29L3,29L3,3L29,3L29,29ZM15,27L15,17L5,17L5,27L15,27ZM27,17L17,17L17,27L27,27L27,17ZM5,5L5,15L15,15L15,5L5,5ZM17,5L17,15L27,15L27,5L17,5Z" style="fill:white;"/>
        </g>
    </g>
</svg>
