<?xml version="1.0" encoding="UTF-8" standalone="no"?>
<!DOCTYPE svg PUBLIC "-//W3C//DTD SVG 1.1//EN" "http://www.w3.org/Graphics/SVG/1.1/DTD/svg11.dtd">
<svg width="100%" height="100%" viewBox="0 0 32 32" version="1.1" xmlns="http://www.w3.org/2000/svg" xmlns:xlink="http://www.w3.org/1999/xlink" xml:space="preserve" xmlns:serif="http://www.serif.com/" style="fill-rule:evenodd;clip-rule:evenodd;stroke-linejoin:round;stroke-miterlimit:1.41421;">
    <g transform="matrix(1,0,0,1,-36,-215)">
        <g id="mute_on" transform="matrix(1,0,0,1,36,215)">
            <rect x="0" y="0" width="32" height="32" style="fill:none;"/>
            <g transform="matrix(1.07692,0,0,1.07692,-1.23077,-155.231)">
                <path d="M29,149.714C29,147.664 27.336,146 25.286,146L6.714,146C4.664,146 3,147.664 3,149.714L3,168.286C3,170.336 4.664,172 6.714,172L25.286,172C27.336,172 29,170.336 29,168.286L29,149.714Z" style="fill-opacity:0.34902;"/>
            </g>
            <g transform="matrix(1,0,0,1,-36,-215)">
                <path d="M62,245L42,245C39.792,245 38,243.208 38,241L38,221C38,218.792 39.792,217 42,217L62,217C64.208,217 66,218.792 66,221L66,241C66,243.208 64.208,245 62,245ZM62.125,222L56.5,222L52,233.25L47.5,222L41.875,222L41.875,240L46.375,240L46.375,231L49.75,240L54.25,239.974L57.625,231L57.625,240L62.125,240L62.125,222Z" style="fill:rgb(220,87,98);"/>
            </g>
        </g>
    </g>
</svg>
