<?xml version="1.0" encoding="UTF-8" standalone="no"?>
<!DOCTYPE svg PUBLIC "-//W3C//DTD SVG 1.1//EN" "http://www.w3.org/Graphics/SVG/1.1/DTD/svg11.dtd">
<svg width="100%" height="100%" viewBox="0 0 32 32" version="1.1" xmlns="http://www.w3.org/2000/svg" xmlns:xlink="http://www.w3.org/1999/xlink" xml:space="preserve" xmlns:serif="http://www.serif.com/" style="fill-rule:evenodd;clip-rule:evenodd;stroke-linejoin:round;stroke-miterlimit:1.41421;">
    <g transform="matrix(1,0,0,1,-36,-215)">
        <g id="mute_on" transform="matrix(1,0,0,1,36,215)">
            <rect x="0" y="0" width="32" height="32" style="fill:none;"/>
            <clipPath id="_clip1">
                <rect x="0" y="0" width="32" height="32"/>
            </clipPath>
            <g clip-path="url(#_clip1)">
                <g transform="matrix(1.23077,0,0,1.23077,-3.69231,-179.692)">
                    <path d="M29,149.25C29,147.456 27.544,146 25.75,146L6.25,146C4.456,146 3,147.456 3,149.25L3,168.75C3,170.544 4.456,172 6.25,172L25.75,172C27.544,172 29,170.544 29,168.75L29,149.25Z" style="fill-opacity:0.34902;"/>
                </g>
                <g transform="matrix(1,0,0,1,-36,-215)">
                    <path d="M64,215C66.208,215 68,216.792 68,219L68,243C68,245.208 66.208,247 64,247L40,247C37.792,247 36,245.208 36,243L36,219C36,216.792 37.792,215 40,215L64,215ZM62.125,222L56.5,222L52,233.25L47.5,222L41.875,222L41.875,240L46.375,240L46.375,231L49.75,240L54.25,239.974L57.625,231L57.625,240L62.125,240L62.125,222Z" style="fill:rgb(220,87,98);"/>
                </g>
            </g>
        </g>
    </g>
</svg>
