<?xml version="1.0" encoding="UTF-8" standalone="no"?>
<!DOCTYPE svg PUBLIC "-//W3C//DTD SVG 1.1//EN" "http://www.w3.org/Graphics/SVG/1.1/DTD/svg11.dtd">
<svg width="100%" height="100%" viewBox="0 0 32 32" version="1.1" xmlns="http://www.w3.org/2000/svg" xmlns:xlink="http://www.w3.org/1999/xlink" xml:space="preserve" xmlns:serif="http://www.serif.com/" style="fill-rule:evenodd;clip-rule:evenodd;stroke-linejoin:round;stroke-miterlimit:1.41421;">
    <g transform="matrix(1,0,0,1,-36,-178)">
        <g id="mute_off" transform="matrix(1,0,0,1,36,178)">
            <rect x="0" y="0" width="32" height="32" style="fill:none;"/>
            <clipPath id="_clip1">
                <rect x="0" y="0" width="32" height="32"/>
            </clipPath>
            <g clip-path="url(#_clip1)">
                <g transform="matrix(1.23077,0,0,1.23077,-3.69231,-179.692)">
                    <rect x="3" y="146" width="26" height="26" style="fill-opacity:0.25098;"/>
                    <path d="M29,172L3,172L3,146L29,146L29,172ZM4.625,147.625L4.625,170.375L27.375,170.375L27.375,147.625L4.625,147.625Z" style="fill:white;"/>
                </g>
                <g transform="matrix(0.299561,0,0,0.299561,-46.3087,-113.424)">
                    <path d="M241.799,402L223.022,402L208,439.555L192.978,402L174.201,402L174.201,462.088L189.223,462.088L189.223,432.044L200.489,462.088L215.511,462L226.777,432.044L226.777,462.088L241.799,462.088L241.799,402Z" style="fill:white;fill-opacity:0.94902;"/>
                </g>
            </g>
        </g>
    </g>
</svg>
