<?xml version="1.0" encoding="UTF-8" standalone="no"?>
<!DOCTYPE svg PUBLIC "-//W3C//DTD SVG 1.1//EN" "http://www.w3.org/Graphics/SVG/1.1/DTD/svg11.dtd">
<svg width="100%" height="100%" viewBox="0 0 32 32" version="1.1" xmlns="http://www.w3.org/2000/svg" xmlns:xlink="http://www.w3.org/1999/xlink" xml:space="preserve" xmlns:serif="http://www.serif.com/" style="fill-rule:evenodd;clip-rule:evenodd;stroke-linejoin:round;stroke-miterlimit:1.41421;">
    <g transform="matrix(1,0,0,1,0,-107)">
        <g id="prman" transform="matrix(1,0,0,1,0,107)">
            <rect x="0" y="0" width="32" height="32" style="fill:none;"/>
            <g transform="matrix(0.806298,0,0,0.806298,-1028.86,-171.061)">
                <path d="M1290.63,246.883L1288.63,246.883C1288.54,246.877 1288.45,246.868 1288.36,246.834C1288.16,246.759 1288,246.599 1287.93,246.4C1287.89,246.312 1287.88,246.227 1287.88,246.134C1287.88,245.568 1287.88,245.001 1287.87,244.434C1287.83,240.818 1287.71,237.201 1287.39,233.597C1287.27,232.176 1287.11,230.758 1286.92,229.345C1286.75,228.122 1286.54,226.903 1286.29,225.693C1286.1,224.764 1285.88,223.839 1285.62,222.927C1285.4,222.17 1285.15,221.42 1284.86,220.691C1284.66,220.221 1284.45,219.757 1284.2,219.316C1284.03,219.026 1283.85,218.738 1283.62,218.492C1283.61,218.475 1283.59,218.459 1283.57,218.444L1283.51,218.382L1283.45,218.312C1283.43,218.287 1283.41,218.263 1283.4,218.237C1283.35,218.158 1283.32,218.071 1283.31,217.982C1283.26,217.678 1283.41,217.368 1283.68,217.215C1283.76,217.171 1283.85,217.14 1283.93,217.126C1283.96,217.121 1283.99,217.12 1284.02,217.117C1284.05,217.118 1284.09,217.119 1284.12,217.12C1284.14,217.124 1284.17,217.127 1284.2,217.133C1284.3,217.153 1284.4,217.194 1284.49,217.237C1284.63,217.306 1284.77,217.388 1284.9,217.478C1285.42,217.832 1285.87,218.298 1286.26,218.791C1286.87,219.557 1287.36,220.413 1287.78,221.293C1288.4,222.585 1288.87,223.94 1289.28,225.313L1289.31,225.413C1289.35,225.232 1289.35,225.233 1289.39,225.052C1289.45,224.829 1289.45,224.829 1289.51,224.607C1289.65,224.117 1289.8,223.63 1289.97,223.15C1290.1,222.769 1290.25,222.393 1290.42,222.023C1290.55,221.734 1290.68,221.449 1290.83,221.169C1290.94,220.957 1291.06,220.748 1291.19,220.543C1291.94,219.309 1292.98,218.189 1294.33,217.608C1294.57,217.505 1294.81,217.42 1295.06,217.355C1295.4,217.266 1295.76,217.214 1296.11,217.197C1296.32,217.188 1296.53,217.191 1296.75,217.207C1298.31,217.326 1299.75,218.113 1300.95,219.086C1301.19,219.281 1301.43,219.485 1301.65,219.697C1301.8,219.829 1301.94,219.964 1302.07,220.102C1302.17,220.196 1302.26,220.293 1302.35,220.389C1302.44,220.486 1302.54,220.59 1302.63,220.689C1302.66,220.725 1302.77,220.847 1302.82,220.909C1302.92,221.052 1302.96,221.229 1302.95,221.403C1302.94,221.461 1302.93,221.518 1302.92,221.573C1302.89,221.656 1302.85,221.734 1302.79,221.802C1302.74,221.871 1302.67,221.93 1302.6,221.976C1302.58,221.991 1302.55,222.004 1302.52,222.018C1302.38,222.077 1302.23,222.126 1302.08,222.186C1301.8,222.304 1301.53,222.444 1301.28,222.621C1300.92,222.878 1300.63,223.208 1300.42,223.594C1300.27,223.86 1300.17,224.144 1300.09,224.436L1300.06,224.519C1300.05,224.545 1300.04,224.572 1300.03,224.597C1299.99,224.674 1299.93,224.743 1299.87,224.801C1299.64,224.998 1299.32,225.046 1299.05,224.923C1298.97,224.885 1298.9,224.833 1298.84,224.775C1298.74,224.681 1298.65,224.588 1298.55,224.496C1298.15,224.127 1297.74,223.776 1297.27,223.495C1296.99,223.326 1296.69,223.18 1296.38,223.093C1296.2,223.045 1296.02,223.016 1295.83,223.019C1295.74,223.02 1295.64,223.03 1295.55,223.049C1295.02,223.157 1294.6,223.555 1294.29,223.976C1294.23,224.055 1294.17,224.136 1294.12,224.219C1294.06,224.308 1294,224.399 1293.95,224.491C1293.88,224.615 1293.81,224.741 1293.75,224.868C1293.66,225.034 1293.59,225.203 1293.51,225.374C1293.42,225.589 1293.34,225.808 1293.26,226.029C1293.16,226.303 1293.07,226.579 1292.99,226.857C1292.88,227.235 1292.78,227.616 1292.69,227.999C1292.57,228.495 1292.47,228.994 1292.38,229.496C1292.26,230.121 1292.16,230.75 1292.08,231.38C1291.98,232.136 1291.89,232.895 1291.82,233.656C1291.72,234.728 1291.64,235.803 1291.58,236.878C1291.51,238.211 1291.46,239.545 1291.43,240.879C1291.39,242.63 1291.38,244.382 1291.38,246.133L1291.37,246.224C1291.36,246.303 1291.36,246.324 1291.33,246.399C1291.25,246.598 1291.09,246.759 1290.89,246.834C1290.81,246.868 1290.72,246.877 1290.63,246.883ZM1304.69,222.686C1304.86,222.692 1305.02,222.704 1305.18,222.729C1305.59,222.791 1305.98,222.919 1306.35,223.107C1307.04,223.46 1307.61,224.021 1307.98,224.701C1308.18,225.061 1308.32,225.453 1308.39,225.857C1308.46,226.274 1308.47,226.704 1308.4,227.124C1308.35,227.499 1308.23,227.866 1308.07,228.208C1307.87,228.626 1307.59,229.006 1307.25,229.326C1306.92,229.647 1306.52,229.906 1306.1,230.088C1305.62,230.288 1305.11,230.391 1304.6,230.391C1304.08,230.391 1303.57,230.288 1303.1,230.088C1302.67,229.906 1302.27,229.647 1301.94,229.326C1301.6,229.006 1301.32,228.626 1301.12,228.208C1300.96,227.866 1300.85,227.499 1300.79,227.124C1300.73,226.736 1300.73,226.339 1300.79,225.952C1300.85,225.545 1300.98,225.15 1301.16,224.784C1301.53,224.067 1302.13,223.474 1302.84,223.107C1303.21,222.919 1303.6,222.791 1304.01,222.729C1304.17,222.704 1304.33,222.692 1304.5,222.686C1304.6,222.685 1304.6,222.685 1304.69,222.686Z" style="fill:white;"/>
            </g>
        </g>
    </g>
</svg>
