<?xml version="1.0" encoding="UTF-8" standalone="no"?>
<!DOCTYPE svg PUBLIC "-//W3C//DTD SVG 1.1//EN" "http://www.w3.org/Graphics/SVG/1.1/DTD/svg11.dtd">
<svg width="100%" height="100%" viewBox="0 0 32 32" version="1.1" xmlns="http://www.w3.org/2000/svg" xmlns:xlink="http://www.w3.org/1999/xlink" xml:space="preserve" xmlns:serif="http://www.serif.com/" style="fill-rule:evenodd;clip-rule:evenodd;stroke-linejoin:round;stroke-miterlimit:1.41421;">
    <g transform="matrix(1,0,0,1,-108,-107)">
        <g id="selected_on" transform="matrix(1,0,0,1,108,107)">
            <rect x="0" y="0" width="32" height="32" style="fill:none;"/>
            <clipPath id="_clip1">
                <rect x="0" y="0" width="32" height="32"/>
            </clipPath>
            <g clip-path="url(#_clip1)">
                <g transform="matrix(1.23077,0,0,1.23077,-3.69231,-179.692)">
                    <path d="M29,149.25C29,147.456 27.544,146 25.75,146L6.25,146C4.456,146 3,147.456 3,149.25L3,168.75C3,170.544 4.456,172 6.25,172L25.75,172C27.544,172 29,170.544 29,168.75L29,149.25Z" style="fill-opacity:0.25098;"/>
                </g>
                <g transform="matrix(1,0,0,1,-109,-107)">
                    <path d="M137,107C139.208,107 141,108.792 141,111L141,135C141,137.208 139.208,139 137,139L113,139C110.792,139 109,137.208 109,135L109,111C109,108.792 110.792,107 113,107L137,107Z" style="fill:rgb(230,124,73);"/>
                </g>
                <g transform="matrix(1,0,0,1,-108,-107)">
                    <path d="M124,111C130.623,111 136,116.377 136,123C136,129.623 130.623,135 124,135C117.377,135 112,129.623 112,123C112,116.377 117.377,111 124,111ZM124,115C128.415,115 132,118.585 132,123C132,127.415 128.415,131 124,131C119.585,131 116,127.415 116,123C116,118.585 119.585,115 124,115ZM124,119C126.208,119 128,120.792 128,123C128,125.208 126.208,127 124,127C121.792,127 120,125.208 120,123C120,120.792 121.792,119 124,119Z" style="fill:white;"/>
                </g>
            </g>
        </g>
    </g>
</svg>
