<?xml version="1.0" encoding="UTF-8" standalone="no"?>
<!DOCTYPE svg PUBLIC "-//W3C//DTD SVG 1.1//EN" "http://www.w3.org/Graphics/SVG/1.1/DTD/svg11.dtd">
<svg width="100%" height="100%" viewBox="0 0 32 32" version="1.1" xmlns="http://www.w3.org/2000/svg" xmlns:xlink="http://www.w3.org/1999/xlink" xml:space="preserve" xmlns:serif="http://www.serif.com/" style="fill-rule:evenodd;clip-rule:evenodd;stroke-linejoin:round;stroke-miterlimit:1.41421;">
    <g transform="matrix(1,0,0,1,-108,-72)">
        <g id="selected_off" transform="matrix(1,0,0,1,108,72)">
            <rect x="0" y="0" width="32" height="32" style="fill:none;"/>
            <clipPath id="_clip1">
                <rect x="0" y="0" width="32" height="32"/>
            </clipPath>
            <g clip-path="url(#_clip1)">
                <g transform="matrix(1.23077,0,0,1.23077,-3.69231,-179.692)">
                    <rect x="3" y="146" width="26" height="26" style="fill-opacity:0.25098;"/>
                    <path d="M29,172L3,172L3,146L29,146L29,172ZM4.625,147.625L4.625,170.375L27.375,170.375L27.375,147.625L4.625,147.625Z" style="fill:white;"/>
                </g>
                <g>
                    <g transform="matrix(1,0,0,1,-109,-71)">
                        <rect x="124" y="76" width="2" height="8" style="fill:white;"/>
                    </g>
                    <g transform="matrix(6.12323e-17,-1,1,6.12323e-17,-71,141)">
                        <rect x="124" y="76" width="2" height="8" style="fill:white;"/>
                    </g>
                    <g transform="matrix(-1,-1.22465e-16,1.22465e-16,-1,141,103)">
                        <rect x="124" y="76" width="2" height="8" style="fill:white;"/>
                    </g>
                    <g transform="matrix(-1.83697e-16,1,-1,-1.83697e-16,103,-109)">
                        <rect x="124" y="76" width="2" height="8" style="fill:white;"/>
                    </g>
                    <g transform="matrix(1,0,0,1,-109,-72)">
                        <path d="M125.103,80.001L125.206,80.003L125.309,80.006L125.411,80.01L125.513,80.016L125.615,80.023L125.716,80.032L125.817,80.041L125.918,80.052L126.018,80.064L126.118,80.078L126.218,80.092L126.317,80.108L126.415,80.125L126.514,80.143L126.611,80.163L126.709,80.183L126.806,80.205L126.902,80.228L126.998,80.252L127.094,80.277L127.189,80.304L127.284,80.331L127.378,80.36L127.472,80.39L127.565,80.421L127.657,80.453L127.749,80.486L127.841,80.52L127.932,80.555L128.023,80.592L128.113,80.629L128.202,80.668L128.291,80.707L128.379,80.748L128.467,80.789L128.554,80.832L128.641,80.876L128.727,80.92L128.812,80.966L128.897,81.013L128.981,81.061L129.064,81.109L129.147,81.159L129.229,81.209L129.311,81.261L129.391,81.314L129.472,81.367L129.551,81.421L129.63,81.477L129.708,81.533L129.785,81.59L129.862,81.648L129.938,81.707L130.013,81.767L130.088,81.828L130.161,81.889L130.234,81.952L130.306,82.015L130.378,82.079L130.449,82.144L130.518,82.21L130.587,82.277L130.656,82.344L130.723,82.413L130.79,82.482L130.856,82.551L130.921,82.622L130.985,82.694L131.048,82.766L131.111,82.839L131.172,82.912L131.233,82.987L131.293,83.062L131.352,83.138L131.41,83.215L131.467,83.292L131.523,83.37L131.579,83.449L131.633,83.528L131.686,83.609L131.739,83.689L131.791,83.771L131.841,83.853L131.891,83.936L131.939,84.019L131.987,84.103L132.034,84.188L132.08,84.273L132.124,84.359L132.168,84.446L132.211,84.533L132.252,84.621L132.293,84.709L132.332,84.798L132.371,84.887L132.408,84.977L132.445,85.068L132.48,85.159L132.514,85.251L132.547,85.343L132.579,85.435L132.61,85.528L132.64,85.622L132.669,85.716L132.696,85.811L132.723,85.906L132.748,86.002L132.772,86.098L132.795,86.194L132.817,86.291L132.837,86.389L132.857,86.486L132.875,86.585L132.892,86.683L132.908,86.782L132.922,86.882L132.936,86.982L132.948,87.082L132.959,87.183L132.968,87.284L132.977,87.385L132.984,87.487L132.99,87.589L132.994,87.691L132.997,87.794L132.999,87.897L133,88L132.999,88.103L132.997,88.206L132.994,88.309L132.99,88.411L132.984,88.513L132.977,88.615L132.968,88.716L132.959,88.817L132.948,88.918L132.936,89.018L132.922,89.118L132.908,89.218L132.892,89.317L132.875,89.415L132.857,89.514L132.837,89.611L132.817,89.709L132.795,89.806L132.772,89.902L132.748,89.998L132.723,90.094L132.696,90.189L132.669,90.284L132.64,90.378L132.61,90.472L132.579,90.565L132.547,90.657L132.514,90.749L132.48,90.841L132.445,90.932L132.408,91.023L132.371,91.113L132.332,91.202L132.293,91.291L132.252,91.379L132.211,91.467L132.168,91.554L132.124,91.641L132.08,91.727L132.034,91.812L131.987,91.897L131.939,91.981L131.891,92.064L131.841,92.147L131.791,92.229L131.739,92.311L131.686,92.391L131.633,92.472L131.579,92.551L131.523,92.63L131.467,92.708L131.41,92.785L131.352,92.862L131.293,92.938L131.233,93.013L131.172,93.088L131.111,93.161L131.048,93.234L130.985,93.306L130.921,93.378L130.856,93.449L130.79,93.518L130.723,93.587L130.656,93.656L130.587,93.723L130.518,93.79L130.449,93.856L130.378,93.921L130.306,93.985L130.234,94.048L130.161,94.111L130.088,94.172L130.013,94.233L129.938,94.293L129.862,94.352L129.785,94.41L129.708,94.467L129.63,94.523L129.551,94.579L129.472,94.633L129.391,94.686L129.311,94.739L129.229,94.791L129.147,94.841L129.064,94.891L128.981,94.939L128.897,94.987L128.812,95.034L128.727,95.08L128.641,95.124L128.554,95.168L128.467,95.211L128.379,95.252L128.291,95.293L128.202,95.332L128.113,95.371L128.023,95.408L127.932,95.445L127.841,95.48L127.749,95.514L127.657,95.547L127.565,95.579L127.472,95.61L127.378,95.64L127.284,95.669L127.189,95.696L127.094,95.723L126.998,95.748L126.902,95.772L126.806,95.795L126.709,95.817L126.611,95.837L126.514,95.857L126.415,95.875L126.317,95.892L126.218,95.908L126.118,95.922L126.018,95.936L125.918,95.948L125.817,95.959L125.716,95.968L125.615,95.977L125.513,95.984L125.411,95.99L125.309,95.994L125.206,95.997L125.103,95.999L125,96L124.897,95.999L124.794,95.997L124.691,95.994L124.589,95.99L124.487,95.984L124.385,95.977L124.284,95.968L124.183,95.959L124.082,95.948L123.982,95.936L123.882,95.922L123.782,95.908L123.683,95.892L123.585,95.875L123.486,95.857L123.389,95.837L123.291,95.817L123.194,95.795L123.098,95.772L123.002,95.748L122.906,95.723L122.811,95.696L122.716,95.669L122.622,95.64L122.528,95.61L122.435,95.579L122.343,95.547L122.251,95.514L122.159,95.48L122.068,95.445L121.977,95.408L121.887,95.371L121.798,95.332L121.709,95.293L121.621,95.252L121.533,95.211L121.446,95.168L121.359,95.124L121.273,95.08L121.188,95.034L121.103,94.987L121.019,94.939L120.936,94.891L120.853,94.841L120.771,94.791L120.689,94.739L120.609,94.686L120.528,94.633L120.449,94.579L120.37,94.523L120.292,94.467L120.215,94.41L120.138,94.352L120.062,94.293L119.987,94.233L119.912,94.172L119.839,94.111L119.766,94.048L119.694,93.985L119.622,93.921L119.551,93.856L119.482,93.79L119.413,93.723L119.344,93.656L119.277,93.587L119.21,93.518L119.144,93.449L119.079,93.378L119.015,93.306L118.952,93.234L118.889,93.161L118.828,93.088L118.767,93.013L118.707,92.938L118.648,92.862L118.59,92.785L118.533,92.708L118.477,92.63L118.421,92.551L118.367,92.472L118.314,92.391L118.261,92.311L118.209,92.229L118.159,92.147L118.109,92.064L118.061,91.981L118.013,91.897L117.966,91.812L117.92,91.727L117.876,91.641L117.832,91.554L117.789,91.467L117.748,91.379L117.707,91.291L117.668,91.202L117.629,91.113L117.592,91.023L117.555,90.932L117.52,90.841L117.486,90.749L117.453,90.657L117.421,90.565L117.39,90.472L117.36,90.378L117.331,90.284L117.304,90.189L117.277,90.094L117.252,89.998L117.228,89.902L117.205,89.806L117.183,89.709L117.163,89.611L117.143,89.514L117.125,89.415L117.108,89.317L117.092,89.218L117.078,89.118L117.064,89.018L117.052,88.918L117.041,88.817L117.032,88.716L117.023,88.615L117.016,88.513L117.01,88.411L117.006,88.309L117.003,88.206L117.001,88.103L117,88L117.001,87.897L117.003,87.794L117.006,87.691L117.01,87.589L117.016,87.487L117.023,87.385L117.032,87.284L117.041,87.183L117.052,87.082L117.064,86.982L117.078,86.882L117.092,86.782L117.108,86.683L117.125,86.585L117.143,86.486L117.163,86.389L117.183,86.291L117.205,86.194L117.228,86.098L117.252,86.002L117.277,85.906L117.304,85.811L117.331,85.716L117.36,85.622L117.39,85.528L117.421,85.435L117.453,85.343L117.486,85.251L117.52,85.159L117.555,85.068L117.592,84.977L117.629,84.887L117.668,84.798L117.707,84.709L117.748,84.621L117.789,84.533L117.832,84.446L117.876,84.359L117.92,84.273L117.966,84.188L118.013,84.103L118.061,84.019L118.109,83.936L118.159,83.853L118.209,83.771L118.261,83.689L118.314,83.609L118.367,83.528L118.421,83.449L118.477,83.37L118.533,83.292L118.59,83.215L118.648,83.138L118.707,83.062L118.767,82.987L118.828,82.912L118.889,82.839L118.952,82.766L119.015,82.694L119.079,82.622L119.144,82.551L119.21,82.482L119.277,82.413L119.344,82.344L119.413,82.277L119.482,82.21L119.551,82.144L119.622,82.079L119.694,82.015L119.766,81.952L119.839,81.889L119.912,81.828L119.987,81.767L120.062,81.707L120.138,81.648L120.215,81.59L120.292,81.533L120.37,81.477L120.449,81.421L120.528,81.367L120.609,81.314L120.689,81.261L120.771,81.209L120.853,81.159L120.936,81.109L121.019,81.061L121.103,81.013L121.188,80.966L121.273,80.92L121.359,80.876L121.446,80.832L121.533,80.789L121.621,80.748L121.709,80.707L121.798,80.668L121.887,80.629L121.977,80.592L122.068,80.555L122.159,80.52L122.251,80.486L122.343,80.453L122.435,80.421L122.528,80.39L122.622,80.36L122.716,80.331L122.811,80.304L122.906,80.277L123.002,80.252L123.098,80.228L123.194,80.205L123.291,80.183L123.389,80.163L123.486,80.143L123.585,80.125L123.683,80.108L123.782,80.092L123.882,80.078L123.982,80.064L124.082,80.052L124.183,80.041L124.284,80.032L124.385,80.023L124.487,80.016L124.589,80.01L124.691,80.006L124.794,80.003L124.897,80.001L125,80L125.103,80.001ZM124.922,82.001L124.844,82.002L124.767,82.004L124.69,82.008L124.613,82.012L124.537,82.018L124.461,82.024L124.385,82.031L124.309,82.039L124.234,82.048L124.159,82.058L124.085,82.069L124.011,82.081L123.937,82.094L123.863,82.107L123.79,82.122L123.717,82.137L123.645,82.154L123.572,82.171L123.501,82.189L123.429,82.208L123.358,82.228L123.287,82.248L123.217,82.27L123.147,82.292L123.077,82.315L123.008,82.339L122.939,82.364L122.87,82.389L122.802,82.416L122.734,82.443L122.667,82.471L122.6,82.5L122.533,82.529L122.467,82.56L122.402,82.591L122.336,82.623L122.271,82.656L122.207,82.689L122.143,82.723L122.08,82.758L122.017,82.794L121.954,82.831L121.892,82.868L121.83,82.906L121.769,82.945L121.709,82.984L121.648,83.024L121.589,83.065L121.53,83.107L121.471,83.149L121.413,83.192L121.355,83.235L121.298,83.28L121.242,83.325L121.186,83.37L121.13,83.417L121.075,83.463L121.021,83.511L120.967,83.559L120.914,83.608L120.862,83.658L120.81,83.708L120.759,83.758L120.708,83.81L120.658,83.862L120.608,83.914L120.559,83.967L120.511,84.021L120.463,84.075L120.417,84.13L120.37,84.186L120.325,84.242L120.28,84.298L120.235,84.355L120.192,84.413L120.149,84.471L120.107,84.53L120.065,84.589L120.024,84.648L119.984,84.708L119.945,84.769L119.906,84.83L119.868,84.892L119.831,84.954L119.794,85.017L119.758,85.08L119.723,85.143L119.689,85.207L119.656,85.271L119.623,85.336L119.591,85.402L119.56,85.467L119.529,85.533L119.5,85.6L119.471,85.667L119.443,85.734L119.416,85.802L119.389,85.87L119.364,85.939L119.339,86.008L119.315,86.077L119.292,86.147L119.27,86.217L119.248,86.287L119.228,86.358L119.208,86.429L119.189,86.5L119.171,86.572L119.154,86.645L119.137,86.717L119.122,86.79L119.107,86.863L119.094,86.937L119.081,87.011L119.069,87.085L119.058,87.159L119.048,87.234L119.039,87.309L119.031,87.385L119.024,87.461L119.018,87.537L119.012,87.613L119.008,87.69L119.004,87.767L119.002,87.844L119.001,87.922L119,88L119.001,88.078L119.002,88.156L119.004,88.233L119.008,88.31L119.012,88.387L119.018,88.463L119.024,88.539L119.031,88.615L119.039,88.691L119.048,88.766L119.058,88.841L119.069,88.915L119.081,88.989L119.094,89.063L119.107,89.137L119.122,89.21L119.137,89.283L119.154,89.355L119.171,89.428L119.189,89.5L119.208,89.571L119.228,89.642L119.248,89.713L119.27,89.783L119.292,89.853L119.315,89.923L119.339,89.992L119.364,90.061L119.389,90.13L119.416,90.198L119.443,90.266L119.471,90.333L119.5,90.4L119.529,90.467L119.56,90.533L119.591,90.598L119.623,90.664L119.656,90.729L119.689,90.793L119.723,90.857L119.758,90.92L119.794,90.983L119.831,91.046L119.868,91.108L119.906,91.17L119.945,91.231L119.984,91.292L120.024,91.352L120.065,91.411L120.107,91.47L120.149,91.529L120.192,91.587L120.235,91.645L120.28,91.702L120.325,91.758L120.37,91.814L120.417,91.87L120.463,91.925L120.511,91.979L120.559,92.033L120.608,92.086L120.658,92.138L120.708,92.19L120.759,92.242L120.81,92.292L120.862,92.342L120.914,92.392L120.967,92.441L121.021,92.489L121.075,92.537L121.13,92.583L121.186,92.63L121.242,92.675L121.298,92.72L121.355,92.765L121.413,92.808L121.471,92.851L121.53,92.893L121.589,92.935L121.648,92.976L121.709,93.016L121.769,93.055L121.83,93.094L121.892,93.132L121.954,93.169L122.017,93.206L122.08,93.242L122.143,93.277L122.207,93.311L122.271,93.344L122.336,93.377L122.402,93.409L122.467,93.44L122.533,93.471L122.6,93.5L122.667,93.529L122.734,93.557L122.802,93.584L122.87,93.611L122.939,93.636L123.008,93.661L123.077,93.685L123.147,93.708L123.217,93.73L123.287,93.752L123.358,93.772L123.429,93.792L123.501,93.811L123.572,93.829L123.645,93.846L123.717,93.863L123.79,93.878L123.863,93.893L123.937,93.906L124.011,93.919L124.085,93.931L124.159,93.942L124.234,93.952L124.309,93.961L124.385,93.969L124.461,93.976L124.537,93.982L124.613,93.988L124.69,93.992L124.767,93.996L124.844,93.998L124.922,93.999L125,94L125.078,93.999L125.156,93.998L125.233,93.996L125.31,93.992L125.387,93.988L125.463,93.982L125.539,93.976L125.615,93.969L125.691,93.961L125.766,93.952L125.841,93.942L125.915,93.931L125.989,93.919L126.063,93.906L126.137,93.893L126.21,93.878L126.283,93.863L126.355,93.846L126.428,93.829L126.499,93.811L126.571,93.792L126.642,93.772L126.713,93.752L126.783,93.73L126.853,93.708L126.923,93.685L126.992,93.661L127.061,93.636L127.13,93.611L127.198,93.584L127.266,93.557L127.333,93.529L127.4,93.5L127.467,93.471L127.533,93.44L127.598,93.409L127.664,93.377L127.729,93.344L127.793,93.311L127.857,93.277L127.92,93.242L127.983,93.206L128.046,93.169L128.108,93.132L128.17,93.094L128.231,93.055L128.291,93.016L128.352,92.976L128.411,92.935L128.47,92.893L128.529,92.851L128.587,92.808L128.645,92.765L128.702,92.72L128.758,92.675L128.814,92.63L128.87,92.583L128.925,92.537L128.979,92.489L129.033,92.441L129.086,92.392L129.138,92.342L129.19,92.292L129.241,92.242L129.292,92.19L129.342,92.138L129.392,92.086L129.441,92.033L129.489,91.979L129.537,91.925L129.583,91.87L129.63,91.814L129.675,91.758L129.72,91.702L129.765,91.645L129.808,91.587L129.851,91.529L129.893,91.47L129.935,91.411L129.976,91.352L130.016,91.292L130.055,91.231L130.094,91.17L130.132,91.108L130.169,91.046L130.206,90.983L130.242,90.92L130.277,90.857L130.311,90.793L130.344,90.729L130.377,90.664L130.409,90.598L130.44,90.533L130.471,90.467L130.5,90.4L130.529,90.333L130.557,90.266L130.584,90.198L130.611,90.13L130.636,90.061L130.661,89.992L130.685,89.923L130.708,89.853L130.73,89.783L130.752,89.713L130.772,89.642L130.792,89.571L130.811,89.5L130.829,89.428L130.846,89.355L130.863,89.283L130.878,89.21L130.893,89.137L130.906,89.063L130.919,88.989L130.931,88.915L130.942,88.841L130.952,88.766L130.961,88.691L130.969,88.615L130.976,88.539L130.982,88.463L130.988,88.387L130.992,88.31L130.996,88.233L130.998,88.156L130.999,88.078L131,88L130.999,87.922L130.998,87.844L130.996,87.767L130.992,87.69L130.988,87.613L130.982,87.537L130.976,87.461L130.969,87.385L130.961,87.309L130.952,87.234L130.942,87.159L130.931,87.085L130.919,87.011L130.906,86.937L130.893,86.863L130.878,86.79L130.863,86.717L130.846,86.645L130.829,86.572L130.811,86.5L130.792,86.429L130.772,86.358L130.752,86.287L130.73,86.217L130.708,86.147L130.685,86.077L130.661,86.008L130.636,85.939L130.611,85.87L130.584,85.802L130.557,85.734L130.529,85.667L130.5,85.6L130.471,85.533L130.44,85.467L130.409,85.402L130.377,85.336L130.344,85.271L130.311,85.207L130.277,85.143L130.242,85.08L130.206,85.017L130.169,84.954L130.132,84.892L130.094,84.83L130.055,84.769L130.016,84.708L129.976,84.648L129.935,84.589L129.893,84.53L129.851,84.471L129.808,84.413L129.765,84.355L129.72,84.298L129.675,84.242L129.63,84.186L129.583,84.13L129.537,84.075L129.489,84.021L129.441,83.967L129.392,83.914L129.342,83.862L129.292,83.81L129.241,83.758L129.19,83.708L129.138,83.658L129.086,83.608L129.033,83.559L128.979,83.511L128.925,83.463L128.87,83.417L128.814,83.37L128.758,83.325L128.702,83.28L128.645,83.235L128.587,83.192L128.529,83.149L128.47,83.107L128.411,83.065L128.352,83.024L128.291,82.984L128.231,82.945L128.17,82.906L128.108,82.868L128.046,82.831L127.983,82.794L127.92,82.758L127.857,82.723L127.793,82.689L127.729,82.656L127.664,82.623L127.598,82.591L127.533,82.56L127.467,82.529L127.4,82.5L127.333,82.471L127.266,82.443L127.198,82.416L127.13,82.389L127.061,82.364L126.992,82.339L126.923,82.315L126.853,82.292L126.783,82.27L126.713,82.248L126.642,82.228L126.571,82.208L126.499,82.189L126.428,82.171L126.355,82.154L126.283,82.137L126.21,82.122L126.137,82.107L126.063,82.094L125.989,82.081L125.915,82.069L125.841,82.058L125.766,82.048L125.691,82.039L125.615,82.031L125.539,82.024L125.463,82.018L125.387,82.012L125.31,82.008L125.233,82.004L125.156,82.002L125.078,82.001L125,82L124.922,82.001Z" style="fill:white;"/>
                    </g>
                </g>
            </g>
        </g>
    </g>
</svg>
