<?xml version="1.0" encoding="UTF-8" standalone="no"?>
<!DOCTYPE svg PUBLIC "-//W3C//DTD SVG 1.1//EN" "http://www.w3.org/Graphics/SVG/1.1/DTD/svg11.dtd">
<svg width="100%" height="100%" viewBox="0 0 32 32" version="1.1" xmlns="http://www.w3.org/2000/svg" xmlns:xlink="http://www.w3.org/1999/xlink" xml:space="preserve" xmlns:serif="http://www.serif.com/" style="fill-rule:evenodd;clip-rule:evenodd;stroke-linejoin:round;stroke-miterlimit:1.41421;">
    <g transform="matrix(1,0,0,1,-108,-72)">
        <g id="selected_off" transform="matrix(1,0,0,1,108,72)">
            <rect x="0" y="0" width="32" height="32" style="fill:none;"/>
            <g transform="matrix(1,0,0,1,-108,-107)">
                <path d="M124,111C130.623,111 136,116.377 136,123C136,129.623 130.623,135 124,135C117.377,135 112,129.623 112,123C112,116.377 117.377,111 124,111ZM124,115C128.415,115 132,118.585 132,123C132,127.415 128.415,131 124,131C119.585,131 116,127.415 116,123C116,118.585 119.585,115 124,115ZM124,119C126.208,119 128,120.792 128,123C128,125.208 126.208,127 124,127C121.792,127 120,125.208 120,123C120,120.792 121.792,119 124,119Z" style="fill-opacity:0.85098;"/>
            </g>
        </g>
    </g>
</svg>
