<?xml version="1.0" encoding="UTF-8" standalone="no"?>
<!DOCTYPE svg PUBLIC "-//W3C//DTD SVG 1.1//EN" "http://www.w3.org/Graphics/SVG/1.1/DTD/svg11.dtd">
<svg width="100%" height="100%" viewBox="0 0 32 32" version="1.1" xmlns="http://www.w3.org/2000/svg" xmlns:xlink="http://www.w3.org/1999/xlink" xml:space="preserve" xmlns:serif="http://www.serif.com/" style="fill-rule:evenodd;clip-rule:evenodd;stroke-linejoin:round;stroke-miterlimit:1.41421;">
    <g transform="matrix(1,0,0,1,-108,-107)">
        <g id="selected_on" transform="matrix(1,0,0,1,108,107)">
            <rect x="0" y="0" width="32" height="32" style="fill:none;"/>
            <g transform="matrix(1,0,0,1,-108,-107)">
                <path d="M115,114L133,114L133,132L115,132L115,114ZM130,117L118,117L118,129L130,129L130,117ZM126,121L122,121L122,125L126,125L126,121Z" style="fill:white;"/>
            </g>
            <g transform="matrix(1,0,0,1,-108,-107)">
                <rect x="113" y="112" width="22" height="22" style="fill-opacity:0.25098;"/>
            </g>
            <g transform="matrix(1,0,0,1,-108,-107)">
                <path d="M115,114L133,114L133,132L115,132L115,114ZM130,117L118,117L118,129L130,129L130,117ZM126,121L122,121L122,125L126,125L126,121Z" style="fill:white;fill-opacity:0.701961;"/>
            </g>
        </g>
    </g>
</svg>
