<?xml version="1.0" encoding="UTF-8" standalone="no"?>
<!DOCTYPE svg PUBLIC "-//W3C//DTD SVG 1.1//EN" "http://www.w3.org/Graphics/SVG/1.1/DTD/svg11.dtd">
<svg width="100%" height="100%" viewBox="0 0 32 32" version="1.1" xmlns="http://www.w3.org/2000/svg" xmlns:xlink="http://www.w3.org/1999/xlink" xml:space="preserve" xmlns:serif="http://www.serif.com/" style="fill-rule:evenodd;clip-rule:evenodd;stroke-linejoin:round;stroke-miterlimit:1.41421;">
    <g transform="matrix(1,0,0,1,-72,-215)">
        <g id="solo_on" transform="matrix(1,0,0,1,72,215)">
            <rect x="0" y="0" width="32" height="32" style="fill:none;"/>
            <g transform="matrix(1.07692,0,0,1.07692,-1.23077,-155.231)">
                <path d="M29,149.714C29,147.664 27.336,146 25.286,146L6.714,146C4.664,146 3,147.664 3,149.714L3,168.286C3,170.336 4.664,172 6.714,172L25.286,172C27.336,172 29,170.336 29,168.286L29,149.714Z" style="fill-opacity:0.34902;"/>
            </g>
            <g transform="matrix(1,0,0,1,-72,-215)">
                <path d="M98,245L78,245C75.792,245 74,243.208 74,241L74,221C74,218.792 75.792,217 78,217L98,217C100.208,217 102,218.792 102,221L102,241C102,243.208 100.208,245 98,245ZM94.48,234.535C94.48,228.346 86.458,229.373 86.458,227.098C86.458,226.389 86.849,225.85 88.832,225.85C90.129,225.85 91.693,226.095 93.282,226.56L93.869,222.429C92.378,221.842 90.373,221.5 88.539,221.5C83.622,221.5 81.545,224.139 81.545,227.367C81.545,233.557 89.591,232.602 89.591,234.853C89.591,235.758 88.955,236.248 87.315,236.248C85.529,236.248 83.818,235.758 82.156,234.926L81.52,239.156C83.182,240.011 85.236,240.5 87.363,240.5C91.791,240.5 94.48,238.203 94.48,234.535Z" style="fill:rgb(238,156,68);"/>
            </g>
        </g>
    </g>
</svg>
