<?xml version="1.0" encoding="UTF-8" standalone="no"?>
<!DOCTYPE svg PUBLIC "-//W3C//DTD SVG 1.1//EN" "http://www.w3.org/Graphics/SVG/1.1/DTD/svg11.dtd">
<svg width="100%" height="100%" viewBox="0 0 32 32" version="1.1" xmlns="http://www.w3.org/2000/svg" xmlns:xlink="http://www.w3.org/1999/xlink" xml:space="preserve" xmlns:serif="http://www.serif.com/" style="fill-rule:evenodd;clip-rule:evenodd;stroke-linejoin:round;stroke-miterlimit:1.41421;">
    <g transform="matrix(1,0,0,1,-72,-178)">
        <g id="solo_off" transform="matrix(1,0,0,1,72,178)">
            <rect x="0" y="0" width="32" height="32" style="fill:none;"/>
            <clipPath id="_clip1">
                <rect x="0" y="0" width="32" height="32"/>
            </clipPath>
            <g clip-path="url(#_clip1)">
                <g transform="matrix(1.23077,0,0,1.23077,-3.69231,-179.692)">
                    <path d="M29,149.25C29,147.456 27.544,146 25.75,146L6.25,146C4.456,146 3,147.456 3,149.25L3,168.75C3,170.544 4.456,172 6.25,172L25.75,172C27.544,172 29,170.544 29,168.75L29,149.25Z" style="fill-opacity:0.25098;"/>
                    <path d="M25.834,146.001L25.917,146.004L26,146.009L26.082,146.017L26.164,146.026L26.245,146.037L26.325,146.051L26.405,146.066L26.484,146.083L26.562,146.102L26.639,146.123L26.716,146.146L26.792,146.171L26.867,146.197L26.941,146.226L27.015,146.256L27.087,146.287L27.158,146.321L27.229,146.356L27.299,146.392L27.367,146.431L27.435,146.471L27.501,146.512L27.567,146.555L27.631,146.6L27.694,146.646L27.756,146.694L27.817,146.743L27.876,146.793L27.935,146.845L27.992,146.898L28.048,146.952L28.102,147.008L28.155,147.065L28.207,147.124L28.257,147.183L28.306,147.244L28.354,147.306L28.4,147.369L28.445,147.433L28.488,147.499L28.529,147.565L28.569,147.633L28.608,147.701L28.644,147.771L28.679,147.842L28.713,147.913L28.744,147.985L28.774,148.059L28.803,148.133L28.829,148.208L28.854,148.284L28.877,148.361L28.898,148.438L28.917,148.516L28.934,148.595L28.949,148.675L28.963,148.755L28.974,148.836L28.983,148.918L28.991,149L28.996,149.083L28.999,149.166L29,149.25L29,168.75L28.999,168.834L28.996,168.917L28.991,169L28.983,169.082L28.974,169.164L28.963,169.245L28.949,169.325L28.934,169.405L28.917,169.484L28.898,169.562L28.877,169.639L28.854,169.716L28.829,169.792L28.803,169.867L28.774,169.941L28.744,170.015L28.713,170.087L28.679,170.158L28.644,170.229L28.608,170.299L28.569,170.367L28.529,170.435L28.488,170.501L28.445,170.567L28.4,170.631L28.354,170.694L28.306,170.756L28.257,170.817L28.207,170.876L28.155,170.935L28.102,170.992L28.048,171.048L27.992,171.102L27.935,171.155L27.876,171.207L27.817,171.257L27.756,171.306L27.694,171.354L27.631,171.4L27.567,171.445L27.501,171.488L27.435,171.529L27.367,171.569L27.299,171.608L27.229,171.644L27.158,171.679L27.087,171.713L27.015,171.744L26.941,171.774L26.867,171.803L26.792,171.829L26.716,171.854L26.639,171.877L26.562,171.898L26.484,171.917L26.405,171.934L26.325,171.949L26.245,171.963L26.164,171.974L26.082,171.983L26,171.991L25.917,171.996L25.834,171.999L25.75,172L6.25,172L6.166,171.999L6.083,171.996L6,171.991L5.918,171.983L5.836,171.974L5.755,171.963L5.675,171.949L5.595,171.934L5.516,171.917L5.438,171.898L5.361,171.877L5.284,171.854L5.208,171.829L5.133,171.803L5.059,171.774L4.985,171.744L4.913,171.713L4.842,171.679L4.771,171.644L4.701,171.608L4.633,171.569L4.565,171.529L4.499,171.488L4.433,171.445L4.369,171.4L4.306,171.354L4.244,171.306L4.183,171.257L4.124,171.207L4.065,171.155L4.008,171.102L3.952,171.048L3.898,170.992L3.845,170.935L3.793,170.876L3.743,170.817L3.694,170.756L3.646,170.694L3.6,170.631L3.555,170.567L3.512,170.501L3.471,170.435L3.431,170.367L3.392,170.299L3.356,170.229L3.321,170.158L3.287,170.087L3.256,170.015L3.226,169.941L3.197,169.867L3.171,169.792L3.146,169.716L3.123,169.639L3.102,169.562L3.083,169.484L3.066,169.405L3.051,169.325L3.037,169.245L3.026,169.164L3.017,169.082L3.009,169L3.004,168.917L3.001,168.834L3,168.75L3,149.25L3.001,149.166L3.004,149.083L3.009,149L3.017,148.918L3.026,148.836L3.037,148.755L3.051,148.675L3.066,148.595L3.083,148.516L3.102,148.438L3.123,148.361L3.146,148.284L3.171,148.208L3.197,148.133L3.226,148.059L3.256,147.985L3.287,147.913L3.321,147.842L3.356,147.771L3.392,147.701L3.431,147.633L3.471,147.565L3.512,147.499L3.555,147.433L3.6,147.369L3.646,147.306L3.694,147.244L3.743,147.183L3.793,147.124L3.845,147.065L3.898,147.008L3.952,146.952L4.008,146.898L4.065,146.845L4.124,146.793L4.183,146.743L4.244,146.694L4.306,146.646L4.369,146.6L4.433,146.555L4.499,146.512L4.565,146.471L4.633,146.431L4.701,146.392L4.771,146.356L4.842,146.321L4.913,146.287L4.985,146.256L5.059,146.226L5.133,146.197L5.208,146.171L5.284,146.146L5.361,146.123L5.438,146.102L5.516,146.083L5.595,146.066L5.675,146.051L5.755,146.037L5.836,146.026L5.918,146.017L6,146.009L6.083,146.004L6.166,146.001L6.25,146L25.75,146L25.834,146.001ZM6.26,147.625L6.207,147.626L6.165,147.627L6.123,147.63L6.082,147.634L6.042,147.638L6.001,147.644L5.961,147.651L5.921,147.658L5.882,147.667L5.843,147.676L5.805,147.687L5.767,147.698L5.729,147.71L5.692,147.723L5.655,147.737L5.619,147.752L5.583,147.768L5.547,147.785L5.512,147.802L5.477,147.82L5.443,147.839L5.409,147.859L5.376,147.88L5.343,147.902L5.311,147.924L5.279,147.947L5.248,147.971L5.218,147.996L5.188,148.021L5.158,148.047L5.13,148.074L5.101,148.101L5.074,148.13L5.047,148.158L5.021,148.188L4.996,148.218L4.971,148.248L4.947,148.279L4.924,148.311L4.902,148.343L4.88,148.376L4.859,148.409L4.839,148.443L4.82,148.477L4.802,148.512L4.785,148.547L4.768,148.583L4.752,148.619L4.737,148.655L4.723,148.692L4.71,148.729L4.698,148.767L4.687,148.805L4.676,148.843L4.667,148.882L4.658,148.921L4.651,148.961L4.644,149.001L4.638,149.041L4.634,149.082L4.63,149.124L4.627,149.165L4.626,149.207L4.625,149.26L4.625,168.74L4.626,168.793L4.627,168.835L4.63,168.876L4.634,168.918L4.638,168.959L4.644,168.999L4.651,169.039L4.658,169.079L4.667,169.118L4.676,169.157L4.687,169.195L4.698,169.233L4.71,169.271L4.723,169.308L4.737,169.345L4.752,169.381L4.768,169.417L4.785,169.453L4.802,169.488L4.82,169.523L4.839,169.557L4.859,169.591L4.88,169.624L4.902,169.657L4.924,169.689L4.947,169.721L4.971,169.752L4.996,169.782L5.021,169.812L5.047,169.842L5.074,169.87L5.101,169.899L5.13,169.926L5.158,169.953L5.188,169.979L5.218,170.004L5.248,170.029L5.279,170.053L5.311,170.076L5.343,170.098L5.376,170.12L5.409,170.141L5.443,170.161L5.477,170.18L5.512,170.198L5.547,170.215L5.583,170.232L5.619,170.248L5.655,170.263L5.692,170.277L5.729,170.29L5.767,170.302L5.805,170.313L5.843,170.324L5.882,170.333L5.921,170.342L5.961,170.349L6.001,170.356L6.041,170.362L6.082,170.366L6.124,170.37L6.165,170.373L6.207,170.374L6.26,170.375L25.74,170.375L25.793,170.374L25.835,170.373L25.876,170.37L25.918,170.366L25.959,170.362L25.999,170.356L26.039,170.349L26.079,170.342L26.118,170.333L26.157,170.324L26.195,170.313L26.233,170.302L26.271,170.29L26.308,170.277L26.345,170.263L26.381,170.248L26.417,170.232L26.453,170.215L26.488,170.198L26.523,170.18L26.557,170.161L26.591,170.141L26.624,170.12L26.657,170.098L26.689,170.076L26.721,170.053L26.752,170.029L26.782,170.004L26.812,169.979L26.842,169.953L26.87,169.926L26.899,169.899L26.926,169.87L26.953,169.842L26.979,169.812L27.004,169.782L27.029,169.752L27.053,169.721L27.076,169.689L27.098,169.657L27.12,169.624L27.141,169.591L27.161,169.557L27.18,169.523L27.198,169.488L27.215,169.453L27.232,169.417L27.248,169.381L27.263,169.345L27.277,169.308L27.29,169.271L27.302,169.233L27.313,169.195L27.324,169.157L27.333,169.118L27.342,169.079L27.349,169.039L27.356,168.999L27.362,168.959L27.366,168.918L27.37,168.876L27.373,168.835L27.374,168.793L27.375,168.74L27.375,149.26L27.374,149.207L27.373,149.165L27.37,149.124L27.366,149.082L27.362,149.041L27.356,149.001L27.349,148.961L27.342,148.921L27.333,148.882L27.324,148.843L27.313,148.805L27.302,148.767L27.29,148.729L27.277,148.692L27.263,148.655L27.248,148.619L27.232,148.583L27.215,148.547L27.198,148.512L27.18,148.477L27.161,148.443L27.141,148.409L27.12,148.376L27.098,148.343L27.076,148.311L27.053,148.279L27.029,148.248L27.004,148.218L26.979,148.188L26.953,148.158L26.926,148.13L26.899,148.101L26.87,148.074L26.842,148.047L26.812,148.021L26.782,147.996L26.752,147.971L26.721,147.947L26.689,147.924L26.657,147.902L26.624,147.88L26.591,147.859L26.557,147.839L26.523,147.82L26.488,147.802L26.453,147.785L26.417,147.768L26.381,147.752L26.345,147.737L26.308,147.723L26.271,147.71L26.233,147.698L26.195,147.687L26.157,147.676L26.118,147.667L26.079,147.658L26.039,147.651L25.999,147.644L25.958,147.638L25.918,147.634L25.877,147.63L25.835,147.627L25.793,147.626L25.74,147.625L6.26,147.625Z" style="fill:white;"/>
                </g>
                <g transform="matrix(0.352049,0,0,0.352049,-113.554,-23.4417)">
                    <path d="M386.405,122.076C386.405,104.495 363.619,107.414 363.619,100.951C363.619,98.936 364.732,97.407 370.364,97.407C374.047,97.407 378.491,98.102 383.003,99.422L384.67,87.688C380.435,86.022 374.742,85.05 369.53,85.05C355.565,85.05 349.664,92.547 349.664,101.715C349.664,119.296 372.52,116.586 372.52,122.979C372.52,125.551 370.712,126.94 366.053,126.94C360.981,126.94 356.121,125.551 351.4,123.188L349.595,135.201C354.316,137.631 360.148,139.019 366.192,139.019C378.768,139.019 386.405,132.494 386.405,122.076Z" style="fill:white;fill-opacity:0.94902;"/>
                </g>
            </g>
        </g>
    </g>
</svg>
