<?xml version="1.0" encoding="UTF-8" standalone="no"?>
<!DOCTYPE svg PUBLIC "-//W3C//DTD SVG 1.1//EN" "http://www.w3.org/Graphics/SVG/1.1/DTD/svg11.dtd">
<svg width="100%" height="100%" viewBox="0 0 32 32" version="1.1" xmlns="http://www.w3.org/2000/svg" xmlns:xlink="http://www.w3.org/1999/xlink" xml:space="preserve" xmlns:serif="http://www.serif.com/" style="fill-rule:evenodd;clip-rule:evenodd;stroke-linejoin:round;stroke-miterlimit:1.41421;">
    <g transform="matrix(1,0,0,1,-72,-72)">
        <g id="web" transform="matrix(1,0,0,1,72,72)">
            <rect x="0" y="0" width="32" height="32" style="fill:none;"/>
            <g transform="matrix(0.923077,0,0,0.923077,1.23077,-130.769)">
                <rect x="3" y="146" width="26" height="26" style="fill:rgb(125,114,106);"/>
                <path d="M29,172L3,172L3,146L29,146L29,172ZM5.167,148.167L5.167,169.833L26.833,169.833L26.833,148.167L5.167,148.167Z" style="fill:white;fill-opacity:0.74902;"/>
            </g>
            <g transform="matrix(0.461252,-2.77556e-17,2.77556e-17,0.461252,-22.7414,-41.6602)">
                <path d="M97,112L76,112L97,133L97,112Z" style="fill:white;"/>
            </g>
            <g transform="matrix(0.707107,0.707107,-1.5,1.5,90.1888,-176.983)">
                <rect x="82" y="88" width="4" height="4" style="fill:white;"/>
            </g>
        </g>
    </g>
</svg>
