<?xml version="1.0" encoding="UTF-8" standalone="no"?><!DOCTYPE svg PUBLIC "-//W3C//DTD SVG 1.1//EN" "http://www.w3.org/Graphics/SVG/1.1/DTD/svg11.dtd"><svg width="100%" height="100%" viewBox="0 0 32 32" version="1.1" xmlns="http://www.w3.org/2000/svg" xmlns:xlink="http://www.w3.org/1999/xlink" xml:space="preserve" xmlns:serif="http://www.serif.com/" style="fill-rule:evenodd;clip-rule:evenodd;stroke-linejoin:round;stroke-miterlimit:1.41421;"><path d="M32,32l-32,0l0,-32l32,0l0,32Zm-17.167,-30.005l-11.666,0.012l0,27.998l8.167,0l0,-8.159l2.333,0l4.666,8.147l10.5,0l-7,-9.941c2.879,-1.561 5.18,-4.048 5.18,-8.613l0,-0.24c0,-5.036 -3.968,-9.204 -12.18,-9.204Zm-0.033,12.786l-3.466,0.034l0,-5.786l3.506,-0.035c1.88,0 3.493,0.86 3.493,2.587l0,0.2c0,1.771 -1.613,3 -3.533,3Z" style="fill:#fff;"/></svg>