<?xml version="1.0" encoding="UTF-8" standalone="no"?>
<!DOCTYPE svg PUBLIC "-//W3C//DTD SVG 1.1//EN" "http://www.w3.org/Graphics/SVG/1.1/DTD/svg11.dtd">
<svg width="100%" height="100%" viewBox="0 0 32 32" version="1.1" xmlns="http://www.w3.org/2000/svg" xmlns:xlink="http://www.w3.org/1999/xlink" xml:space="preserve" xmlns:serif="http://www.serif.com/" style="fill-rule:evenodd;clip-rule:evenodd;stroke-linejoin:round;stroke-miterlimit:1.41421;">
    <g transform="matrix(1,0,0,1,-36,-36)">
        <g id="arealight" transform="matrix(1,0,0,1,36,36)">
            <rect x="0" y="0" width="32" height="32" style="fill:none;"/>
            <g transform="matrix(0.707107,0.707107,-0.707107,0.707107,16,-57.5391)">
                <path d="M47.856,50.212L47.841,62.212L43.856,62.206L43.861,50.212L47.856,50.212ZM53.856,50.212L53.841,62.212L49.856,62.206L49.861,50.212L53.856,50.212ZM59.856,50.212L59.841,62.212L55.856,62.206L55.861,50.212L59.856,50.212Z" style="fill:rgb(249,168,37);"/>
            </g>
            <g transform="matrix(0.707107,0.707107,-0.707107,0.707107,17.8697,-58.1985)">
                <rect x="42" y="43.516" width="18" height="6.484" style="fill:white;"/>
            </g>
        </g>
    </g>
</svg>
