<?xml version="1.0" encoding="UTF-8" standalone="no"?>
<!DOCTYPE svg PUBLIC "-//W3C//DTD SVG 1.1//EN" "http://www.w3.org/Graphics/SVG/1.1/DTD/svg11.dtd">
<svg width="100%" height="100%" viewBox="0 0 32 32" version="1.1" xmlns="http://www.w3.org/2000/svg" xmlns:xlink="http://www.w3.org/1999/xlink" xml:space="preserve" xmlns:serif="http://www.serif.com/" style="fill-rule:evenodd;clip-rule:evenodd;stroke-linejoin:round;stroke-miterlimit:1.41421;">
    <g transform="matrix(1,0,0,1,0,-72)">
        <g id="help" transform="matrix(1,0,0,1,0,72)">
            <rect x="0" y="0" width="32" height="32" style="fill:none;"/>
            <g transform="matrix(1,0,0,1,0,-72)">
                <circle cx="16" cy="88" r="14" style="fill-opacity:0.25098;"/>
            </g>
            <g transform="matrix(1,0,0,1,0,-72)">
                <path d="M16,74C23.727,74 30,80.273 30,88C30,95.727 23.727,102 16,102C8.273,102 2,95.727 2,88C2,80.273 8.273,74 16,74ZM17.537,98L17.537,94.615L13.556,94.615L13.556,98L17.537,98ZM17.51,92.394C17.51,91.645 17.596,91.056 17.768,90.627C17.939,90.198 18.3,89.772 18.851,89.347C19.862,88.688 20.704,87.871 21.376,86.896C22.049,85.921 22.385,84.861 22.385,83.714C22.385,81.954 21.81,80.561 20.659,79.537C19.508,78.512 17.921,78 15.899,78C14.021,78 12.498,78.46 11.329,79.381C10.16,80.302 9.589,81.629 9.616,83.362L9.643,83.443L13.489,83.443C13.498,82.676 13.735,82.094 14.2,81.697C14.664,81.299 15.231,81.101 15.899,81.101C16.711,81.101 17.337,81.336 17.774,81.805C18.212,82.274 18.431,82.924 18.431,83.755C18.431,84.504 18.239,85.181 17.856,85.786C17.472,86.391 16.96,86.955 16.319,87.479C15.226,88.318 14.497,89.031 14.132,89.618C13.766,90.205 13.579,91.13 13.57,92.394L17.51,92.394Z" style="fill:white;"/>
            </g>
        </g>
    </g>
</svg>
