<?xml version="1.0" encoding="UTF-8" standalone="no"?>
<!DOCTYPE svg PUBLIC "-//W3C//DTD SVG 1.1//EN" "http://www.w3.org/Graphics/SVG/1.1/DTD/svg11.dtd">
<svg width="100%" height="100%" viewBox="0 0 32 32" version="1.1" xmlns="http://www.w3.org/2000/svg" xmlns:xlink="http://www.w3.org/1999/xlink" xml:space="preserve" xmlns:serif="http://www.serif.com/" style="fill-rule:evenodd;clip-rule:evenodd;stroke-linejoin:round;stroke-miterlimit:1.41421;">
    <g transform="matrix(1,0,0,1,0,-215)">
        <g id="kelvin_off" transform="matrix(1,0,0,1,0,215)">
            <rect x="0" y="0" width="32" height="32" style="fill:none;"/>
            <clipPath id="_clip1">
                <rect x="0" y="0" width="32" height="32"/>
            </clipPath>
            <g clip-path="url(#_clip1)">
                <g transform="matrix(1.23077,0,0,1.23077,-3.69231,-179.692)">
                    <rect x="3" y="146" width="26" height="26" style="fill-opacity:0.25098;"/>
                    <path d="M29,172L3,172L3,146L29,146L29,172ZM4.625,147.625L4.625,170.375L27.375,170.375L27.375,147.625L4.625,147.625Z" style="fill:white;"/>
                </g>
                <g transform="matrix(0.286508,0,0,0.286508,-226.959,-153.613)">
                    <circle cx="848" cy="592" r="20" style="fill:rgb(169,227,255);"/>
                </g>
                <g transform="matrix(0.368421,0,0,0.368421,-296.421,-202.105)">
                    <path d="M840.885,612.822C843.117,613.586 845.51,614 848,614C850.49,614 852.883,613.586 855.115,612.822L848,630L840.885,612.822ZM828.246,601.689C830.394,606.055 833.945,609.607 838.311,611.754L821.13,618.87L828.246,601.689ZM874.87,618.87L857.689,611.754C862.055,609.606 865.607,606.055 867.754,601.689L874.87,618.87ZM827.178,584.885C826.414,587.117 826,589.51 826,592C826,594.49 826.414,596.883 827.178,599.115L810,592L827.178,584.885ZM886,592L868.822,599.115C869.586,596.883 870,594.49 870,592C870,589.51 869.586,587.117 868.822,584.885L886,592ZM838.311,572.246C833.945,574.394 830.393,577.945 828.246,582.311L821.13,565.13L838.311,572.246ZM867.754,582.311C865.606,577.945 862.055,574.393 857.689,572.246L874.87,565.13L867.754,582.311ZM855.115,571.178C852.883,570.414 850.49,570 848,570C845.51,570 843.117,570.414 840.885,571.178L848,554L855.115,571.178Z" style="fill:rgb(169,227,255);"/>
                </g>
            </g>
        </g>
    </g>
</svg>
