<?xml version="1.0" encoding="UTF-8" standalone="no"?>
<!DOCTYPE svg PUBLIC "-//W3C//DTD SVG 1.1//EN" "http://www.w3.org/Graphics/SVG/1.1/DTD/svg11.dtd">
<svg width="100%" height="100%" viewBox="0 0 32 32" version="1.1" xmlns="http://www.w3.org/2000/svg" xmlns:xlink="http://www.w3.org/1999/xlink" xml:space="preserve" xmlns:serif="http://www.serif.com/" style="fill-rule:evenodd;clip-rule:evenodd;stroke-linejoin:round;stroke-miterlimit:1.41421;">
    <g transform="matrix(1,0,0,1,0,-287)">
        <g id="ll_default" transform="matrix(1,0,0,1,0,287)">
            <rect x="0" y="0" width="32" height="32" style="fill:none;"/>
            <g transform="matrix(1,0,0,1,0,-286)">
                <path d="M20,312C20,312.552 19.552,313 19,313C18.809,313 18.667,313 18.667,313C18.667,313 18.667,313.5 18.667,314C18.667,314.552 18.219,315 17.667,315C16.714,315 15.286,315 14.333,315C13.781,315 13.333,314.552 13.333,314C13.333,313.5 13.333,313 13.333,313C13.333,313 13.191,313 13,313C12.448,313 12,312.552 12,312C12,310.815 12,309 12,309L20,309C20,309 20,310.815 20,312Z" style="fill:rgb(102,102,102);"/>
                <path d="M20.056,308.002L20.112,308.006L20.168,308.014L20.223,308.025L20.277,308.039L20.33,308.056L20.383,308.076L20.434,308.099L20.484,308.125L20.532,308.153L20.579,308.184L20.623,308.218L20.666,308.254L20.707,308.293L20.746,308.334L20.782,308.377L20.816,308.421L20.847,308.468L20.875,308.516L20.901,308.566L20.924,308.617L20.944,308.67L20.961,308.723L20.975,308.777L20.986,308.832L20.994,308.888L20.998,308.944L21,309L21,312.013L20.998,312.102L20.99,312.203L20.977,312.303L20.96,312.402L20.937,312.499L20.91,312.594L20.879,312.688L20.843,312.779L20.803,312.868L20.758,312.954L20.71,313.038L20.658,313.119L20.602,313.197L20.543,313.273L20.48,313.345L20.414,313.414L20.345,313.48L20.273,313.543L20.197,313.602L20.119,313.658L20.038,313.71L19.954,313.758L19.868,313.803L19.779,313.843L19.688,313.879L19.667,313.886L19.667,314.013L19.664,314.102L19.657,314.203L19.644,314.303L19.626,314.402L19.604,314.499L19.577,314.594L19.545,314.688L19.509,314.779L19.469,314.868L19.425,314.954L19.377,315.038L19.325,315.119L19.269,315.197L19.21,315.273L19.147,315.345L19.081,315.414L19.012,315.48L18.939,315.543L18.864,315.602L18.786,315.658L18.705,315.71L18.621,315.758L18.534,315.803L18.446,315.843L18.355,315.879L18.261,315.91L18.166,315.937L18.069,315.96L17.97,315.977L17.87,315.99L17.769,315.998L17.679,316L14.321,316L14.231,315.998L14.13,315.99L14.03,315.977L13.931,315.96L13.834,315.937L13.739,315.91L13.645,315.879L13.554,315.843L13.466,315.803L13.379,315.758L13.295,315.71L13.214,315.658L13.136,315.602L13.061,315.543L12.988,315.48L12.919,315.414L12.853,315.345L12.79,315.273L12.731,315.197L12.675,315.119L12.623,315.038L12.575,314.954L12.531,314.868L12.491,314.779L12.455,314.688L12.423,314.594L12.396,314.499L12.374,314.402L12.356,314.303L12.343,314.203L12.336,314.102L12.333,314.013L12.333,313.886L12.312,313.879L12.221,313.843L12.132,313.803L12.046,313.758L11.962,313.71L11.881,313.658L11.803,313.602L11.727,313.543L11.655,313.48L11.586,313.414L11.52,313.345L11.457,313.273L11.398,313.197L11.342,313.119L11.29,313.038L11.242,312.954L11.197,312.868L11.157,312.779L11.121,312.688L11.09,312.594L11.063,312.499L11.04,312.402L11.023,312.303L11.01,312.203L11.002,312.102L11,312.013L11,309L11.002,308.944L11.006,308.888L11.014,308.832L11.025,308.777L11.039,308.723L11.056,308.67L11.076,308.617L11.099,308.566L11.125,308.516L11.153,308.468L11.184,308.421L11.218,308.377L11.254,308.334L11.293,308.293L11.334,308.254L11.377,308.218L11.421,308.184L11.468,308.153L11.516,308.125L11.566,308.099L11.617,308.076L11.67,308.056L11.723,308.039L11.777,308.025L11.832,308.014L11.888,308.006L11.944,308.002L12,308L20,308L20.056,308.002ZM12,309L12,312L12.001,312.051L12.005,312.102L12.012,312.152L12.02,312.202L12.031,312.25L12.045,312.297L12.061,312.344L12.079,312.389L12.099,312.434L12.121,312.477L12.145,312.519L12.171,312.559L12.199,312.598L12.228,312.636L12.26,312.672L12.293,312.707L12.328,312.74L12.364,312.772L12.402,312.801L12.441,312.829L12.481,312.855L12.523,312.879L12.566,312.901L12.611,312.921L12.656,312.939L12.703,312.955L12.75,312.969L12.798,312.98L12.848,312.988L12.898,312.995L12.949,312.999L13,313L13.333,313L13.333,314L13.335,314.051L13.338,314.102L13.345,314.152L13.354,314.202L13.365,314.25L13.378,314.297L13.394,314.344L13.412,314.389L13.432,314.434L13.454,314.477L13.478,314.519L13.504,314.559L13.532,314.598L13.562,314.636L13.593,314.672L13.626,314.707L13.661,314.74L13.697,314.772L13.735,314.801L13.774,314.829L13.815,314.855L13.857,314.879L13.9,314.901L13.944,314.921L13.989,314.939L14.036,314.955L14.083,314.969L14.132,314.98L14.181,314.988L14.231,314.995L14.282,314.999L14.333,315L17.667,315L17.718,314.999L17.769,314.995L17.819,314.988L17.868,314.98L17.917,314.969L17.964,314.955L18.011,314.939L18.056,314.921L18.1,314.901L18.143,314.879L18.185,314.855L18.226,314.829L18.265,314.801L18.303,314.772L18.339,314.74L18.374,314.707L18.407,314.672L18.438,314.636L18.468,314.598L18.496,314.559L18.522,314.519L18.546,314.477L18.568,314.434L18.588,314.389L18.606,314.344L18.622,314.297L18.635,314.25L18.646,314.202L18.655,314.152L18.662,314.102L18.665,314.051L18.667,314L18.667,313L19,313L19.051,312.999L19.102,312.995L19.152,312.988L19.202,312.98L19.25,312.969L19.297,312.955L19.344,312.939L19.389,312.921L19.434,312.901L19.477,312.879L19.519,312.855L19.559,312.829L19.598,312.801L19.636,312.772L19.672,312.74L19.707,312.707L19.74,312.672L19.772,312.636L19.801,312.598L19.829,312.559L19.855,312.519L19.879,312.477L19.901,312.434L19.921,312.389L19.939,312.344L19.955,312.297L19.969,312.25L19.98,312.202L19.988,312.152L19.995,312.102L19.999,312.051L20,312L20,309L12,309Z" style="fill-opacity:0.25098;"/>
            </g>
            <g transform="matrix(1,0,0,1,0,-286)">
                <path d="M20,312C20,312.552 19.552,313 19,313C18.809,313 18.667,313 18.667,313C18.667,313 18.667,313.5 18.667,314C18.667,314.552 18.219,315 17.667,315C16.714,315 15.286,315 14.333,315C13.781,315 13.333,314.552 13.333,314C13.333,313.5 13.333,313 13.333,313C13.333,313 13.191,313 13,313C12.448,313 12,312.552 12,312C12,310.815 12,309 12,309L20,309C20,309 20,310.815 20,312Z" style="fill:rgb(102,102,102);"/>
            </g>
            <g transform="matrix(1,0,0,1,0,-286)">
                <path d="M20,308L12,308C12,308 12,308 12,307.999C12,305.851 11.243,303.771 9.861,302.124C8.699,300.737 8,298.95 8,297C8,292.585 11.585,289 16,289C20.415,289 24,292.585 24,297C24,298.95 23.301,300.737 22.14,302.126C20.759,303.772 20.003,305.851 20.003,307.999C20.001,308 20,308 20,308ZM16,291.344C19.121,291.344 21.656,293.879 21.656,297C21.656,300.121 19.121,302.656 16,302.656C12.879,302.656 10.344,300.121 10.344,297C10.344,293.879 12.879,291.344 16,291.344Z" style="fill:white;fill-opacity:0.94902;"/>
                <path d="M16.116,288.001L16.232,288.003L16.347,288.007L16.462,288.012L16.577,288.018L16.691,288.026L16.805,288.036L16.919,288.046L17.032,288.059L17.144,288.072L17.257,288.087L17.369,288.104L17.48,288.121L17.591,288.141L17.702,288.161L17.812,288.183L17.922,288.206L18.031,288.231L18.14,288.256L18.248,288.284L18.355,288.312L18.462,288.342L18.569,288.373L18.675,288.405L18.781,288.439L18.885,288.473L18.99,288.509L19.094,288.547L19.197,288.585L19.299,288.625L19.401,288.666L19.503,288.708L19.603,288.752L19.703,288.796L19.803,288.842L19.901,288.889L19.999,288.937L20.097,288.986L20.193,289.036L20.289,289.087L20.385,289.14L20.479,289.194L20.573,289.248L20.666,289.304L20.759,289.361L20.85,289.419L20.941,289.478L21.032,289.539L21.121,289.6L21.209,289.662L21.297,289.725L21.384,289.789L21.47,289.855L21.556,289.921L21.64,289.988L21.724,290.057L21.807,290.126L21.889,290.196L21.97,290.267L22.051,290.339L22.13,290.412L22.208,290.486L22.286,290.561L22.363,290.637L22.439,290.714L22.514,290.792L22.588,290.87L22.661,290.95L22.733,291.03L22.804,291.111L22.874,291.193L22.943,291.276L23.012,291.36L23.079,291.444L23.145,291.53L23.211,291.616L23.275,291.703L23.338,291.791L23.4,291.879L23.461,291.968L23.522,292.059L23.581,292.149L23.639,292.241L23.696,292.334L23.752,292.427L23.806,292.521L23.86,292.615L23.912,292.71L23.964,292.806L24.014,292.903L24.063,293.001L24.111,293.099L24.158,293.197L24.204,293.297L24.248,293.397L24.292,293.497L24.334,293.599L24.375,293.701L24.415,293.803L24.453,293.906L24.49,294.01L24.527,294.115L24.561,294.219L24.595,294.325L24.627,294.431L24.658,294.537L24.688,294.645L24.716,294.752L24.744,294.86L24.769,294.969L24.794,295.078L24.817,295.188L24.839,295.298L24.859,295.409L24.879,295.52L24.896,295.631L24.913,295.743L24.928,295.855L24.941,295.968L24.954,296.081L24.964,296.195L24.974,296.309L24.982,296.423L24.988,296.538L24.993,296.653L24.997,296.768L24.999,296.884L25,297L24.999,297.102L24.998,297.205L24.995,297.307L24.991,297.408L24.986,297.51L24.98,297.611L24.972,297.712L24.964,297.812L24.954,297.913L24.943,298.013L24.932,298.112L24.919,298.212L24.905,298.311L24.89,298.409L24.874,298.508L24.857,298.606L24.839,298.703L24.819,298.801L24.799,298.898L24.778,298.994L24.755,299.09L24.732,299.186L24.708,299.281L24.682,299.376L24.656,299.471L24.628,299.565L24.6,299.659L24.571,299.752L24.54,299.845L24.509,299.937L24.477,300.029L24.443,300.12L24.409,300.211L24.374,300.302L24.338,300.392L24.301,300.482L24.263,300.571L24.224,300.659L24.184,300.747L24.143,300.835L24.101,300.922L24.059,301.008L24.015,301.094L23.971,301.18L23.926,301.265L23.88,301.349L23.833,301.433L23.785,301.516L23.736,301.599L23.687,301.681L23.636,301.762L23.585,301.843L23.533,301.924L23.48,302.004L23.427,302.083L23.372,302.161L23.317,302.239L23.261,302.317L23.204,302.393L23.146,302.469L23.088,302.545L23.028,302.62L22.968,302.694L22.91,302.764L22.849,302.838L22.793,302.907L22.737,302.977L22.682,303.048L22.628,303.119L22.575,303.191L22.523,303.263L22.471,303.336L22.421,303.409L22.371,303.483L22.322,303.557L22.274,303.632L22.227,303.707L22.18,303.783L22.135,303.859L22.09,303.935L22.046,304.012L22.003,304.09L21.961,304.168L21.92,304.246L21.88,304.325L21.84,304.404L21.801,304.483L21.764,304.563L21.727,304.644L21.691,304.724L21.656,304.806L21.621,304.887L21.588,304.969L21.556,305.051L21.524,305.133L21.493,305.216L21.464,305.299L21.435,305.383L21.407,305.467L21.38,305.551L21.354,305.635L21.328,305.72L21.304,305.805L21.281,305.89L21.258,305.976L21.237,306.061L21.216,306.147L21.196,306.234L21.178,306.32L21.16,306.407L21.143,306.494L21.127,306.581L21.112,306.668L21.098,306.756L21.085,306.844L21.073,306.932L21.062,307.02L21.051,307.108L21.042,307.197L21.034,307.285L21.027,307.374L21.02,307.463L21.015,307.552L21.01,307.641L21.007,307.731L21.005,307.82L21.003,307.91L21.003,308.005L20.999,308.088L20.988,308.171L20.97,308.252L20.946,308.332L20.915,308.41L20.877,308.484L20.834,308.555L20.785,308.623L20.73,308.686L20.67,308.744L20.606,308.797L20.537,308.844L20.465,308.886L20.39,308.921L20.311,308.951L20.231,308.973L20.229,308.974L20.153,308.988L20.077,308.997L20,309L12,309L11.917,308.997L11.835,308.986L11.755,308.969L11.675,308.946L11.598,308.916L11.524,308.879L11.453,308.837L11.386,308.789L11.323,308.736L11.264,308.677L11.211,308.614L11.163,308.547L11.121,308.476L11.084,308.402L11.054,308.325L11.031,308.245L11.014,308.165L11.003,308.083L11,308L11,308.002L10.999,307.91L10.998,307.82L10.996,307.731L10.992,307.641L10.988,307.552L10.982,307.463L10.976,307.374L10.969,307.285L10.96,307.197L10.951,307.108L10.941,307.02L10.93,306.932L10.917,306.844L10.904,306.756L10.89,306.668L10.875,306.581L10.859,306.494L10.843,306.407L10.825,306.32L10.806,306.233L10.786,306.147L10.766,306.061L10.744,305.975L10.722,305.89L10.698,305.804L10.674,305.719L10.649,305.635L10.623,305.55L10.596,305.466L10.568,305.382L10.539,305.299L10.509,305.215L10.478,305.133L10.447,305.05L10.414,304.968L10.381,304.886L10.347,304.805L10.312,304.723L10.276,304.643L10.239,304.562L10.201,304.482L10.162,304.403L10.123,304.324L10.082,304.245L10.041,304.167L9.999,304.089L9.956,304.011L9.912,303.934L9.867,303.858L9.822,303.781L9.775,303.706L9.728,303.631L9.68,303.556L9.631,303.482L9.581,303.408L9.53,303.335L9.479,303.262L9.427,303.19L9.373,303.118L9.32,303.047L9.265,302.976L9.209,302.906L9.153,302.836L9.092,302.763L9.034,302.693L8.974,302.619L8.915,302.544L8.856,302.469L8.798,302.393L8.741,302.316L8.685,302.239L8.63,302.161L8.575,302.083L8.521,302.003L8.468,301.924L8.416,301.843L8.365,301.762L8.314,301.681L8.265,301.599L8.216,301.516L8.168,301.433L8.121,301.349L8.075,301.265L8.03,301.18L7.985,301.094L7.942,301.008L7.899,300.922L7.857,300.835L7.817,300.747L7.777,300.659L7.738,300.571L7.7,300.482L7.663,300.392L7.627,300.302L7.591,300.211L7.557,300.121L7.524,300.029L7.491,299.937L7.46,299.845L7.43,299.752L7.4,299.659L7.372,299.565L7.344,299.471L7.318,299.376L7.292,299.281L7.268,299.186L7.245,299.09L7.222,298.994L7.201,298.898L7.181,298.801L7.161,298.703L7.143,298.606L7.126,298.508L7.11,298.41L7.095,298.311L7.081,298.212L7.068,298.112L7.057,298.013L7.046,297.913L7.036,297.812L7.028,297.712L7.02,297.611L7.014,297.51L7.009,297.408L7.005,297.307L7.002,297.205L7.001,297.102L7,297L7.001,296.884L7.003,296.768L7.007,296.653L7.012,296.538L7.018,296.423L7.026,296.309L7.036,296.195L7.046,296.081L7.059,295.968L7.072,295.855L7.087,295.743L7.104,295.631L7.122,295.52L7.141,295.409L7.161,295.298L7.183,295.188L7.206,295.078L7.231,294.969L7.256,294.86L7.284,294.752L7.312,294.645L7.342,294.537L7.373,294.431L7.405,294.325L7.439,294.219L7.473,294.114L7.51,294.01L7.547,293.906L7.585,293.803L7.625,293.701L7.666,293.599L7.708,293.497L7.752,293.397L7.796,293.297L7.842,293.197L7.889,293.099L7.937,293.001L7.986,292.903L8.036,292.806L8.088,292.71L8.14,292.615L8.194,292.521L8.248,292.427L8.304,292.334L8.361,292.241L8.419,292.149L8.478,292.059L8.539,291.968L8.6,291.879L8.662,291.791L8.725,291.703L8.789,291.616L8.855,291.53L8.921,291.444L8.988,291.36L9.057,291.276L9.126,291.193L9.196,291.111L9.267,291.03L9.339,290.95L9.412,290.87L9.486,290.792L9.561,290.714L9.637,290.637L9.714,290.561L9.792,290.486L9.87,290.412L9.949,290.339L10.03,290.267L10.111,290.196L10.193,290.126L10.276,290.057L10.36,289.988L10.444,289.921L10.53,289.855L10.616,289.789L10.703,289.725L10.791,289.662L10.879,289.6L10.968,289.539L11.059,289.478L11.15,289.419L11.241,289.361L11.334,289.304L11.427,289.248L11.521,289.194L11.615,289.14L11.711,289.087L11.807,289.036L11.903,288.986L12.001,288.937L12.099,288.889L12.197,288.842L12.297,288.796L12.397,288.752L12.497,288.708L12.599,288.666L12.701,288.625L12.803,288.585L12.906,288.547L13.01,288.509L13.115,288.473L13.219,288.439L13.325,288.405L13.431,288.373L13.538,288.342L13.645,288.312L13.752,288.284L13.86,288.256L13.969,288.231L14.078,288.206L14.188,288.183L14.298,288.161L14.409,288.141L14.52,288.121L14.631,288.104L14.743,288.087L14.856,288.072L14.968,288.059L15.081,288.046L15.195,288.036L15.309,288.026L15.423,288.018L15.538,288.012L15.653,288.007L15.768,288.003L15.884,288.001L16,288L16.116,288.001ZM15.897,289.001L15.794,289.003L15.691,289.006L15.589,289.01L15.487,289.016L15.385,289.023L15.284,289.032L15.183,289.041L15.082,289.052L14.982,289.064L14.882,289.078L14.782,289.092L14.683,289.108L14.585,289.125L14.486,289.143L14.389,289.163L14.291,289.183L14.194,289.205L14.098,289.228L14.002,289.252L13.906,289.277L13.811,289.304L13.716,289.331L13.622,289.36L13.528,289.39L13.435,289.421L13.343,289.453L13.251,289.486L13.159,289.52L13.068,289.555L12.977,289.592L12.887,289.629L12.798,289.668L12.709,289.707L12.621,289.748L12.533,289.789L12.446,289.832L12.359,289.876L12.273,289.92L12.188,289.966L12.103,290.013L12.019,290.061L11.936,290.109L11.853,290.159L11.771,290.209L11.689,290.261L11.609,290.314L11.528,290.367L11.449,290.421L11.37,290.477L11.292,290.533L11.215,290.59L11.138,290.648L11.062,290.707L10.987,290.767L10.912,290.828L10.839,290.889L10.766,290.952L10.694,291.015L10.622,291.079L10.551,291.144L10.482,291.21L10.413,291.277L10.344,291.344L10.277,291.413L10.21,291.482L10.144,291.551L10.079,291.622L10.015,291.694L9.952,291.766L9.889,291.839L9.828,291.912L9.767,291.987L9.707,292.062L9.648,292.138L9.59,292.215L9.533,292.292L9.477,292.37L9.421,292.449L9.367,292.528L9.314,292.609L9.261,292.689L9.209,292.771L9.159,292.853L9.109,292.936L9.061,293.019L9.013,293.103L8.966,293.188L8.92,293.273L8.876,293.359L8.832,293.446L8.789,293.533L8.748,293.621L8.707,293.709L8.668,293.798L8.629,293.887L8.592,293.977L8.555,294.068L8.52,294.159L8.486,294.251L8.453,294.343L8.421,294.435L8.39,294.528L8.36,294.622L8.331,294.716L8.304,294.811L8.277,294.906L8.252,295.002L8.228,295.098L8.205,295.194L8.183,295.291L8.163,295.389L8.143,295.486L8.125,295.585L8.108,295.683L8.092,295.782L8.078,295.882L8.064,295.982L8.052,296.082L8.041,296.183L8.032,296.284L8.023,296.385L8.016,296.487L8.01,296.589L8.006,296.691L8.003,296.794L8.001,296.897L8,297L8.001,297.091L8.002,297.182L8.005,297.273L8.008,297.364L8.013,297.454L8.018,297.544L8.025,297.634L8.032,297.723L8.041,297.812L8.05,297.901L8.061,297.99L8.072,298.078L8.085,298.166L8.098,298.254L8.112,298.341L8.127,298.428L8.144,298.515L8.161,298.601L8.179,298.687L8.198,298.773L8.217,298.858L8.238,298.943L8.26,299.028L8.282,299.112L8.306,299.196L8.33,299.28L8.356,299.363L8.382,299.446L8.409,299.528L8.436,299.61L8.465,299.692L8.495,299.773L8.525,299.854L8.556,299.934L8.589,300.014L8.622,300.094L8.655,300.173L8.69,300.252L8.725,300.33L8.762,300.408L8.799,300.485L8.836,300.562L8.875,300.638L8.915,300.714L8.955,300.789L8.996,300.864L9.038,300.939L9.08,301.013L9.123,301.086L9.168,301.159L9.212,301.232L9.258,301.304L9.304,301.375L9.351,301.446L9.399,301.516L9.448,301.586L9.497,301.655L9.547,301.724L9.598,301.792L9.649,301.86L9.701,301.927L9.754,301.993L9.807,302.059L9.861,302.124L9.926,302.202L9.989,302.28L10.052,302.359L10.113,302.438L10.174,302.518L10.233,302.599L10.292,302.68L10.35,302.761L10.407,302.844L10.463,302.926L10.518,303.01L10.572,303.094L10.625,303.178L10.677,303.263L10.728,303.349L10.778,303.435L10.828,303.521L10.876,303.608L10.923,303.696L10.969,303.784L11.015,303.872L11.059,303.961L11.103,304.05L11.145,304.14L11.187,304.23L11.227,304.321L11.266,304.412L11.305,304.504L11.342,304.595L11.379,304.688L11.414,304.78L11.449,304.873L11.482,304.967L11.515,305.061L11.546,305.155L11.576,305.249L11.606,305.344L11.634,305.439L11.661,305.534L11.688,305.63L11.713,305.726L11.737,305.823L11.76,305.919L11.782,306.016L11.803,306.113L11.823,306.211L11.842,306.308L11.86,306.406L11.877,306.505L11.893,306.603L11.907,306.702L11.921,306.8L11.934,306.899L11.945,306.999L11.955,307.098L11.965,307.198L11.973,307.297L11.98,307.397L11.986,307.497L11.991,307.597L11.995,307.698L11.998,307.798L11.999,307.899L12,308L20,308L20.003,307.999L20.003,307.899L20.005,307.798L20.008,307.698L20.011,307.597L20.016,307.497L20.022,307.397L20.03,307.297L20.038,307.198L20.047,307.098L20.057,306.999L20.069,306.9L20.081,306.801L20.095,306.702L20.11,306.603L20.126,306.505L20.142,306.407L20.16,306.309L20.179,306.211L20.199,306.114L20.22,306.017L20.242,305.92L20.265,305.823L20.29,305.727L20.315,305.631L20.341,305.535L20.368,305.44L20.397,305.345L20.426,305.25L20.456,305.155L20.488,305.061L20.52,304.968L20.554,304.874L20.588,304.781L20.623,304.689L20.66,304.596L20.697,304.504L20.736,304.413L20.775,304.322L20.816,304.231L20.857,304.141L20.899,304.051L20.943,303.962L20.987,303.873L21.033,303.785L21.079,303.697L21.126,303.609L21.174,303.522L21.224,303.436L21.274,303.35L21.325,303.264L21.377,303.179L21.43,303.095L21.484,303.011L21.539,302.928L21.595,302.845L21.652,302.763L21.71,302.681L21.768,302.6L21.828,302.519L21.889,302.439L21.95,302.36L22.013,302.281L22.076,302.203L22.14,302.126L22.194,302.061L22.248,301.995L22.3,301.928L22.352,301.861L22.404,301.793L22.454,301.725L22.504,301.656L22.553,301.587L22.602,301.517L22.65,301.447L22.697,301.376L22.743,301.304L22.788,301.232L22.833,301.16L22.877,301.087L22.921,301.013L22.963,300.939L23.005,300.865L23.046,300.79L23.086,300.714L23.125,300.638L23.164,300.562L23.202,300.485L23.239,300.408L23.275,300.33L23.31,300.252L23.345,300.173L23.379,300.094L23.412,300.015L23.444,299.935L23.475,299.854L23.505,299.773L23.535,299.692L23.564,299.611L23.592,299.528L23.619,299.446L23.645,299.363L23.67,299.28L23.694,299.196L23.718,299.113L23.74,299.028L23.762,298.944L23.783,298.858L23.802,298.773L23.821,298.687L23.839,298.601L23.857,298.515L23.873,298.428L23.888,298.341L23.902,298.254L23.915,298.166L23.928,298.078L23.939,297.99L23.95,297.901L23.959,297.812L23.968,297.723L23.975,297.634L23.982,297.544L23.987,297.454L23.992,297.364L23.995,297.273L23.998,297.182L23.999,297.091L24,297L23.999,296.897L23.997,296.794L23.994,296.691L23.99,296.589L23.984,296.487L23.977,296.385L23.968,296.284L23.959,296.183L23.948,296.082L23.936,295.982L23.922,295.882L23.908,295.782L23.892,295.683L23.875,295.585L23.857,295.486L23.837,295.389L23.817,295.291L23.795,295.194L23.772,295.098L23.748,295.002L23.723,294.906L23.696,294.811L23.669,294.716L23.64,294.622L23.61,294.528L23.579,294.435L23.547,294.343L23.514,294.251L23.48,294.159L23.445,294.068L23.408,293.977L23.371,293.887L23.332,293.798L23.293,293.709L23.252,293.621L23.211,293.533L23.168,293.446L23.124,293.359L23.08,293.273L23.034,293.188L22.987,293.103L22.939,293.019L22.891,292.936L22.841,292.853L22.791,292.771L22.739,292.689L22.686,292.609L22.633,292.528L22.579,292.449L22.523,292.37L22.467,292.292L22.41,292.215L22.352,292.138L22.293,292.062L22.233,291.987L22.172,291.912L22.111,291.839L22.048,291.766L21.985,291.694L21.921,291.622L21.856,291.551L21.79,291.482L21.723,291.413L21.656,291.344L21.587,291.277L21.518,291.21L21.449,291.144L21.378,291.079L21.306,291.015L21.234,290.952L21.161,290.889L21.088,290.828L21.013,290.767L20.938,290.707L20.862,290.648L20.785,290.59L20.708,290.533L20.63,290.477L20.551,290.421L20.472,290.367L20.391,290.314L20.311,290.261L20.229,290.209L20.147,290.159L20.064,290.109L19.981,290.061L19.897,290.013L19.812,289.966L19.727,289.92L19.641,289.876L19.554,289.832L19.467,289.789L19.379,289.748L19.291,289.707L19.202,289.668L19.113,289.629L19.023,289.592L18.932,289.555L18.841,289.52L18.749,289.486L18.657,289.453L18.565,289.421L18.472,289.39L18.378,289.36L18.284,289.331L18.189,289.304L18.094,289.277L17.998,289.252L17.902,289.228L17.806,289.205L17.709,289.183L17.611,289.163L17.514,289.143L17.415,289.125L17.317,289.108L17.218,289.092L17.118,289.078L17.018,289.064L16.918,289.052L16.817,289.041L16.716,289.032L16.615,289.023L16.513,289.016L16.411,289.01L16.309,289.006L16.206,289.003L16.103,289.001L16,289L15.897,289.001ZM16.073,291.345L16.146,291.346L16.218,291.348L16.291,291.352L16.363,291.356L16.435,291.361L16.507,291.367L16.578,291.373L16.649,291.381L16.72,291.39L16.791,291.399L16.861,291.409L16.931,291.421L17.001,291.433L17.07,291.446L17.139,291.459L17.208,291.474L17.277,291.489L17.345,291.505L17.413,291.522L17.48,291.54L17.548,291.559L17.615,291.578L17.681,291.599L17.747,291.62L17.813,291.642L17.879,291.664L17.944,291.688L18.009,291.712L18.073,291.737L18.137,291.763L18.201,291.789L18.264,291.816L18.327,291.844L18.389,291.873L18.451,291.902L18.513,291.932L18.574,291.963L18.635,291.995L18.695,292.027L18.755,292.06L18.814,292.094L18.873,292.128L18.932,292.164L18.99,292.199L19.047,292.236L19.105,292.273L19.161,292.311L19.217,292.349L19.273,292.388L19.328,292.428L19.383,292.468L19.437,292.51L19.491,292.551L19.544,292.593L19.597,292.636L19.649,292.68L19.7,292.724L19.751,292.769L19.802,292.814L19.852,292.86L19.901,292.907L19.95,292.954L19.998,293.002L20.046,293.05L20.093,293.099L20.14,293.148L20.186,293.198L20.231,293.249L20.276,293.3L20.32,293.351L20.364,293.403L20.407,293.456L20.449,293.509L20.49,293.563L20.532,293.617L20.572,293.672L20.612,293.727L20.651,293.783L20.689,293.839L20.727,293.895L20.764,293.953L20.801,294.01L20.836,294.068L20.872,294.127L20.906,294.186L20.94,294.245L20.973,294.305L21.005,294.365L21.037,294.426L21.068,294.487L21.098,294.549L21.127,294.611L21.156,294.673L21.184,294.736L21.211,294.799L21.237,294.863L21.263,294.927L21.288,294.991L21.312,295.056L21.336,295.121L21.358,295.187L21.38,295.253L21.401,295.319L21.422,295.385L21.441,295.452L21.46,295.52L21.478,295.587L21.495,295.655L21.511,295.723L21.526,295.792L21.541,295.861L21.554,295.93L21.567,295.999L21.579,296.069L21.591,296.139L21.601,296.209L21.61,296.28L21.619,296.351L21.627,296.422L21.633,296.493L21.639,296.565L21.644,296.637L21.648,296.709L21.652,296.782L21.654,296.854L21.655,296.927L21.656,297L21.655,297.073L21.654,297.146L21.652,297.218L21.648,297.291L21.644,297.363L21.639,297.435L21.633,297.507L21.627,297.578L21.619,297.649L21.61,297.72L21.601,297.791L21.591,297.861L21.579,297.931L21.567,298.001L21.554,298.07L21.541,298.139L21.526,298.208L21.511,298.277L21.495,298.345L21.478,298.413L21.46,298.48L21.441,298.548L21.422,298.615L21.401,298.681L21.38,298.747L21.358,298.813L21.336,298.879L21.312,298.944L21.288,299.009L21.263,299.073L21.237,299.137L21.211,299.201L21.184,299.264L21.156,299.327L21.127,299.389L21.098,299.451L21.068,299.513L21.037,299.574L21.005,299.635L20.973,299.695L20.94,299.755L20.906,299.814L20.872,299.873L20.836,299.932L20.801,299.99L20.764,300.047L20.727,300.105L20.689,300.161L20.651,300.217L20.612,300.273L20.572,300.328L20.532,300.383L20.49,300.437L20.449,300.491L20.407,300.544L20.364,300.597L20.32,300.649L20.276,300.7L20.231,300.751L20.186,300.802L20.14,300.852L20.093,300.901L20.046,300.95L19.998,300.998L19.95,301.046L19.901,301.093L19.852,301.14L19.802,301.186L19.751,301.231L19.7,301.276L19.649,301.32L19.597,301.364L19.544,301.407L19.491,301.449L19.437,301.49L19.383,301.532L19.328,301.572L19.273,301.612L19.217,301.651L19.161,301.689L19.105,301.727L19.047,301.764L18.99,301.801L18.932,301.836L18.873,301.872L18.814,301.906L18.755,301.94L18.695,301.973L18.635,302.005L18.574,302.037L18.513,302.068L18.451,302.098L18.389,302.127L18.327,302.156L18.264,302.184L18.201,302.211L18.137,302.237L18.073,302.263L18.009,302.288L17.944,302.312L17.879,302.336L17.813,302.358L17.747,302.38L17.681,302.401L17.615,302.422L17.548,302.441L17.48,302.46L17.413,302.478L17.345,302.495L17.277,302.511L17.208,302.526L17.139,302.541L17.07,302.554L17.001,302.567L16.931,302.579L16.861,302.591L16.791,302.601L16.72,302.61L16.649,302.619L16.578,302.627L16.507,302.633L16.435,302.639L16.363,302.644L16.291,302.648L16.218,302.652L16.146,302.654L16.073,302.655L16,302.656L15.927,302.655L15.854,302.654L15.782,302.652L15.709,302.648L15.637,302.644L15.565,302.639L15.493,302.633L15.422,302.627L15.351,302.619L15.28,302.61L15.209,302.601L15.139,302.591L15.069,302.579L14.999,302.567L14.93,302.554L14.861,302.541L14.792,302.526L14.723,302.511L14.655,302.495L14.587,302.478L14.52,302.46L14.452,302.441L14.385,302.422L14.319,302.401L14.253,302.38L14.187,302.358L14.121,302.336L14.056,302.312L13.991,302.288L13.927,302.263L13.863,302.237L13.799,302.211L13.736,302.184L13.673,302.156L13.611,302.127L13.549,302.098L13.487,302.068L13.426,302.037L13.365,302.005L13.305,301.973L13.245,301.94L13.186,301.906L13.127,301.872L13.068,301.836L13.01,301.801L12.953,301.764L12.895,301.727L12.839,301.689L12.783,301.651L12.727,301.612L12.672,301.572L12.617,301.532L12.563,301.49L12.509,301.449L12.456,301.407L12.403,301.364L12.351,301.32L12.3,301.276L12.249,301.231L12.198,301.186L12.148,301.14L12.099,301.093L12.05,301.046L12.002,300.998L11.954,300.95L11.907,300.901L11.86,300.852L11.814,300.802L11.769,300.751L11.724,300.7L11.68,300.649L11.636,300.597L11.593,300.544L11.551,300.491L11.51,300.437L11.468,300.383L11.428,300.328L11.388,300.273L11.349,300.217L11.311,300.161L11.273,300.105L11.236,300.047L11.199,299.99L11.164,299.932L11.128,299.873L11.094,299.814L11.06,299.755L11.027,299.695L10.995,299.635L10.963,299.574L10.932,299.513L10.902,299.451L10.873,299.389L10.844,299.327L10.816,299.264L10.789,299.201L10.763,299.137L10.737,299.073L10.712,299.009L10.688,298.944L10.664,298.879L10.642,298.813L10.62,298.747L10.599,298.681L10.578,298.615L10.559,298.548L10.54,298.48L10.522,298.413L10.505,298.345L10.489,298.277L10.474,298.208L10.459,298.139L10.446,298.07L10.433,298.001L10.421,297.931L10.409,297.861L10.399,297.791L10.39,297.72L10.381,297.649L10.373,297.578L10.367,297.507L10.361,297.435L10.356,297.363L10.352,297.291L10.348,297.218L10.346,297.146L10.345,297.073L10.344,297L10.345,296.927L10.346,296.854L10.348,296.782L10.352,296.709L10.356,296.637L10.361,296.565L10.367,296.493L10.373,296.422L10.381,296.351L10.39,296.28L10.399,296.209L10.409,296.139L10.421,296.069L10.433,295.999L10.446,295.93L10.459,295.861L10.474,295.792L10.489,295.723L10.505,295.655L10.522,295.587L10.54,295.52L10.559,295.452L10.578,295.385L10.599,295.319L10.62,295.253L10.642,295.187L10.664,295.121L10.688,295.056L10.712,294.991L10.737,294.927L10.763,294.863L10.789,294.799L10.816,294.736L10.844,294.673L10.873,294.611L10.902,294.549L10.932,294.487L10.963,294.426L10.995,294.365L11.027,294.305L11.06,294.245L11.094,294.186L11.128,294.127L11.164,294.068L11.199,294.01L11.236,293.953L11.273,293.895L11.311,293.839L11.349,293.783L11.388,293.727L11.428,293.672L11.468,293.617L11.51,293.563L11.551,293.509L11.593,293.456L11.636,293.403L11.68,293.351L11.724,293.3L11.769,293.249L11.814,293.198L11.86,293.148L11.907,293.099L11.954,293.05L12.002,293.002L12.05,292.954L12.099,292.907L12.148,292.86L12.198,292.814L12.249,292.769L12.3,292.724L12.351,292.68L12.403,292.636L12.456,292.593L12.509,292.551L12.563,292.51L12.617,292.468L12.672,292.428L12.727,292.388L12.783,292.349L12.839,292.311L12.895,292.273L12.953,292.236L13.01,292.199L13.068,292.164L13.127,292.128L13.186,292.094L13.245,292.06L13.305,292.027L13.365,291.995L13.426,291.963L13.487,291.932L13.549,291.902L13.611,291.873L13.673,291.844L13.736,291.816L13.799,291.789L13.863,291.763L13.927,291.737L13.991,291.712L14.056,291.688L14.121,291.664L14.187,291.642L14.253,291.62L14.319,291.599L14.385,291.578L14.452,291.559L14.52,291.54L14.587,291.522L14.655,291.505L14.723,291.489L14.792,291.474L14.861,291.459L14.93,291.446L14.999,291.433L15.069,291.421L15.139,291.409L15.209,291.399L15.28,291.39L15.351,291.381L15.422,291.373L15.493,291.367L15.565,291.361L15.637,291.356L15.709,291.352L15.782,291.348L15.854,291.346L15.927,291.345L16,291.344L16.073,291.345ZM15.94,292.345L15.879,292.346L15.82,292.348L15.76,292.35L15.7,292.354L15.641,292.358L15.582,292.363L15.523,292.368L15.465,292.375L15.406,292.382L15.348,292.39L15.29,292.398L15.233,292.407L15.176,292.417L15.118,292.428L15.061,292.439L15.005,292.451L14.949,292.464L14.893,292.477L14.837,292.491L14.781,292.506L14.726,292.521L14.671,292.537L14.616,292.554L14.562,292.571L14.508,292.589L14.454,292.607L14.4,292.627L14.347,292.646L14.294,292.667L14.241,292.688L14.189,292.71L14.137,292.732L14.086,292.755L14.034,292.779L13.983,292.803L13.932,292.828L13.882,292.853L13.832,292.879L13.783,292.906L13.733,292.933L13.684,292.961L13.636,292.989L13.588,293.018L13.54,293.047L13.492,293.078L13.445,293.108L13.399,293.139L13.352,293.171L13.307,293.203L13.261,293.236L13.216,293.269L13.171,293.303L13.127,293.337L13.083,293.372L13.04,293.408L12.997,293.444L12.954,293.48L12.912,293.517L12.871,293.554L12.83,293.592L12.789,293.631L12.748,293.669L12.709,293.709L12.669,293.749L12.63,293.789L12.592,293.829L12.554,293.871L12.517,293.912L12.48,293.954L12.444,293.997L12.408,294.04L12.372,294.083L12.337,294.127L12.303,294.171L12.269,294.216L12.236,294.261L12.203,294.307L12.171,294.352L12.139,294.399L12.108,294.445L12.078,294.492L12.048,294.54L12.018,294.588L11.989,294.636L11.961,294.684L11.933,294.733L11.906,294.783L11.879,294.832L11.853,294.882L11.828,294.933L11.803,294.983L11.779,295.034L11.755,295.086L11.732,295.137L11.71,295.189L11.688,295.242L11.667,295.294L11.647,295.347L11.627,295.4L11.607,295.454L11.589,295.508L11.571,295.562L11.554,295.616L11.537,295.671L11.521,295.726L11.506,295.781L11.491,295.837L11.477,295.892L11.464,295.949L11.451,296.005L11.439,296.061L11.428,296.118L11.417,296.175L11.407,296.233L11.398,296.29L11.39,296.348L11.382,296.406L11.375,296.465L11.368,296.523L11.363,296.582L11.358,296.641L11.354,296.7L11.35,296.76L11.348,296.82L11.346,296.879L11.345,296.94L11.344,297L11.345,297.06L11.346,297.121L11.348,297.18L11.35,297.24L11.354,297.3L11.358,297.359L11.363,297.418L11.368,297.477L11.375,297.535L11.382,297.594L11.39,297.652L11.398,297.71L11.407,297.767L11.417,297.825L11.428,297.882L11.439,297.939L11.451,297.995L11.464,298.051L11.477,298.108L11.491,298.163L11.506,298.219L11.521,298.274L11.537,298.329L11.554,298.384L11.571,298.438L11.589,298.492L11.607,298.546L11.627,298.6L11.647,298.653L11.667,298.706L11.688,298.758L11.71,298.811L11.732,298.863L11.755,298.914L11.779,298.966L11.803,299.017L11.828,299.067L11.853,299.118L11.879,299.168L11.906,299.217L11.933,299.267L11.961,299.316L11.989,299.364L12.018,299.412L12.048,299.46L12.078,299.508L12.108,299.555L12.139,299.601L12.171,299.648L12.203,299.693L12.236,299.739L12.269,299.784L12.303,299.829L12.337,299.873L12.372,299.917L12.408,299.96L12.444,300.003L12.48,300.046L12.517,300.088L12.554,300.129L12.592,300.171L12.63,300.211L12.669,300.252L12.709,300.291L12.748,300.331L12.789,300.369L12.83,300.408L12.871,300.446L12.912,300.483L12.954,300.52L12.997,300.556L13.04,300.592L13.083,300.628L13.127,300.663L13.171,300.697L13.216,300.731L13.261,300.764L13.307,300.797L13.352,300.829L13.399,300.861L13.445,300.892L13.492,300.922L13.54,300.953L13.588,300.982L13.636,301.011L13.684,301.039L13.733,301.067L13.783,301.094L13.832,301.121L13.882,301.147L13.933,301.172L13.983,301.197L14.034,301.221L14.086,301.245L14.137,301.268L14.189,301.29L14.242,301.312L14.294,301.333L14.347,301.353L14.4,301.373L14.454,301.393L14.508,301.411L14.562,301.429L14.616,301.446L14.671,301.463L14.726,301.479L14.781,301.494L14.837,301.509L14.892,301.523L14.948,301.536L15.005,301.549L15.062,301.561L15.118,301.572L15.175,301.583L15.233,301.593L15.29,301.602L15.348,301.61L15.406,301.618L15.465,301.625L15.523,301.632L15.582,301.637L15.641,301.642L15.7,301.646L15.76,301.65L15.82,301.652L15.879,301.654L15.94,301.655L16,301.656L16.06,301.655L16.121,301.654L16.18,301.652L16.24,301.65L16.3,301.646L16.359,301.642L16.418,301.637L16.477,301.632L16.535,301.625L16.594,301.618L16.652,301.61L16.71,301.602L16.767,301.593L16.825,301.583L16.882,301.572L16.938,301.561L16.995,301.549L17.052,301.536L17.108,301.523L17.163,301.509L17.219,301.494L17.274,301.479L17.329,301.463L17.384,301.446L17.438,301.429L17.492,301.411L17.546,301.393L17.6,301.373L17.653,301.353L17.706,301.333L17.758,301.312L17.811,301.29L17.863,301.268L17.914,301.245L17.966,301.221L18.017,301.197L18.067,301.172L18.118,301.147L18.168,301.121L18.217,301.094L18.267,301.067L18.316,301.039L18.364,301.011L18.412,300.982L18.46,300.953L18.508,300.922L18.555,300.892L18.601,300.861L18.648,300.829L18.693,300.797L18.739,300.764L18.784,300.731L18.829,300.697L18.873,300.663L18.917,300.628L18.96,300.592L19.003,300.556L19.046,300.52L19.088,300.483L19.129,300.446L19.17,300.408L19.211,300.369L19.252,300.331L19.291,300.291L19.331,300.252L19.37,300.211L19.408,300.171L19.446,300.129L19.483,300.088L19.52,300.046L19.556,300.003L19.592,299.96L19.628,299.917L19.663,299.873L19.697,299.829L19.731,299.784L19.764,299.739L19.797,299.693L19.829,299.648L19.861,299.601L19.892,299.555L19.922,299.508L19.952,299.46L19.982,299.412L20.011,299.364L20.039,299.316L20.067,299.267L20.094,299.217L20.121,299.168L20.147,299.118L20.172,299.067L20.197,299.017L20.221,298.966L20.245,298.914L20.268,298.863L20.29,298.811L20.312,298.758L20.333,298.706L20.353,298.653L20.373,298.6L20.393,298.546L20.411,298.492L20.429,298.438L20.446,298.384L20.463,298.329L20.479,298.274L20.494,298.219L20.509,298.163L20.523,298.108L20.536,298.051L20.549,297.995L20.561,297.939L20.572,297.882L20.583,297.825L20.593,297.767L20.602,297.71L20.61,297.652L20.618,297.594L20.625,297.535L20.632,297.477L20.637,297.418L20.642,297.359L20.646,297.3L20.65,297.24L20.652,297.18L20.654,297.121L20.655,297.06L20.656,297L20.655,296.94L20.654,296.879L20.652,296.82L20.65,296.76L20.646,296.7L20.642,296.641L20.637,296.582L20.632,296.523L20.625,296.465L20.618,296.406L20.61,296.348L20.602,296.29L20.593,296.233L20.583,296.175L20.572,296.118L20.561,296.061L20.549,296.005L20.536,295.949L20.523,295.892L20.509,295.837L20.494,295.781L20.479,295.726L20.463,295.671L20.446,295.616L20.429,295.562L20.411,295.508L20.393,295.454L20.373,295.4L20.353,295.347L20.333,295.294L20.312,295.242L20.29,295.189L20.268,295.137L20.245,295.086L20.221,295.034L20.197,294.983L20.172,294.933L20.147,294.882L20.121,294.832L20.094,294.783L20.067,294.733L20.039,294.684L20.011,294.636L19.982,294.588L19.952,294.54L19.922,294.492L19.892,294.445L19.861,294.399L19.829,294.352L19.797,294.307L19.764,294.261L19.731,294.216L19.697,294.171L19.663,294.127L19.628,294.083L19.592,294.04L19.556,293.997L19.52,293.954L19.483,293.912L19.446,293.871L19.408,293.829L19.37,293.789L19.331,293.749L19.291,293.709L19.252,293.669L19.211,293.631L19.17,293.592L19.129,293.554L19.088,293.517L19.046,293.48L19.003,293.444L18.96,293.408L18.917,293.372L18.873,293.337L18.829,293.303L18.784,293.269L18.739,293.236L18.693,293.203L18.648,293.171L18.601,293.139L18.555,293.108L18.508,293.078L18.46,293.047L18.412,293.018L18.364,292.989L18.316,292.961L18.267,292.933L18.217,292.906L18.168,292.879L18.118,292.853L18.068,292.828L18.017,292.803L17.966,292.779L17.914,292.755L17.863,292.732L17.811,292.71L17.759,292.688L17.706,292.667L17.653,292.646L17.6,292.627L17.546,292.607L17.492,292.589L17.438,292.571L17.384,292.554L17.329,292.537L17.274,292.521L17.219,292.506L17.163,292.491L17.107,292.477L17.051,292.464L16.995,292.451L16.939,292.439L16.882,292.428L16.824,292.417L16.767,292.407L16.71,292.398L16.652,292.39L16.594,292.382L16.535,292.375L16.477,292.368L16.418,292.363L16.359,292.358L16.3,292.354L16.24,292.35L16.18,292.348L16.121,292.346L16.06,292.345L16,292.344L15.94,292.345Z" style="fill-opacity:0.25098;"/>
            </g>
            <g transform="matrix(1,0,0,1,0,-286)">
                <path d="M20,308L12,308C12,308 12,308 12,307.999C12,305.851 11.243,303.771 9.861,302.124C8.699,300.737 8,298.95 8,297C8,292.585 11.585,289 16,289C20.415,289 24,292.585 24,297C24,298.95 23.301,300.737 22.14,302.126C20.759,303.772 20.003,305.851 20.003,307.999C20.001,308 20,308 20,308ZM16,291.344C19.121,291.344 21.656,293.879 21.656,297C21.656,300.121 19.121,302.656 16,302.656C12.879,302.656 10.344,300.121 10.344,297C10.344,293.879 12.879,291.344 16,291.344Z" style="fill:white;fill-opacity:0.94902;"/>
            </g>
            <g transform="matrix(0.706968,0,0,0.706968,4.68851,-197.556)">
                <circle cx="16" cy="295" r="8" style="fill:rgb(205,205,205);"/>
            </g>
        </g>
    </g>
</svg>
