<?xml version="1.0" encoding="UTF-8" standalone="no"?>
<!DOCTYPE svg PUBLIC "-//W3C//DTD SVG 1.1//EN" "http://www.w3.org/Graphics/SVG/1.1/DTD/svg11.dtd">
<svg width="100%" height="100%" viewBox="0 0 32 32" version="1.1" xmlns="http://www.w3.org/2000/svg" xmlns:xlink="http://www.w3.org/1999/xlink" xml:space="preserve" xmlns:serif="http://www.serif.com/" style="fill-rule:evenodd;clip-rule:evenodd;stroke-linejoin:round;stroke-miterlimit:1.41421;">
    <g transform="matrix(1,0,0,1,-72,-251)">
        <g id="ll_linked" transform="matrix(1,0,0,1,72,251)">
            <rect x="0" y="0" width="32" height="32" style="fill:none;"/>
            <g transform="matrix(1,0,0,1,-72,-251)">
                <path d="M85.787,263.963C86.638,263.111 87.116,261.957 87.116,260.752C87.117,260.752 87.117,260.751 87.117,260.75C87.117,256.878 90.261,253.734 94.133,253.734C98.006,253.734 101.15,256.878 101.15,260.75C101.15,264.623 98.006,267.767 94.133,267.767C94.132,267.767 94.132,267.767 94.131,267.767C92.927,267.766 91.772,268.245 90.92,269.096C90.687,269.329 90.446,269.57 90.213,269.804C89.362,270.655 88.884,271.81 88.884,273.014C88.883,273.015 88.883,273.016 88.883,273.016C88.883,276.889 85.739,280.033 81.867,280.033C77.994,280.033 74.85,276.889 74.85,273.016C74.85,269.144 77.994,266 81.867,266C81.868,266 81.868,266 81.869,266C83.073,266 84.228,265.522 85.08,264.67C85.313,264.437 85.554,264.196 85.787,263.963ZM81.867,269C84.084,269 85.883,270.8 85.883,273.016C85.883,275.233 84.084,277.033 81.867,277.033C79.65,277.033 77.85,275.233 77.85,273.016C77.85,270.8 79.65,269 81.867,269ZM94.133,256.734C96.35,256.734 98.15,258.533 98.15,260.75C98.15,262.967 96.35,264.767 94.133,264.767C91.916,264.767 90.117,262.967 90.117,260.75C90.117,258.533 91.916,256.734 94.133,256.734Z" style="fill:rgb(250,170,1);"/>
                <path d="M94.237,252.734L94.34,252.736L94.442,252.739L94.545,252.744L94.647,252.75L94.749,252.757L94.85,252.765L94.951,252.775L95.052,252.786L95.153,252.798L95.253,252.811L95.352,252.826L95.452,252.842L95.551,252.859L95.649,252.877L95.747,252.897L95.845,252.917L95.942,252.939L96.039,252.962L96.135,252.986L96.231,253.012L96.327,253.038L96.421,253.066L96.516,253.094L96.61,253.124L96.703,253.155L96.796,253.187L96.889,253.221L96.981,253.255L97.072,253.29L97.163,253.327L97.253,253.364L97.343,253.403L97.432,253.443L97.52,253.483L97.608,253.525L97.696,253.568L97.782,253.612L97.869,253.656L97.954,253.702L98.039,253.749L98.123,253.797L98.207,253.846L98.29,253.895L98.372,253.946L98.454,253.998L98.535,254.05L98.615,254.104L98.695,254.158L98.774,254.214L98.852,254.27L98.929,254.327L99.006,254.386L99.082,254.445L99.157,254.505L99.232,254.565L99.306,254.627L99.379,254.69L99.451,254.753L99.523,254.817L99.593,254.882L99.663,254.948L99.732,255.015L99.801,255.082L99.868,255.151L99.935,255.22L100.001,255.29L100.066,255.361L100.13,255.432L100.194,255.504L100.256,255.578L100.318,255.651L100.379,255.726L100.439,255.801L100.498,255.877L100.556,255.954L100.613,256.032L100.669,256.11L100.725,256.189L100.779,256.268L100.833,256.349L100.885,256.429L100.937,256.511L100.988,256.593L101.038,256.676L101.086,256.76L101.134,256.844L101.181,256.929L101.227,257.015L101.272,257.101L101.315,257.188L101.358,257.275L101.4,257.363L101.441,257.451L101.48,257.54L101.519,257.63L101.556,257.72L101.593,257.811L101.628,257.903L101.663,257.994L101.696,258.087L101.728,258.18L101.759,258.273L101.789,258.367L101.818,258.462L101.845,258.557L101.872,258.652L101.897,258.748L101.921,258.844L101.944,258.941L101.966,259.038L101.987,259.136L102.006,259.234L102.024,259.333L102.041,259.432L102.057,259.531L102.072,259.631L102.085,259.731L102.097,259.831L102.108,259.932L102.118,260.033L102.126,260.135L102.133,260.236L102.139,260.338L102.144,260.441L102.147,260.544L102.149,260.647L102.15,260.75L102.149,260.853L102.147,260.956L102.144,261.059L102.139,261.162L102.133,261.264L102.126,261.365L102.118,261.467L102.108,261.568L102.097,261.669L102.085,261.769L102.072,261.869L102.057,261.969L102.041,262.069L102.024,262.167L102.006,262.266L101.987,262.364L101.966,262.462L101.944,262.559L101.921,262.656L101.897,262.752L101.872,262.848L101.845,262.943L101.818,263.038L101.789,263.133L101.759,263.227L101.728,263.32L101.696,263.413L101.663,263.506L101.628,263.597L101.593,263.689L101.556,263.78L101.519,263.87L101.48,263.96L101.441,264.049L101.4,264.137L101.358,264.225L101.315,264.312L101.272,264.399L101.227,264.485L101.181,264.571L101.134,264.656L101.086,264.74L101.038,264.824L100.988,264.907L100.937,264.989L100.885,265.071L100.833,265.152L100.779,265.232L100.725,265.311L100.669,265.39L100.613,265.468L100.556,265.546L100.498,265.623L100.439,265.699L100.379,265.774L100.318,265.849L100.256,265.922L100.194,265.996L100.13,266.068L100.066,266.139L100.001,266.21L99.935,266.28L99.868,266.349L99.801,266.418L99.732,266.485L99.663,266.552L99.593,266.618L99.523,266.683L99.451,266.747L99.379,266.81L99.306,266.873L99.232,266.935L99.157,266.995L99.082,267.055L99.006,267.114L98.929,267.173L98.852,267.23L98.773,267.286L98.695,267.342L98.615,267.396L98.535,267.45L98.454,267.502L98.372,267.554L98.29,267.605L98.207,267.654L98.123,267.703L98.039,267.751L97.954,267.798L97.869,267.844L97.782,267.888L97.696,267.932L97.608,267.975L97.52,268.017L97.432,268.057L97.343,268.097L97.253,268.136L97.163,268.173L97.072,268.21L96.981,268.245L96.889,268.279L96.796,268.313L96.703,268.345L96.61,268.376L96.516,268.406L96.422,268.434L96.327,268.462L96.231,268.489L96.135,268.514L96.039,268.538L95.942,268.561L95.845,268.583L95.747,268.604L95.649,268.623L95.551,268.641L95.452,268.658L95.352,268.674L95.253,268.689L95.153,268.702L95.052,268.714L94.951,268.725L94.85,268.735L94.749,268.743L94.647,268.75L94.545,268.756L94.442,268.761L94.34,268.764L94.237,268.766L94.136,268.767L94.137,268.767L94.043,268.768L93.955,268.771L93.868,268.776L93.781,268.784L93.694,268.794L93.608,268.805L93.522,268.819L93.437,268.835L93.352,268.853L93.268,268.873L93.184,268.895L93.101,268.92L93.019,268.946L92.937,268.974L92.856,269.004L92.776,269.036L92.697,269.07L92.618,269.106L92.54,269.144L92.464,269.184L92.388,269.225L92.313,269.269L92.239,269.314L92.167,269.361L92.095,269.41L92.025,269.461L91.955,269.514L91.887,269.568L91.82,269.624L91.755,269.682L91.69,269.742L91.623,269.808L90.925,270.506L90.859,270.573L90.799,270.638L90.741,270.703L90.685,270.77L90.631,270.838L90.578,270.908L90.527,270.978L90.478,271.05L90.431,271.122L90.386,271.196L90.342,271.271L90.301,271.347L90.261,271.424L90.223,271.501L90.187,271.58L90.153,271.659L90.121,271.739L90.091,271.82L90.063,271.902L90.037,271.984L90.013,272.067L89.991,272.151L89.971,272.235L89.953,272.32L89.937,272.405L89.923,272.491L89.911,272.577L89.902,272.664L89.894,272.751L89.889,272.838L89.885,272.926L89.884,273.026L89.879,273.107L89.883,273.069L89.883,273.12L89.881,273.223L89.877,273.326L89.873,273.428L89.867,273.53L89.86,273.632L89.852,273.733L89.842,273.835L89.831,273.935L89.819,274.036L89.805,274.136L89.791,274.236L89.775,274.335L89.758,274.434L89.74,274.532L89.72,274.63L89.7,274.728L89.678,274.825L89.655,274.922L89.631,275.019L89.605,275.114L89.579,275.21L89.551,275.305L89.522,275.399L89.493,275.493L89.462,275.587L89.429,275.68L89.396,275.772L89.362,275.864L89.326,275.955L89.29,276.046L89.252,276.136L89.214,276.226L89.174,276.315L89.133,276.404L89.092,276.492L89.049,276.579L89.005,276.666L88.96,276.752L88.914,276.837L88.868,276.922L88.82,277.006L88.771,277.09L88.721,277.173L88.671,277.255L88.619,277.337L88.566,277.418L88.513,277.498L88.458,277.578L88.403,277.657L88.347,277.735L88.289,277.812L88.231,277.889L88.172,277.965L88.112,278.041L88.051,278.115L87.99,278.189L87.927,278.262L87.864,278.334L87.8,278.406L87.735,278.477L87.669,278.546L87.602,278.616L87.534,278.684L87.466,278.752L87.397,278.818L87.327,278.884L87.256,278.949L87.185,279.013L87.112,279.077L87.039,279.139L86.965,279.201L86.891,279.262L86.816,279.322L86.739,279.381L86.663,279.439L86.585,279.496L86.507,279.553L86.428,279.608L86.349,279.662L86.268,279.716L86.187,279.769L86.106,279.82L86.023,279.871L85.94,279.921L85.857,279.97L85.773,280.017L85.688,280.064L85.602,280.11L85.516,280.155L85.429,280.199L85.342,280.241L85.254,280.283L85.165,280.324L85.076,280.364L84.987,280.402L84.896,280.44L84.806,280.476L84.714,280.512L84.622,280.546L84.53,280.579L84.437,280.611L84.344,280.642L84.25,280.672L84.155,280.701L84.06,280.729L83.965,280.755L83.869,280.78L83.772,280.805L83.676,280.827L83.578,280.849L83.481,280.87L83.383,280.889L83.284,280.908L83.185,280.925L83.086,280.941L82.986,280.955L82.886,280.969L82.786,280.981L82.685,280.992L82.584,281.001L82.482,281.01L82.38,281.017L82.278,281.023L82.176,281.027L82.073,281.03L81.97,281.032L81.867,281.033L81.764,281.032L81.66,281.03L81.558,281.027L81.455,281.023L81.353,281.017L81.251,281.01L81.15,281.001L81.049,280.992L80.948,280.981L80.847,280.969L80.747,280.955L80.648,280.941L80.548,280.925L80.449,280.908L80.351,280.889L80.253,280.87L80.155,280.849L80.058,280.827L79.961,280.805L79.865,280.78L79.769,280.755L79.673,280.729L79.579,280.701L79.484,280.672L79.39,280.642L79.297,280.611L79.204,280.579L79.111,280.546L79.019,280.512L78.928,280.476L78.837,280.44L78.747,280.402L78.657,280.364L78.568,280.324L78.48,280.283L78.392,280.241L78.304,280.199L78.218,280.155L78.131,280.11L78.046,280.064L77.961,280.017L77.877,279.97L77.793,279.921L77.71,279.871L77.628,279.82L77.546,279.769L77.465,279.716L77.385,279.662L77.305,279.608L77.226,279.553L77.148,279.496L77.071,279.439L76.994,279.381L76.918,279.322L76.843,279.262L76.768,279.201L76.694,279.139L76.621,279.077L76.549,279.013L76.477,278.949L76.407,278.884L76.337,278.818L76.268,278.752L76.199,278.684L76.132,278.616L76.065,278.546L75.999,278.477L75.934,278.406L75.87,278.334L75.806,278.262L75.744,278.189L75.682,278.115L75.621,278.041L75.561,277.965L75.502,277.889L75.444,277.812L75.387,277.735L75.331,277.657L75.275,277.578L75.221,277.498L75.167,277.418L75.115,277.337L75.063,277.255L75.012,277.173L74.962,277.09L74.914,277.006L74.866,276.922L74.819,276.837L74.773,276.752L74.728,276.666L74.685,276.579L74.642,276.492L74.6,276.404L74.559,276.315L74.52,276.226L74.481,276.136L74.444,276.046L74.407,275.955L74.372,275.864L74.337,275.772L74.304,275.68L74.272,275.587L74.241,275.493L74.211,275.399L74.182,275.305L74.155,275.21L74.128,275.114L74.103,275.019L74.079,274.922L74.056,274.825L74.034,274.728L74.013,274.63L73.994,274.532L73.976,274.434L73.959,274.335L73.943,274.236L73.928,274.136L73.915,274.036L73.903,273.935L73.892,273.835L73.882,273.733L73.874,273.632L73.867,273.53L73.861,273.428L73.856,273.326L73.853,273.223L73.851,273.12L73.85,273.016L73.851,272.913L73.853,272.81L73.856,272.707L73.861,272.605L73.867,272.503L73.874,272.401L73.882,272.299L73.892,272.198L73.903,272.098L73.915,271.997L73.928,271.897L73.943,271.797L73.959,271.698L73.976,271.599L73.994,271.501L74.013,271.402L74.034,271.305L74.056,271.208L74.079,271.111L74.103,271.014L74.128,270.919L74.155,270.823L74.182,270.728L74.211,270.634L74.241,270.54L74.272,270.446L74.304,270.353L74.337,270.261L74.372,270.169L74.407,270.078L74.444,269.987L74.481,269.897L74.52,269.807L74.559,269.718L74.6,269.629L74.642,269.541L74.685,269.454L74.728,269.367L74.773,269.281L74.819,269.196L74.866,269.111L74.914,269.026L74.962,268.943L75.012,268.86L75.063,268.778L75.115,268.696L75.167,268.615L75.221,268.535L75.275,268.455L75.331,268.376L75.387,268.298L75.444,268.221L75.502,268.144L75.561,268.068L75.621,267.992L75.682,267.918L75.744,267.844L75.806,267.771L75.87,267.699L75.934,267.627L75.999,267.556L76.065,267.486L76.132,267.417L76.199,267.349L76.268,267.281L76.337,267.215L76.407,267.149L76.477,267.084L76.549,267.019L76.621,266.956L76.694,266.893L76.768,266.832L76.843,266.771L76.918,266.711L76.994,266.652L77.071,266.594L77.148,266.537L77.227,266.48L77.305,266.425L77.385,266.37L77.465,266.317L77.546,266.264L77.628,266.213L77.71,266.162L77.793,266.112L77.877,266.063L77.961,266.016L78.046,265.969L78.131,265.923L78.218,265.878L78.304,265.834L78.392,265.792L78.48,265.75L78.568,265.709L78.657,265.669L78.747,265.631L78.837,265.593L78.928,265.557L79.019,265.521L79.111,265.487L79.204,265.454L79.297,265.422L79.39,265.391L79.484,265.361L79.578,265.332L79.673,265.304L79.769,265.278L79.865,265.253L79.961,265.228L80.058,265.205L80.155,265.184L80.253,265.163L80.351,265.144L80.449,265.125L80.548,265.108L80.648,265.092L80.747,265.078L80.847,265.064L80.948,265.052L81.049,265.041L81.15,265.032L81.251,265.023L81.353,265.016L81.455,265.01L81.558,265.006L81.66,265.003L81.763,265.001L81.864,265L81.863,265L81.957,264.999L82.045,264.996L82.132,264.99L82.219,264.983L82.306,264.973L82.392,264.961L82.478,264.947L82.563,264.931L82.648,264.913L82.732,264.893L82.816,264.871L82.899,264.847L82.981,264.821L83.063,264.793L83.144,264.763L83.224,264.73L83.303,264.697L83.382,264.661L83.46,264.623L83.536,264.583L83.612,264.541L83.687,264.498L83.761,264.452L83.833,264.405L83.905,264.356L83.975,264.305L84.045,264.253L84.113,264.198L84.18,264.142L84.245,264.084L84.31,264.025L84.377,263.959L85.075,263.26L85.141,263.193L85.201,263.129L85.259,263.063L85.315,262.996L85.369,262.928L85.422,262.859L85.473,262.788L85.522,262.717L85.569,262.644L85.614,262.57L85.658,262.496L85.699,262.42L85.739,262.343L85.777,262.265L85.813,262.187L85.847,262.107L85.879,262.027L85.909,261.946L85.937,261.865L85.963,261.782L85.987,261.699L86.009,261.616L86.029,261.531L86.047,261.447L86.063,261.361L86.077,261.276L86.089,261.189L86.098,261.103L86.106,261.016L86.111,260.928L86.115,260.841L86.116,260.74L86.121,260.66L86.117,260.697L86.117,260.647L86.119,260.544L86.123,260.441L86.127,260.338L86.133,260.236L86.14,260.135L86.148,260.033L86.158,259.932L86.169,259.831L86.181,259.731L86.195,259.631L86.209,259.531L86.225,259.432L86.242,259.333L86.26,259.234L86.28,259.136L86.3,259.038L86.322,258.941L86.345,258.844L86.369,258.748L86.395,258.652L86.421,258.557L86.449,258.462L86.478,258.367L86.507,258.273L86.538,258.18L86.571,258.087L86.604,257.995L86.638,257.903L86.674,257.811L86.71,257.72L86.748,257.63L86.786,257.54L86.826,257.451L86.867,257.363L86.908,257.275L86.951,257.188L86.995,257.101L87.04,257.015L87.086,256.929L87.132,256.844L87.18,256.76L87.229,256.676L87.279,256.593L87.329,256.511L87.381,256.429L87.434,256.349L87.487,256.268L87.542,256.189L87.597,256.11L87.653,256.032L87.711,255.954L87.769,255.877L87.828,255.801L87.888,255.726L87.949,255.651L88.01,255.578L88.073,255.505L88.136,255.432L88.2,255.361L88.265,255.29L88.331,255.22L88.398,255.151L88.466,255.083L88.534,255.015L88.603,254.948L88.673,254.882L88.744,254.817L88.815,254.753L88.888,254.69L88.961,254.627L89.035,254.565L89.109,254.505L89.184,254.445L89.26,254.386L89.337,254.327L89.415,254.27L89.493,254.214L89.572,254.158L89.651,254.104L89.732,254.05L89.813,253.998L89.894,253.946L89.977,253.895L90.06,253.846L90.143,253.797L90.227,253.749L90.312,253.702L90.398,253.656L90.484,253.612L90.571,253.568L90.658,253.525L90.746,253.483L90.835,253.443L90.924,253.403L91.013,253.364L91.104,253.327L91.194,253.29L91.286,253.255L91.378,253.221L91.47,253.187L91.563,253.155L91.656,253.124L91.75,253.094L91.845,253.066L91.94,253.038L92.035,253.012L92.131,252.986L92.228,252.962L92.324,252.939L92.422,252.917L92.519,252.897L92.617,252.877L92.716,252.859L92.815,252.842L92.914,252.826L93.014,252.811L93.114,252.798L93.214,252.786L93.315,252.775L93.416,252.765L93.518,252.757L93.62,252.75L93.722,252.744L93.824,252.739L93.927,252.736L94.03,252.734L94.133,252.734L94.237,252.734ZM94.043,253.734L93.952,253.736L93.862,253.739L93.772,253.743L93.683,253.748L93.594,253.754L93.505,253.761L93.416,253.77L93.328,253.779L93.24,253.79L93.153,253.802L93.065,253.814L92.978,253.828L92.892,253.843L92.806,253.859L92.72,253.876L92.634,253.894L92.549,253.913L92.465,253.933L92.381,253.955L92.297,253.977L92.213,254L92.13,254.024L92.048,254.049L91.966,254.075L91.884,254.102L91.803,254.131L91.722,254.16L91.641,254.19L91.562,254.221L91.482,254.252L91.403,254.285L91.325,254.319L91.247,254.354L91.169,254.389L91.092,254.426L91.016,254.463L90.94,254.502L90.865,254.541L90.79,254.581L90.716,254.622L90.642,254.664L90.569,254.706L90.496,254.75L90.424,254.794L90.353,254.84L90.282,254.886L90.211,254.933L90.142,254.98L90.073,255.029L90.004,255.078L89.936,255.128L89.869,255.179L89.802,255.231L89.736,255.283L89.671,255.337L89.607,255.391L89.543,255.445L89.479,255.501L89.417,255.557L89.355,255.614L89.293,255.672L89.233,255.73L89.173,255.79L89.114,255.849L89.055,255.91L88.997,255.971L88.94,256.033L88.884,256.096L88.829,256.159L88.774,256.223L88.72,256.288L88.667,256.353L88.614,256.419L88.562,256.486L88.511,256.553L88.461,256.621L88.412,256.689L88.363,256.758L88.316,256.828L88.269,256.898L88.223,256.969L88.178,257.041L88.133,257.113L88.09,257.186L88.047,257.259L88.005,257.332L87.964,257.407L87.924,257.482L87.885,257.557L87.847,257.633L87.809,257.709L87.773,257.786L87.737,257.864L87.702,257.942L87.669,258.02L87.636,258.099L87.604,258.178L87.573,258.258L87.543,258.339L87.514,258.419L87.486,258.501L87.459,258.582L87.432,258.665L87.407,258.747L87.383,258.83L87.36,258.914L87.338,258.997L87.317,259.082L87.297,259.166L87.277,259.251L87.259,259.337L87.242,259.423L87.226,259.509L87.212,259.595L87.198,259.682L87.185,259.769L87.173,259.857L87.163,259.945L87.153,260.033L87.145,260.122L87.137,260.211L87.131,260.3L87.126,260.389L87.122,260.479L87.119,260.569L87.117,260.659L87.117,260.75L87.117,260.751L87.116,260.752L87.114,260.865L87.11,260.978L87.103,261.09L87.094,261.201L87.081,261.312L87.066,261.423L87.048,261.533L87.028,261.642L87.005,261.751L86.979,261.859L86.951,261.966L86.92,262.073L86.886,262.179L86.85,262.283L86.812,262.387L86.771,262.49L86.727,262.592L86.681,262.692L86.633,262.792L86.582,262.89L86.528,262.988L86.472,263.084L86.414,263.178L86.354,263.271L86.291,263.363L86.226,263.454L86.158,263.543L86.089,263.63L86.016,263.716L85.942,263.8L85.866,263.882L85.787,263.963L85.08,264.67L84.999,264.749L84.917,264.826L84.832,264.9L84.747,264.972L84.659,265.042L84.57,265.109L84.48,265.174L84.388,265.237L84.295,265.298L84.2,265.356L84.104,265.412L84.007,265.465L83.909,265.516L83.809,265.565L83.709,265.611L83.607,265.654L83.504,265.696L83.4,265.734L83.295,265.77L83.19,265.804L83.083,265.835L82.976,265.863L82.868,265.889L82.759,265.912L82.65,265.932L82.54,265.95L82.429,265.965L82.318,265.978L82.206,265.987L82.094,265.994L81.982,265.999L81.869,266L81.867,266L81.776,266.001L81.686,266.002L81.596,266.005L81.506,266.009L81.416,266.014L81.327,266.02L81.238,266.028L81.15,266.036L81.062,266.046L80.974,266.056L80.886,266.068L80.799,266.081L80.712,266.095L80.625,266.11L80.539,266.126L80.453,266.143L80.368,266.161L80.283,266.18L80.198,266.2L80.114,266.221L80.03,266.243L79.947,266.266L79.864,266.291L79.781,266.316L79.699,266.342L79.617,266.369L79.536,266.397L79.455,266.426L79.375,266.456L79.295,266.487L79.216,266.519L79.137,266.552L79.058,266.586L78.98,266.62L78.903,266.656L78.826,266.692L78.75,266.73L78.674,266.768L78.598,266.807L78.523,266.847L78.449,266.888L78.375,266.93L78.302,266.973L78.23,267.016L78.158,267.061L78.086,267.106L78.015,267.152L77.945,267.199L77.875,267.247L77.806,267.295L77.738,267.345L77.67,267.395L77.603,267.446L77.536,267.497L77.47,267.55L77.405,267.603L77.34,267.657L77.276,267.712L77.213,267.767L77.15,267.824L77.088,267.881L77.027,267.938L76.966,267.997L76.906,268.056L76.847,268.116L76.789,268.177L76.731,268.238L76.674,268.3L76.618,268.362L76.562,268.426L76.507,268.49L76.453,268.554L76.4,268.62L76.348,268.686L76.296,268.752L76.245,268.82L76.195,268.887L76.146,268.956L76.097,269.025L76.049,269.095L76.002,269.165L75.956,269.236L75.911,269.307L75.867,269.379L75.823,269.452L75.78,269.525L75.739,269.599L75.698,269.673L75.658,269.748L75.618,269.823L75.58,269.899L75.543,269.976L75.506,270.053L75.471,270.13L75.436,270.208L75.402,270.286L75.369,270.365L75.337,270.445L75.306,270.525L75.276,270.605L75.247,270.686L75.219,270.767L75.192,270.849L75.166,270.931L75.141,271.014L75.117,271.097L75.094,271.18L75.071,271.264L75.05,271.348L75.03,271.433L75.011,271.518L74.993,271.603L74.976,271.689L74.96,271.775L74.945,271.862L74.931,271.949L74.918,272.036L74.907,272.123L74.896,272.211L74.887,272.3L74.878,272.388L74.871,272.477L74.865,272.566L74.859,272.656L74.855,272.745L74.853,272.835L74.851,272.926L74.85,273.016L74.851,273.107L74.853,273.197L74.855,273.288L74.859,273.377L74.865,273.467L74.871,273.556L74.878,273.645L74.887,273.733L74.896,273.822L74.907,273.91L74.918,273.997L74.931,274.084L74.945,274.171L74.96,274.258L74.976,274.344L74.993,274.43L75.011,274.515L75.03,274.6L75.05,274.685L75.071,274.769L75.094,274.853L75.117,274.936L75.141,275.019L75.166,275.102L75.192,275.184L75.219,275.266L75.247,275.347L75.276,275.428L75.306,275.508L75.337,275.588L75.369,275.668L75.402,275.747L75.436,275.825L75.471,275.903L75.506,275.98L75.543,276.057L75.58,276.134L75.618,276.21L75.658,276.285L75.698,276.36L75.739,276.434L75.78,276.508L75.823,276.581L75.867,276.654L75.911,276.726L75.956,276.797L76.002,276.868L76.049,276.938L76.097,277.008L76.146,277.077L76.195,277.146L76.245,277.213L76.296,277.281L76.348,277.347L76.4,277.413L76.453,277.479L76.507,277.543L76.562,277.607L76.618,277.671L76.674,277.733L76.731,277.795L76.789,277.856L76.847,277.917L76.906,277.977L76.966,278.036L77.027,278.095L77.088,278.152L77.15,278.209L77.213,278.266L77.276,278.321L77.34,278.376L77.405,278.43L77.47,278.483L77.536,278.536L77.603,278.587L77.67,278.638L77.738,278.688L77.806,278.738L77.875,278.786L77.945,278.834L78.015,278.881L78.086,278.927L78.158,278.972L78.23,279.017L78.302,279.06L78.375,279.103L78.449,279.145L78.523,279.186L78.598,279.226L78.674,279.265L78.75,279.303L78.826,279.341L78.903,279.377L78.98,279.413L79.058,279.447L79.137,279.481L79.216,279.514L79.295,279.546L79.375,279.577L79.455,279.607L79.536,279.636L79.617,279.664L79.699,279.691L79.781,279.717L79.864,279.742L79.947,279.767L80.03,279.79L80.114,279.812L80.198,279.833L80.283,279.853L80.368,279.872L80.453,279.89L80.539,279.907L80.625,279.923L80.712,279.938L80.799,279.952L80.886,279.965L80.974,279.977L81.062,279.987L81.15,279.997L81.238,280.005L81.327,280.012L81.416,280.019L81.506,280.024L81.596,280.028L81.686,280.031L81.776,280.032L81.867,280.033L81.957,280.032L82.048,280.031L82.138,280.028L82.228,280.024L82.317,280.019L82.406,280.012L82.495,280.005L82.584,279.997L82.672,279.987L82.76,279.977L82.847,279.965L82.935,279.952L83.022,279.938L83.108,279.923L83.194,279.907L83.28,279.89L83.366,279.872L83.451,279.853L83.535,279.833L83.619,279.812L83.703,279.79L83.787,279.767L83.87,279.742L83.952,279.717L84.034,279.691L84.116,279.664L84.197,279.636L84.278,279.607L84.359,279.577L84.438,279.546L84.518,279.514L84.597,279.481L84.675,279.447L84.753,279.413L84.831,279.377L84.908,279.341L84.984,279.303L85.06,279.265L85.135,279.226L85.21,279.186L85.284,279.145L85.358,279.103L85.431,279.06L85.504,279.017L85.576,278.972L85.647,278.927L85.718,278.881L85.789,278.834L85.858,278.786L85.927,278.738L85.996,278.688L86.064,278.638L86.131,278.587L86.198,278.536L86.264,278.483L86.329,278.43L86.393,278.376L86.457,278.321L86.521,278.266L86.583,278.209L86.645,278.152L86.707,278.095L86.767,278.036L86.827,277.977L86.886,277.917L86.945,277.856L87.003,277.795L87.06,277.733L87.116,277.671L87.171,277.607L87.226,277.543L87.28,277.479L87.333,277.413L87.386,277.347L87.438,277.281L87.489,277.213L87.539,277.146L87.588,277.077L87.637,277.008L87.684,276.938L87.731,276.868L87.777,276.797L87.822,276.726L87.867,276.654L87.91,276.581L87.953,276.508L87.995,276.434L88.036,276.36L88.076,276.285L88.115,276.21L88.153,276.134L88.191,276.057L88.227,275.98L88.263,275.903L88.298,275.825L88.331,275.747L88.364,275.668L88.396,275.588L88.427,275.508L88.457,275.428L88.486,275.347L88.514,275.266L88.541,275.184L88.568,275.102L88.593,275.019L88.617,274.936L88.64,274.853L88.662,274.769L88.683,274.685L88.703,274.6L88.723,274.515L88.741,274.43L88.758,274.344L88.774,274.258L88.788,274.171L88.802,274.084L88.815,273.997L88.827,273.91L88.837,273.822L88.847,273.733L88.855,273.645L88.863,273.556L88.869,273.467L88.874,273.377L88.878,273.288L88.881,273.197L88.883,273.107L88.883,273.016L88.883,273.015L88.884,273.014L88.886,272.901L88.89,272.789L88.897,272.677L88.906,272.565L88.919,272.454L88.934,272.344L88.952,272.234L88.972,272.124L88.995,272.015L89.021,271.907L89.049,271.8L89.08,271.694L89.114,271.588L89.15,271.483L89.188,271.379L89.229,271.277L89.273,271.175L89.319,271.074L89.367,270.975L89.418,270.876L89.472,270.779L89.528,270.683L89.586,270.588L89.646,270.495L89.709,270.403L89.774,270.313L89.842,270.224L89.911,270.137L89.984,270.051L90.058,269.967L90.134,269.884L90.213,269.804L90.92,269.096L91.001,269.018L91.083,268.941L91.168,268.867L91.253,268.795L91.341,268.725L91.43,268.657L91.52,268.592L91.612,268.529L91.705,268.469L91.8,268.411L91.896,268.355L91.993,268.301L92.091,268.25L92.191,268.202L92.291,268.156L92.393,268.112L92.496,268.071L92.6,268.032L92.705,267.996L92.81,267.963L92.917,267.932L93.024,267.903L93.132,267.878L93.241,267.855L93.35,267.834L93.46,267.816L93.571,267.801L93.682,267.789L93.794,267.779L93.906,267.772L94.018,267.768L94.131,267.767L94.133,267.767L94.224,267.766L94.314,267.764L94.404,267.761L94.494,267.757L94.584,267.752L94.673,267.746L94.762,267.739L94.85,267.73L94.938,267.721L95.026,267.71L95.114,267.698L95.201,267.686L95.288,267.672L95.375,267.657L95.461,267.641L95.547,267.624L95.632,267.606L95.717,267.587L95.802,267.567L95.886,267.545L95.97,267.523L96.053,267.5L96.136,267.476L96.219,267.451L96.301,267.425L96.383,267.398L96.464,267.37L96.545,267.34L96.625,267.31L96.705,267.279L96.784,267.248L96.863,267.215L96.942,267.181L97.02,267.146L97.097,267.111L97.174,267.074L97.25,267.037L97.326,266.998L97.402,266.959L97.477,266.919L97.551,266.878L97.625,266.836L97.698,266.794L97.77,266.75L97.842,266.706L97.914,266.66L97.985,266.614L98.055,266.568L98.125,266.52L98.194,266.471L98.262,266.422L98.33,266.372L98.397,266.321L98.464,266.269L98.53,266.217L98.595,266.163L98.66,266.109L98.724,266.055L98.787,265.999L98.85,265.943L98.912,265.886L98.973,265.828L99.034,265.77L99.094,265.71L99.153,265.651L99.211,265.59L99.269,265.529L99.326,265.467L99.382,265.404L99.438,265.341L99.493,265.277L99.547,265.212L99.6,265.147L99.652,265.081L99.704,265.014L99.755,264.947L99.805,264.879L99.854,264.811L99.903,264.742L99.951,264.672L99.998,264.602L100.044,264.531L100.089,264.459L100.133,264.387L100.177,264.315L100.22,264.241L100.261,264.168L100.302,264.093L100.342,264.019L100.382,263.943L100.42,263.867L100.457,263.791L100.494,263.714L100.529,263.636L100.564,263.559L100.598,263.48L100.631,263.401L100.663,263.322L100.694,263.242L100.724,263.161L100.753,263.081L100.781,262.999L100.808,262.918L100.834,262.836L100.859,262.753L100.883,262.67L100.906,262.587L100.929,262.503L100.95,262.418L100.97,262.334L100.989,262.249L101.007,262.163L101.024,262.078L101.04,261.991L101.055,261.905L101.069,261.818L101.082,261.731L101.093,261.643L101.104,261.555L101.113,261.467L101.122,261.378L101.129,261.29L101.135,261.2L101.141,261.111L101.145,261.021L101.147,260.931L101.149,260.841L101.15,260.75L101.149,260.659L101.147,260.569L101.145,260.479L101.141,260.389L101.135,260.3L101.129,260.211L101.122,260.122L101.113,260.033L101.104,259.945L101.093,259.857L101.082,259.769L101.069,259.682L101.055,259.595L101.04,259.509L101.024,259.423L101.007,259.337L100.989,259.251L100.97,259.166L100.95,259.082L100.929,258.997L100.906,258.914L100.883,258.83L100.859,258.747L100.834,258.665L100.808,258.582L100.781,258.501L100.753,258.419L100.724,258.339L100.694,258.258L100.663,258.178L100.631,258.099L100.598,258.02L100.564,257.942L100.529,257.864L100.494,257.786L100.457,257.709L100.42,257.633L100.382,257.557L100.342,257.482L100.302,257.407L100.261,257.332L100.22,257.259L100.177,257.186L100.133,257.113L100.089,257.041L100.044,256.969L99.998,256.898L99.951,256.828L99.903,256.758L99.854,256.689L99.805,256.621L99.755,256.553L99.704,256.486L99.652,256.419L99.6,256.353L99.547,256.288L99.493,256.223L99.438,256.159L99.382,256.096L99.326,256.033L99.269,255.971L99.211,255.91L99.153,255.849L99.094,255.79L99.034,255.73L98.973,255.672L98.912,255.614L98.85,255.557L98.787,255.501L98.724,255.445L98.66,255.391L98.595,255.337L98.53,255.283L98.464,255.231L98.397,255.179L98.33,255.128L98.262,255.078L98.194,255.029L98.125,254.98L98.055,254.933L97.985,254.886L97.914,254.84L97.842,254.794L97.77,254.75L97.698,254.706L97.625,254.664L97.551,254.622L97.477,254.581L97.402,254.541L97.326,254.502L97.25,254.463L97.174,254.426L97.097,254.389L97.02,254.354L96.942,254.319L96.863,254.285L96.784,254.252L96.705,254.221L96.625,254.19L96.545,254.16L96.464,254.131L96.383,254.102L96.301,254.075L96.219,254.049L96.136,254.024L96.053,254L95.97,253.977L95.886,253.955L95.802,253.933L95.717,253.913L95.632,253.894L95.547,253.876L95.461,253.859L95.375,253.843L95.288,253.828L95.201,253.814L95.114,253.802L95.026,253.79L94.938,253.779L94.85,253.77L94.762,253.761L94.673,253.754L94.584,253.748L94.494,253.743L94.404,253.739L94.314,253.736L94.224,253.734L94.133,253.734L94.043,253.734ZM81.97,269.001L82.073,269.005L82.176,269.012L82.277,269.021L82.378,269.032L82.478,269.046L82.577,269.063L82.676,269.082L82.773,269.103L82.87,269.127L82.966,269.152L83.061,269.181L83.154,269.211L83.247,269.244L83.339,269.279L83.43,269.316L83.519,269.355L83.607,269.396L83.695,269.44L83.781,269.485L83.865,269.532L83.949,269.582L84.031,269.633L84.112,269.686L84.191,269.741L84.269,269.798L84.346,269.857L84.421,269.918L84.495,269.98L84.567,270.044L84.637,270.11L84.706,270.177L84.774,270.246L84.839,270.316L84.903,270.389L84.966,270.462L85.026,270.537L85.085,270.614L85.142,270.692L85.197,270.771L85.25,270.852L85.301,270.934L85.351,271.018L85.398,271.103L85.444,271.189L85.487,271.276L85.528,271.364L85.567,271.454L85.604,271.544L85.639,271.636L85.672,271.729L85.703,271.823L85.731,271.917L85.757,272.013L85.78,272.11L85.802,272.207L85.82,272.306L85.837,272.405L85.851,272.505L85.862,272.606L85.872,272.708L85.878,272.81L85.882,272.913L85.883,273.016L85.882,273.12L85.878,273.223L85.872,273.325L85.862,273.427L85.851,273.528L85.837,273.628L85.82,273.727L85.802,273.826L85.78,273.923L85.757,274.02L85.731,274.116L85.703,274.21L85.672,274.304L85.639,274.397L85.604,274.489L85.567,274.579L85.528,274.669L85.487,274.757L85.444,274.844L85.398,274.93L85.351,275.015L85.301,275.099L85.25,275.181L85.197,275.261L85.142,275.341L85.085,275.419L85.026,275.496L84.966,275.571L84.903,275.644L84.839,275.716L84.774,275.787L84.706,275.856L84.637,275.923L84.567,275.989L84.495,276.053L84.421,276.115L84.346,276.176L84.269,276.235L84.191,276.292L84.112,276.347L84.031,276.4L83.949,276.451L83.865,276.5L83.781,276.548L83.695,276.593L83.607,276.637L83.519,276.678L83.43,276.717L83.339,276.754L83.247,276.789L83.154,276.822L83.061,276.852L82.966,276.88L82.87,276.906L82.773,276.93L82.676,276.951L82.577,276.97L82.478,276.987L82.378,277.001L82.277,277.012L82.176,277.021L82.073,277.028L81.97,277.032L81.867,277.033L81.763,277.032L81.66,277.028L81.558,277.021L81.456,277.012L81.356,277.001L81.255,276.987L81.156,276.97L81.058,276.951L80.96,276.93L80.863,276.906L80.768,276.88L80.673,276.852L80.579,276.822L80.486,276.789L80.395,276.754L80.304,276.717L80.214,276.678L80.126,276.637L80.039,276.593L79.953,276.548L79.868,276.5L79.785,276.451L79.703,276.4L79.622,276.347L79.542,276.292L79.464,276.235L79.388,276.176L79.313,276.115L79.239,276.053L79.167,275.989L79.096,275.923L79.027,275.856L78.96,275.787L78.894,275.716L78.83,275.644L78.768,275.571L78.707,275.496L78.649,275.419L78.592,275.341L78.537,275.261L78.483,275.181L78.432,275.099L78.383,275.015L78.335,274.93L78.29,274.844L78.247,274.757L78.205,274.669L78.166,274.579L78.129,274.489L78.094,274.397L78.061,274.304L78.031,274.21L78.003,274.116L77.977,274.02L77.953,273.923L77.932,273.826L77.913,273.727L77.897,273.628L77.883,273.528L77.871,273.427L77.862,273.325L77.856,273.223L77.852,273.12L77.85,273.016L77.852,272.913L77.856,272.81L77.862,272.708L77.871,272.606L77.883,272.505L77.897,272.405L77.913,272.306L77.932,272.207L77.953,272.11L77.977,272.013L78.003,271.917L78.031,271.823L78.061,271.729L78.094,271.636L78.129,271.544L78.166,271.454L78.205,271.364L78.247,271.276L78.29,271.189L78.335,271.103L78.383,271.018L78.432,270.934L78.483,270.852L78.537,270.771L78.592,270.692L78.649,270.614L78.707,270.537L78.768,270.462L78.83,270.389L78.894,270.316L78.96,270.246L79.027,270.177L79.096,270.11L79.167,270.044L79.239,269.98L79.313,269.918L79.388,269.857L79.464,269.798L79.542,269.741L79.622,269.686L79.703,269.633L79.785,269.582L79.868,269.532L79.953,269.485L80.039,269.44L80.126,269.396L80.214,269.355L80.304,269.316L80.395,269.279L80.486,269.244L80.579,269.211L80.673,269.181L80.768,269.152L80.863,269.127L80.96,269.103L81.058,269.082L81.156,269.063L81.255,269.046L81.356,269.032L81.456,269.021L81.558,269.012L81.66,269.005L81.763,269.001L81.867,269L81.97,269.001ZM81.789,270.001L81.711,270.004L81.634,270.009L81.557,270.016L81.482,270.024L81.407,270.035L81.332,270.047L81.258,270.061L81.185,270.077L81.113,270.095L81.041,270.114L80.97,270.136L80.9,270.158L80.831,270.183L80.762,270.209L80.694,270.237L80.627,270.266L80.56,270.297L80.495,270.33L80.431,270.364L80.367,270.399L80.304,270.436L80.243,270.475L80.182,270.515L80.122,270.556L80.063,270.599L80.006,270.643L79.949,270.689L79.894,270.736L79.839,270.784L79.786,270.833L79.734,270.884L79.684,270.936L79.634,270.989L79.586,271.043L79.539,271.099L79.494,271.155L79.449,271.213L79.407,271.272L79.365,271.331L79.325,271.392L79.287,271.454L79.25,271.517L79.214,271.58L79.18,271.645L79.147,271.71L79.117,271.776L79.087,271.844L79.059,271.911L79.033,271.98L79.009,272.05L78.986,272.12L78.965,272.191L78.945,272.263L78.928,272.335L78.912,272.408L78.898,272.482L78.885,272.556L78.875,272.631L78.866,272.707L78.859,272.784L78.854,272.861L78.851,272.938L78.85,273.016L78.851,273.095L78.854,273.172L78.859,273.249L78.866,273.326L78.875,273.401L78.885,273.477L78.898,273.551L78.912,273.625L78.928,273.698L78.945,273.77L78.965,273.842L78.986,273.913L79.009,273.983L79.033,274.053L79.059,274.122L79.087,274.189L79.117,274.257L79.147,274.323L79.18,274.388L79.214,274.453L79.25,274.516L79.287,274.579L79.325,274.641L79.365,274.701L79.407,274.761L79.449,274.82L79.494,274.878L79.539,274.934L79.586,274.99L79.634,275.044L79.684,275.097L79.734,275.149L79.786,275.199L79.839,275.249L79.894,275.297L79.949,275.344L80.006,275.39L80.063,275.434L80.122,275.477L80.182,275.518L80.243,275.558L80.304,275.597L80.367,275.634L80.43,275.669L80.495,275.703L80.56,275.736L80.627,275.767L80.694,275.796L80.762,275.824L80.83,275.85L80.9,275.875L80.97,275.897L81.041,275.919L81.113,275.938L81.185,275.956L81.258,275.972L81.332,275.986L81.407,275.998L81.482,276.009L81.557,276.017L81.634,276.024L81.711,276.029L81.789,276.032L81.867,276.033L81.945,276.032L82.023,276.029L82.1,276.024L82.176,276.017L82.252,276.009L82.327,275.998L82.401,275.986L82.475,275.972L82.548,275.956L82.621,275.938L82.692,275.919L82.763,275.897L82.834,275.875L82.903,275.85L82.972,275.824L83.04,275.796L83.107,275.767L83.173,275.736L83.239,275.703L83.303,275.669L83.367,275.634L83.429,275.597L83.491,275.558L83.552,275.518L83.612,275.477L83.67,275.434L83.728,275.39L83.784,275.344L83.84,275.297L83.894,275.249L83.947,275.2L83.999,275.149L84.05,275.097L84.099,275.044L84.147,274.99L84.194,274.934L84.24,274.878L84.284,274.82L84.327,274.761L84.368,274.701L84.408,274.641L84.447,274.579L84.484,274.516L84.52,274.453L84.554,274.388L84.586,274.323L84.617,274.257L84.646,274.189L84.674,274.122L84.7,274.053L84.725,273.983L84.748,273.913L84.769,273.842L84.788,273.77L84.806,273.698L84.822,273.625L84.836,273.551L84.848,273.477L84.859,273.401L84.868,273.326L84.874,273.249L84.879,273.172L84.882,273.095L84.883,273.016L84.882,272.938L84.879,272.861L84.874,272.784L84.868,272.707L84.859,272.631L84.848,272.556L84.836,272.482L84.822,272.408L84.806,272.335L84.788,272.263L84.769,272.191L84.748,272.12L84.725,272.05L84.7,271.98L84.674,271.911L84.646,271.844L84.617,271.776L84.586,271.71L84.554,271.645L84.52,271.58L84.484,271.517L84.447,271.454L84.408,271.392L84.368,271.331L84.327,271.272L84.284,271.213L84.24,271.155L84.194,271.099L84.147,271.043L84.099,270.989L84.05,270.936L83.999,270.884L83.947,270.833L83.894,270.784L83.84,270.736L83.784,270.689L83.728,270.643L83.67,270.599L83.612,270.556L83.552,270.515L83.491,270.475L83.429,270.436L83.367,270.399L83.303,270.364L83.238,270.33L83.173,270.297L83.107,270.266L83.04,270.237L82.972,270.209L82.903,270.183L82.834,270.158L82.763,270.136L82.692,270.114L82.621,270.095L82.548,270.077L82.475,270.061L82.401,270.047L82.327,270.035L82.252,270.024L82.176,270.016L82.1,270.009L82.023,270.004L81.945,270.001L81.867,270L81.789,270.001ZM94.237,256.735L94.34,256.739L94.442,256.745L94.544,256.754L94.644,256.766L94.745,256.78L94.844,256.796L94.942,256.815L95.04,256.836L95.137,256.86L95.232,256.886L95.327,256.914L95.421,256.945L95.514,256.977L95.605,257.012L95.696,257.049L95.786,257.089L95.874,257.13L95.961,257.173L96.047,257.219L96.132,257.266L96.215,257.315L96.297,257.367L96.378,257.42L96.458,257.475L96.536,257.532L96.612,257.591L96.687,257.651L96.761,257.713L96.833,257.777L96.904,257.843L96.973,257.911L97.04,257.979L97.106,258.05L97.17,258.122L97.232,258.196L97.293,258.271L97.351,258.348L97.408,258.426L97.463,258.505L97.517,258.586L97.568,258.668L97.617,258.751L97.665,258.836L97.71,258.922L97.753,259.009L97.795,259.098L97.834,259.187L97.871,259.278L97.906,259.37L97.939,259.462L97.969,259.556L97.997,259.651L98.023,259.747L98.047,259.843L98.068,259.941L98.087,260.039L98.103,260.139L98.117,260.239L98.129,260.34L98.138,260.441L98.144,260.543L98.148,260.646L98.15,260.75L98.148,260.854L98.144,260.957L98.138,261.059L98.129,261.16L98.117,261.261L98.103,261.361L98.087,261.461L98.068,261.559L98.047,261.657L98.023,261.753L97.997,261.849L97.969,261.944L97.939,262.038L97.906,262.13L97.871,262.222L97.834,262.313L97.795,262.402L97.753,262.491L97.71,262.578L97.665,262.664L97.617,262.749L97.568,262.832L97.517,262.914L97.463,262.995L97.408,263.074L97.351,263.153L97.293,263.229L97.232,263.304L97.17,263.378L97.106,263.45L97.04,263.521L96.973,263.59L96.904,263.657L96.833,263.723L96.761,263.787L96.687,263.849L96.612,263.909L96.536,263.968L96.458,264.025L96.378,264.08L96.297,264.133L96.215,264.185L96.132,264.234L96.047,264.281L95.961,264.327L95.874,264.37L95.786,264.411L95.696,264.451L95.605,264.488L95.514,264.523L95.421,264.555L95.327,264.586L95.232,264.614L95.137,264.64L95.04,264.664L94.942,264.685L94.844,264.704L94.745,264.72L94.644,264.734L94.544,264.746L94.442,264.755L94.34,264.761L94.237,264.765L94.133,264.767L94.03,264.765L93.927,264.761L93.824,264.755L93.723,264.746L93.622,264.734L93.522,264.72L93.423,264.704L93.324,264.685L93.227,264.664L93.13,264.64L93.034,264.614L92.939,264.586L92.846,264.555L92.753,264.523L92.661,264.488L92.57,264.451L92.481,264.411L92.393,264.37L92.305,264.327L92.219,264.281L92.135,264.234L92.051,264.185L91.969,264.133L91.888,264.08L91.809,264.025L91.731,263.968L91.654,263.909L91.579,263.849L91.505,263.787L91.433,263.723L91.363,263.657L91.294,263.59L91.226,263.521L91.161,263.45L91.097,263.378L91.034,263.304L90.974,263.229L90.915,263.153L90.858,263.074L90.803,262.995L90.75,262.914L90.699,262.832L90.649,262.749L90.602,262.664L90.556,262.578L90.513,262.491L90.472,262.402L90.433,262.313L90.396,262.222L90.361,262.13L90.328,262.038L90.297,261.944L90.269,261.849L90.243,261.753L90.22,261.657L90.198,261.559L90.18,261.461L90.163,261.361L90.149,261.261L90.138,261.16L90.128,261.059L90.122,260.957L90.118,260.854L90.117,260.75L90.118,260.646L90.122,260.543L90.128,260.441L90.138,260.34L90.149,260.239L90.163,260.139L90.18,260.039L90.198,259.941L90.22,259.843L90.243,259.747L90.269,259.651L90.297,259.556L90.328,259.462L90.361,259.37L90.396,259.278L90.433,259.187L90.472,259.098L90.513,259.009L90.556,258.922L90.602,258.836L90.649,258.751L90.699,258.668L90.75,258.586L90.803,258.505L90.858,258.426L90.915,258.348L90.974,258.271L91.034,258.196L91.097,258.122L91.161,258.05L91.226,257.979L91.294,257.911L91.363,257.843L91.433,257.777L91.505,257.713L91.579,257.651L91.654,257.591L91.731,257.532L91.809,257.475L91.888,257.42L91.969,257.367L92.051,257.315L92.135,257.266L92.219,257.219L92.305,257.173L92.393,257.13L92.481,257.089L92.57,257.049L92.661,257.012L92.753,256.977L92.846,256.945L92.939,256.914L93.034,256.886L93.13,256.86L93.227,256.836L93.324,256.815L93.423,256.796L93.522,256.78L93.622,256.766L93.723,256.754L93.824,256.745L93.927,256.739L94.03,256.735L94.133,256.734L94.237,256.735ZM94.055,257.735L93.977,257.738L93.9,257.742L93.824,257.749L93.748,257.758L93.673,257.768L93.599,257.781L93.525,257.795L93.452,257.811L93.379,257.829L93.308,257.848L93.237,257.869L93.166,257.892L93.097,257.916L93.028,257.943L92.96,257.97L92.893,258L92.827,258.031L92.761,258.063L92.697,258.097L92.633,258.133L92.571,258.17L92.509,258.209L92.448,258.249L92.388,258.29L92.33,258.333L92.272,258.377L92.216,258.423L92.16,258.469L92.106,258.518L92.053,258.567L92.001,258.618L91.95,258.67L91.901,258.723L91.853,258.777L91.806,258.832L91.76,258.889L91.716,258.947L91.673,259.005L91.632,259.065L91.592,259.126L91.553,259.187L91.516,259.25L91.48,259.314L91.446,259.378L91.414,259.444L91.383,259.51L91.354,259.577L91.326,259.645L91.3,259.714L91.275,259.783L91.252,259.853L91.231,259.924L91.212,259.996L91.194,260.069L91.178,260.142L91.164,260.215L91.152,260.29L91.141,260.365L91.132,260.441L91.126,260.517L91.121,260.594L91.118,260.672L91.117,260.75L91.118,260.828L91.121,260.906L91.126,260.983L91.132,261.059L91.141,261.135L91.152,261.21L91.164,261.285L91.178,261.358L91.194,261.432L91.212,261.504L91.231,261.576L91.252,261.647L91.275,261.717L91.3,261.786L91.326,261.855L91.354,261.923L91.383,261.99L91.414,262.056L91.446,262.122L91.48,262.186L91.516,262.25L91.553,262.313L91.592,262.374L91.632,262.435L91.673,262.495L91.716,262.553L91.76,262.611L91.806,262.668L91.853,262.723L91.901,262.777L91.95,262.83L92.001,262.882L92.053,262.933L92.106,262.983L92.16,263.031L92.216,263.078L92.272,263.123L92.33,263.167L92.388,263.21L92.448,263.252L92.509,263.292L92.571,263.33L92.633,263.367L92.697,263.403L92.762,263.437L92.827,263.469L92.893,263.5L92.96,263.53L93.028,263.557L93.097,263.584L93.166,263.608L93.237,263.631L93.308,263.652L93.379,263.671L93.452,263.689L93.525,263.705L93.599,263.719L93.673,263.732L93.748,263.742L93.824,263.751L93.9,263.758L93.977,263.762L94.055,263.765L94.133,263.766L94.211,263.765L94.289,263.762L94.366,263.758L94.443,263.751L94.518,263.742L94.593,263.732L94.668,263.719L94.742,263.705L94.815,263.689L94.887,263.671L94.959,263.652L95.03,263.631L95.1,263.608L95.169,263.584L95.238,263.557L95.306,263.53L95.373,263.5L95.44,263.469L95.505,263.437L95.569,263.403L95.633,263.367L95.696,263.33L95.757,263.292L95.818,263.252L95.878,263.21L95.937,263.167L95.994,263.123L96.051,263.078L96.106,263.031L96.161,262.983L96.214,262.933L96.266,262.882L96.316,262.83L96.366,262.777L96.414,262.723L96.461,262.668L96.506,262.611L96.551,262.553L96.593,262.495L96.635,262.435L96.675,262.374L96.713,262.313L96.75,262.25L96.786,262.186L96.82,262.122L96.853,262.056L96.884,261.99L96.913,261.923L96.941,261.855L96.967,261.786L96.991,261.717L97.014,261.647L97.035,261.576L97.055,261.504L97.072,261.432L97.088,261.358L97.102,261.285L97.115,261.21L97.125,261.135L97.134,261.059L97.141,260.983L97.146,260.906L97.149,260.828L97.15,260.75L97.149,260.672L97.146,260.594L97.141,260.517L97.134,260.441L97.125,260.365L97.115,260.29L97.102,260.215L97.088,260.142L97.072,260.069L97.055,259.996L97.035,259.924L97.014,259.853L96.991,259.783L96.967,259.714L96.941,259.645L96.913,259.577L96.884,259.51L96.853,259.444L96.82,259.378L96.786,259.314L96.75,259.25L96.713,259.187L96.675,259.126L96.635,259.065L96.593,259.005L96.551,258.947L96.506,258.889L96.461,258.832L96.414,258.777L96.366,258.723L96.316,258.67L96.266,258.618L96.214,258.567L96.161,258.518L96.106,258.469L96.051,258.423L95.994,258.377L95.937,258.333L95.878,258.29L95.818,258.249L95.757,258.208L95.696,258.17L95.633,258.133L95.57,258.097L95.505,258.063L95.44,258.031L95.373,258L95.306,257.97L95.238,257.943L95.17,257.916L95.1,257.892L95.03,257.869L94.959,257.848L94.887,257.829L94.815,257.811L94.742,257.795L94.668,257.781L94.593,257.768L94.518,257.758L94.443,257.749L94.366,257.742L94.289,257.738L94.211,257.735L94.133,257.734L94.055,257.735Z" style="fill-opacity:0.25098;"/>
            </g>
            <g transform="matrix(1,0,0,1,-72,-251)">
                <path d="M81.867,270.767C83.109,270.767 84.117,271.775 84.117,273.016C84.117,274.258 83.109,275.266 81.867,275.266C80.625,275.266 79.617,274.258 79.617,273.016C79.617,271.775 80.625,270.767 81.867,270.767ZM94.133,258.5C95.375,258.5 96.383,259.508 96.383,260.75C96.383,261.992 95.375,263 94.133,263C92.891,263 91.883,261.992 91.883,260.75C91.883,259.508 92.891,258.5 94.133,258.5Z" style="fill:white;"/>
                <path d="M81.95,269.767L82.033,269.771L82.116,269.776L82.198,269.783L82.279,269.793L82.36,269.804L82.441,269.817L82.521,269.832L82.6,269.85L82.678,269.869L82.756,269.89L82.833,269.913L82.909,269.938L82.984,269.964L83.059,269.992L83.132,270.023L83.205,270.054L83.276,270.088L83.347,270.123L83.416,270.16L83.485,270.198L83.552,270.238L83.619,270.279L83.684,270.322L83.749,270.367L83.812,270.413L83.873,270.46L83.934,270.509L83.994,270.56L84.052,270.611L84.109,270.664L84.165,270.719L84.219,270.774L84.272,270.831L84.324,270.889L84.374,270.949L84.423,271.01L84.47,271.072L84.516,271.135L84.561,271.199L84.604,271.264L84.645,271.331L84.685,271.398L84.724,271.467L84.76,271.536L84.796,271.607L84.829,271.679L84.861,271.751L84.891,271.825L84.919,271.899L84.946,271.974L84.97,272.05L84.993,272.127L85.014,272.205L85.033,272.283L85.051,272.363L85.066,272.442L85.079,272.523L85.091,272.604L85.1,272.685L85.107,272.767L85.113,272.85L85.116,272.933L85.117,273.016L85.116,273.1L85.113,273.183L85.107,273.265L85.1,273.348L85.091,273.429L85.079,273.51L85.066,273.591L85.051,273.67L85.033,273.749L85.014,273.828L84.993,273.906L84.97,273.982L84.946,274.059L84.919,274.134L84.891,274.208L84.861,274.282L84.829,274.354L84.796,274.426L84.76,274.497L84.724,274.566L84.685,274.635L84.645,274.702L84.604,274.769L84.561,274.834L84.516,274.898L84.47,274.961L84.423,275.023L84.374,275.084L84.324,275.143L84.272,275.202L84.219,275.259L84.165,275.314L84.109,275.369L84.052,275.422L83.994,275.473L83.934,275.524L83.873,275.573L83.812,275.62L83.749,275.666L83.684,275.711L83.619,275.754L83.552,275.795L83.485,275.835L83.416,275.873L83.347,275.91L83.276,275.945L83.205,275.979L83.132,276.01L83.059,276.041L82.984,276.069L82.909,276.095L82.833,276.12L82.756,276.143L82.678,276.164L82.6,276.183L82.521,276.2L82.441,276.216L82.36,276.229L82.279,276.24L82.198,276.25L82.116,276.257L82.033,276.262L81.95,276.265L81.867,276.267L81.783,276.265L81.7,276.262L81.618,276.257L81.536,276.25L81.454,276.24L81.373,276.229L81.293,276.216L81.213,276.2L81.134,276.183L81.055,276.164L80.978,276.143L80.901,276.12L80.825,276.095L80.75,276.069L80.675,276.041L80.601,276.01L80.529,275.979L80.457,275.945L80.387,275.91L80.317,275.873L80.249,275.835L80.181,275.795L80.115,275.754L80.049,275.711L79.985,275.666L79.922,275.62L79.86,275.573L79.799,275.524L79.74,275.473L79.682,275.422L79.625,275.369L79.569,275.314L79.515,275.259L79.462,275.202L79.41,275.143L79.36,275.084L79.311,275.023L79.263,274.961L79.217,274.898L79.173,274.834L79.13,274.769L79.088,274.702L79.048,274.635L79.01,274.566L78.973,274.496L78.938,274.426L78.905,274.354L78.873,274.282L78.843,274.208L78.814,274.134L78.788,274.059L78.763,273.982L78.74,273.906L78.719,273.828L78.7,273.75L78.683,273.67L78.668,273.591L78.654,273.51L78.643,273.429L78.633,273.348L78.626,273.265L78.621,273.183L78.618,273.1L78.617,273.016L78.618,272.933L78.621,272.85L78.626,272.768L78.633,272.685L78.643,272.604L78.654,272.523L78.668,272.442L78.683,272.363L78.7,272.283L78.719,272.205L78.74,272.127L78.763,272.05L78.788,271.974L78.814,271.899L78.843,271.825L78.873,271.751L78.905,271.679L78.938,271.607L78.973,271.536L79.01,271.467L79.048,271.398L79.088,271.331L79.13,271.264L79.173,271.199L79.217,271.135L79.263,271.072L79.311,271.01L79.36,270.949L79.41,270.889L79.462,270.831L79.515,270.774L79.569,270.719L79.625,270.664L79.682,270.611L79.74,270.56L79.799,270.509L79.86,270.46L79.922,270.413L79.985,270.367L80.049,270.322L80.115,270.279L80.181,270.238L80.249,270.198L80.317,270.16L80.387,270.123L80.457,270.088L80.529,270.054L80.601,270.023L80.675,269.992L80.75,269.964L80.825,269.938L80.901,269.913L80.978,269.89L81.055,269.869L81.134,269.85L81.213,269.832L81.293,269.817L81.373,269.804L81.454,269.793L81.536,269.783L81.618,269.776L81.7,269.771L81.783,269.767L81.867,269.766L81.95,269.767ZM81.809,270.767L81.751,270.769L81.694,270.773L81.637,270.778L81.58,270.785L81.524,270.792L81.469,270.802L81.414,270.812L81.359,270.824L81.305,270.837L81.251,270.852L81.198,270.868L81.145,270.885L81.093,270.903L81.042,270.923L80.991,270.943L80.941,270.965L80.892,270.989L80.843,271.013L80.795,271.038L80.747,271.065L80.7,271.092L80.654,271.121L80.609,271.151L80.565,271.182L80.521,271.214L80.478,271.247L80.436,271.281L80.395,271.315L80.354,271.351L80.315,271.388L80.276,271.426L80.238,271.464L80.202,271.504L80.166,271.544L80.131,271.586L80.097,271.628L80.064,271.671L80.032,271.714L80.001,271.759L79.971,271.804L79.943,271.85L79.915,271.897L79.889,271.944L79.863,271.993L79.839,272.041L79.816,272.091L79.794,272.141L79.773,272.192L79.753,272.243L79.735,272.295L79.718,272.348L79.702,272.401L79.688,272.454L79.674,272.509L79.663,272.563L79.652,272.618L79.643,272.674L79.635,272.73L79.628,272.787L79.623,272.843L79.62,272.901L79.618,272.958L79.617,273.016L79.618,273.075L79.62,273.132L79.623,273.189L79.628,273.246L79.635,273.303L79.643,273.359L79.652,273.415L79.663,273.47L79.674,273.524L79.688,273.579L79.702,273.632L79.718,273.685L79.735,273.738L79.753,273.79L79.773,273.841L79.794,273.892L79.816,273.942L79.839,273.992L79.863,274.04L79.889,274.089L79.915,274.136L79.943,274.183L79.971,274.229L80.001,274.274L80.032,274.319L80.064,274.362L80.097,274.405L80.131,274.447L80.166,274.489L80.202,274.529L80.238,274.569L80.276,274.607L80.315,274.645L80.354,274.682L80.395,274.718L80.436,274.752L80.478,274.786L80.521,274.819L80.565,274.851L80.609,274.882L80.654,274.912L80.7,274.941L80.747,274.968L80.795,274.995L80.843,275.02L80.892,275.044L80.941,275.068L80.991,275.09L81.042,275.11L81.093,275.13L81.145,275.148L81.198,275.165L81.251,275.181L81.305,275.196L81.359,275.209L81.414,275.221L81.469,275.231L81.524,275.241L81.58,275.248L81.637,275.255L81.694,275.26L81.751,275.264L81.809,275.266L81.867,275.266L81.925,275.266L81.982,275.264L82.04,275.26L82.097,275.255L82.153,275.248L82.209,275.241L82.265,275.231L82.32,275.221L82.375,275.209L82.429,275.196L82.482,275.181L82.536,275.165L82.588,275.148L82.64,275.13L82.691,275.11L82.742,275.09L82.792,275.068L82.842,275.044L82.891,275.02L82.939,274.995L82.986,274.968L83.033,274.941L83.079,274.912L83.124,274.882L83.169,274.851L83.213,274.819L83.256,274.786L83.298,274.752L83.339,274.718L83.379,274.682L83.419,274.645L83.457,274.607L83.495,274.569L83.532,274.529L83.568,274.489L83.603,274.447L83.637,274.405L83.67,274.362L83.701,274.319L83.732,274.274L83.762,274.229L83.791,274.183L83.818,274.136L83.845,274.089L83.87,274.04L83.895,273.992L83.918,273.942L83.94,273.892L83.961,273.841L83.98,273.79L83.998,273.738L84.016,273.685L84.031,273.632L84.046,273.579L84.059,273.524L84.071,273.47L84.082,273.415L84.091,273.359L84.099,273.303L84.105,273.246L84.11,273.189L84.114,273.132L84.116,273.075L84.117,273.016L84.116,272.958L84.114,272.901L84.11,272.843L84.105,272.787L84.099,272.73L84.091,272.674L84.082,272.618L84.071,272.563L84.059,272.509L84.046,272.454L84.031,272.401L84.016,272.348L83.998,272.295L83.98,272.243L83.961,272.192L83.94,272.141L83.918,272.091L83.895,272.041L83.87,271.993L83.845,271.944L83.818,271.897L83.791,271.85L83.762,271.804L83.732,271.759L83.701,271.714L83.67,271.671L83.637,271.628L83.603,271.586L83.568,271.544L83.532,271.504L83.495,271.464L83.457,271.426L83.419,271.388L83.379,271.351L83.339,271.315L83.298,271.281L83.256,271.247L83.213,271.214L83.169,271.182L83.124,271.151L83.079,271.121L83.033,271.092L82.986,271.065L82.939,271.038L82.891,271.013L82.842,270.989L82.792,270.965L82.742,270.943L82.691,270.923L82.64,270.903L82.588,270.885L82.536,270.868L82.482,270.852L82.429,270.837L82.375,270.824L82.32,270.812L82.265,270.802L82.209,270.792L82.153,270.785L82.097,270.778L82.04,270.773L81.982,270.769L81.925,270.767L81.867,270.767L81.809,270.767ZM94.217,257.501L94.3,257.504L94.382,257.509L94.464,257.517L94.546,257.526L94.627,257.537L94.707,257.551L94.787,257.566L94.866,257.583L94.945,257.602L95.022,257.623L95.099,257.646L95.175,257.671L95.25,257.698L95.325,257.726L95.399,257.756L95.471,257.788L95.543,257.821L95.613,257.856L95.683,257.893L95.751,257.931L95.819,257.971L95.885,258.013L95.951,258.056L96.015,258.101L96.078,258.147L96.14,258.194L96.201,258.243L96.26,258.293L96.318,258.345L96.375,258.398L96.431,258.452L96.485,258.508L96.538,258.565L96.59,258.623L96.64,258.682L96.689,258.743L96.737,258.805L96.783,258.868L96.827,258.932L96.87,258.998L96.912,259.064L96.952,259.132L96.99,259.2L97.027,259.27L97.062,259.341L97.095,259.412L97.127,259.485L97.157,259.558L97.186,259.633L97.212,259.708L97.237,259.784L97.26,259.861L97.281,259.939L97.3,260.017L97.317,260.096L97.332,260.176L97.346,260.256L97.357,260.337L97.367,260.419L97.374,260.501L97.379,260.584L97.382,260.667L97.383,260.75L97.382,260.833L97.379,260.916L97.374,260.999L97.367,261.081L97.357,261.163L97.346,261.244L97.332,261.324L97.317,261.404L97.3,261.483L97.281,261.561L97.26,261.639L97.237,261.716L97.212,261.792L97.186,261.867L97.157,261.942L97.127,262.015L97.095,262.088L97.062,262.159L97.027,262.23L96.99,262.3L96.952,262.368L96.912,262.436L96.87,262.502L96.827,262.568L96.783,262.632L96.737,262.695L96.689,262.757L96.64,262.818L96.59,262.877L96.538,262.935L96.485,262.992L96.431,263.048L96.375,263.102L96.318,263.155L96.26,263.207L96.201,263.257L96.14,263.306L96.078,263.354L96.015,263.4L95.951,263.444L95.885,263.487L95.819,263.529L95.751,263.569L95.683,263.607L95.613,263.644L95.543,263.679L95.471,263.712L95.399,263.744L95.325,263.774L95.25,263.802L95.175,263.829L95.099,263.854L95.022,263.877L94.945,263.898L94.866,263.917L94.787,263.934L94.707,263.949L94.627,263.963L94.546,263.974L94.464,263.983L94.382,263.991L94.3,263.996L94.217,263.999L94.133,264L94.05,263.999L93.967,263.996L93.884,263.991L93.802,263.983L93.721,263.974L93.64,263.963L93.559,263.949L93.479,263.934L93.4,263.917L93.322,263.898L93.244,263.877L93.167,263.854L93.091,263.829L93.016,263.802L92.941,263.774L92.868,263.744L92.795,263.712L92.724,263.679L92.653,263.644L92.584,263.607L92.515,263.569L92.448,263.529L92.381,263.487L92.316,263.444L92.251,263.4L92.188,263.354L92.127,263.306L92.066,263.257L92.006,263.207L91.948,263.155L91.891,263.102L91.835,263.048L91.781,262.992L91.728,262.935L91.676,262.877L91.626,262.818L91.577,262.757L91.53,262.695L91.484,262.632L91.439,262.568L91.396,262.502L91.355,262.436L91.315,262.368L91.276,262.3L91.24,262.23L91.204,262.159L91.171,262.088L91.139,262.015L91.109,261.942L91.081,261.867L91.054,261.792L91.03,261.716L91.007,261.639L90.986,261.561L90.967,261.483L90.949,261.404L90.934,261.324L90.921,261.244L90.909,261.163L90.9,261.081L90.893,260.999L90.887,260.916L90.884,260.833L90.883,260.75L90.884,260.667L90.887,260.584L90.893,260.501L90.9,260.419L90.909,260.337L90.921,260.256L90.934,260.176L90.949,260.096L90.967,260.017L90.986,259.939L91.007,259.861L91.03,259.784L91.054,259.708L91.081,259.633L91.109,259.558L91.139,259.485L91.171,259.412L91.204,259.341L91.24,259.27L91.276,259.2L91.315,259.132L91.355,259.064L91.396,258.998L91.439,258.932L91.484,258.868L91.53,258.805L91.577,258.743L91.626,258.682L91.676,258.623L91.728,258.565L91.781,258.508L91.835,258.452L91.891,258.398L91.948,258.345L92.006,258.293L92.066,258.243L92.127,258.194L92.188,258.147L92.251,258.101L92.316,258.056L92.381,258.013L92.448,257.971L92.515,257.931L92.584,257.893L92.653,257.856L92.724,257.821L92.795,257.788L92.868,257.756L92.941,257.726L93.016,257.698L93.091,257.671L93.167,257.646L93.244,257.623L93.322,257.602L93.4,257.583L93.479,257.566L93.559,257.551L93.64,257.537L93.721,257.526L93.802,257.517L93.884,257.509L93.967,257.504L94.05,257.501L94.133,257.5L94.217,257.501ZM94.075,258.501L94.018,258.503L93.96,258.507L93.903,258.512L93.847,258.518L93.791,258.526L93.735,258.535L93.68,258.546L93.625,258.558L93.571,258.571L93.518,258.585L93.464,258.601L93.412,258.618L93.36,258.637L93.309,258.656L93.258,258.677L93.208,258.699L93.158,258.722L93.109,258.746L93.061,258.772L93.014,258.798L92.967,258.826L92.921,258.855L92.876,258.885L92.831,258.915L92.787,258.947L92.744,258.98L92.702,259.014L92.661,259.049L92.621,259.085L92.581,259.122L92.543,259.159L92.505,259.198L92.468,259.238L92.432,259.278L92.397,259.319L92.363,259.361L92.33,259.404L92.299,259.448L92.268,259.492L92.238,259.538L92.209,259.584L92.182,259.63L92.155,259.678L92.13,259.726L92.105,259.775L92.082,259.824L92.06,259.875L92.039,259.925L92.02,259.977L92.002,260.029L91.984,260.081L91.969,260.134L91.954,260.188L91.941,260.242L91.929,260.297L91.918,260.352L91.909,260.408L91.901,260.464L91.895,260.52L91.89,260.577L91.886,260.634L91.884,260.692L91.883,260.75L91.884,260.808L91.886,260.866L91.89,260.923L91.895,260.98L91.901,261.036L91.909,261.092L91.918,261.148L91.929,261.203L91.941,261.258L91.954,261.312L91.969,261.366L91.984,261.419L92.002,261.471L92.02,261.523L92.039,261.575L92.06,261.625L92.082,261.676L92.105,261.725L92.13,261.774L92.155,261.822L92.182,261.87L92.209,261.916L92.238,261.962L92.268,262.008L92.299,262.052L92.33,262.096L92.363,262.139L92.397,262.181L92.432,262.222L92.468,262.263L92.505,262.302L92.543,262.341L92.581,262.378L92.621,262.415L92.661,262.451L92.702,262.486L92.744,262.52L92.787,262.553L92.831,262.585L92.876,262.616L92.921,262.645L92.967,262.674L93.014,262.702L93.061,262.728L93.109,262.754L93.158,262.778L93.208,262.801L93.258,262.823L93.309,262.844L93.36,262.863L93.412,262.882L93.464,262.899L93.518,262.915L93.571,262.929L93.625,262.942L93.68,262.954L93.735,262.965L93.791,262.974L93.847,262.982L93.903,262.988L93.96,262.993L94.018,262.997L94.075,262.999L94.133,263L94.191,262.999L94.249,262.997L94.306,262.993L94.363,262.988L94.42,262.982L94.476,262.974L94.531,262.965L94.586,262.954L94.641,262.942L94.695,262.929L94.749,262.915L94.802,262.899L94.855,262.882L94.907,262.863L94.958,262.844L95.009,262.823L95.059,262.801L95.108,262.778L95.157,262.754L95.205,262.728L95.253,262.702L95.3,262.674L95.346,262.645L95.391,262.616L95.435,262.585L95.479,262.553L95.522,262.52L95.564,262.486L95.605,262.451L95.646,262.415L95.685,262.378L95.724,262.341L95.762,262.302L95.798,262.263L95.834,262.222L95.869,262.181L95.903,262.139L95.936,262.096L95.968,262.052L95.999,262.008L96.029,261.962L96.057,261.916L96.085,261.87L96.111,261.822L96.137,261.774L96.161,261.725L96.184,261.676L96.206,261.625L96.227,261.575L96.247,261.523L96.265,261.471L96.282,261.419L96.298,261.366L96.312,261.312L96.326,261.258L96.337,261.203L96.348,261.148L96.357,261.092L96.365,261.036L96.372,260.98L96.377,260.923L96.38,260.866L96.382,260.808L96.383,260.75L96.382,260.692L96.38,260.634L96.377,260.577L96.372,260.52L96.365,260.464L96.357,260.408L96.348,260.352L96.337,260.297L96.326,260.242L96.312,260.188L96.298,260.134L96.282,260.081L96.265,260.029L96.247,259.977L96.227,259.925L96.206,259.875L96.184,259.824L96.161,259.775L96.137,259.726L96.111,259.678L96.085,259.63L96.057,259.584L96.029,259.538L95.999,259.492L95.968,259.448L95.936,259.404L95.903,259.361L95.869,259.319L95.834,259.278L95.798,259.238L95.762,259.198L95.724,259.159L95.685,259.122L95.646,259.085L95.605,259.049L95.564,259.014L95.522,258.98L95.479,258.947L95.435,258.915L95.391,258.885L95.346,258.855L95.3,258.826L95.253,258.798L95.205,258.772L95.157,258.746L95.108,258.722L95.059,258.699L95.009,258.677L94.958,258.656L94.907,258.637L94.855,258.618L94.802,258.601L94.749,258.585L94.695,258.571L94.641,258.558L94.586,258.546L94.531,258.535L94.476,258.526L94.42,258.518L94.363,258.512L94.306,258.507L94.249,258.503L94.191,258.501L94.133,258.5L94.075,258.501Z" style="fill-opacity:0.25098;"/>
            </g>
            <g transform="matrix(1,0,0,1,-72,-251)">
                <path d="M81.867,270.767C83.109,270.767 84.117,271.775 84.117,273.016C84.117,274.258 83.109,275.266 81.867,275.266C80.625,275.266 79.617,274.258 79.617,273.016C79.617,271.775 80.625,270.767 81.867,270.767ZM94.133,258.5C95.375,258.5 96.383,259.508 96.383,260.75C96.383,261.992 95.375,263 94.133,263C92.891,263 91.883,261.992 91.883,260.75C91.883,259.508 92.891,258.5 94.133,258.5Z" style="fill:white;"/>
            </g>
            <g transform="matrix(1,0,0,1,-72,-251)">
                <path d="M85.787,263.963C86.638,263.111 87.116,261.957 87.116,260.752C87.117,260.752 87.117,260.751 87.117,260.75C87.117,256.878 90.261,253.734 94.133,253.734C98.006,253.734 101.15,256.878 101.15,260.75C101.15,264.623 98.006,267.767 94.133,267.767C94.132,267.767 94.132,267.767 94.131,267.767C92.927,267.766 91.772,268.245 90.92,269.096C90.687,269.329 90.446,269.57 90.213,269.804C89.362,270.655 88.884,271.81 88.884,273.014C88.883,273.015 88.883,273.016 88.883,273.016C88.883,276.889 85.739,280.033 81.867,280.033C77.994,280.033 74.85,276.889 74.85,273.016C74.85,269.144 77.994,266 81.867,266C81.868,266 81.868,266 81.869,266C83.073,266 84.228,265.522 85.08,264.67C85.313,264.437 85.554,264.196 85.787,263.963ZM81.867,269C84.084,269 85.883,270.8 85.883,273.016C85.883,275.233 84.084,277.033 81.867,277.033C79.65,277.033 77.85,275.233 77.85,273.016C77.85,270.8 79.65,269 81.867,269ZM94.133,256.734C96.35,256.734 98.15,258.533 98.15,260.75C98.15,262.967 96.35,264.767 94.133,264.767C91.916,264.767 90.117,262.967 90.117,260.75C90.117,258.533 91.916,256.734 94.133,256.734Z" style="fill:rgb(250,170,1);"/>
            </g>
        </g>
    </g>
</svg>
