<?xml version="1.0" encoding="UTF-8" standalone="no"?>
<!DOCTYPE svg PUBLIC "-//W3C//DTD SVG 1.1//EN" "http://www.w3.org/Graphics/SVG/1.1/DTD/svg11.dtd">
<svg width="100%" height="100%" viewBox="0 0 32 32" version="1.1" xmlns="http://www.w3.org/2000/svg" xmlns:xlink="http://www.w3.org/1999/xlink" xml:space="preserve" xmlns:serif="http://www.serif.com/" style="fill-rule:evenodd;clip-rule:evenodd;stroke-linejoin:round;stroke-miterlimit:1.41421;">
    <g transform="matrix(1,0,0,1,-72,-72)">
        <g id="web" transform="matrix(1,0,0,1,72,72)">
            <rect x="0" y="0" width="32" height="32" style="fill:none;"/>
            <g transform="matrix(1,0,0,1,0,-72)">
                <circle cx="16" cy="88" r="14" style="fill-opacity:0.25098;"/>
            </g>
            <g transform="matrix(1.08889,0,0,1.08889,-3.29133,-1110.61)">
                <path d="M17.717,1021.79C10.618,1021.79 4.859,1027.55 4.859,1034.65C4.859,1041.74 10.618,1047.5 17.717,1047.5C24.815,1047.5 30.574,1041.74 30.574,1034.65C30.574,1027.55 24.815,1021.79 17.717,1021.79L17.717,1021.79ZM23.375,1029.99C23.019,1029.99 22.636,1030.02 22.471,1030.2C22.32,1030.37 22.664,1031.14 22.655,1031.38C22.637,1031.86 21.95,1031.35 21.902,1031.87C21.83,1032.63 21.047,1032.72 20.68,1032.87C20.512,1032.94 20.308,1033.12 20.395,1033.49C20.453,1033.74 20.535,1033.85 20.51,1033.98C20.468,1034.21 20.395,1034.26 20.244,1034.39C20.077,1034.53 19.829,1034.6 19.642,1034.7C19.139,1034.95 19.362,1035.38 19.675,1035.52C19.844,1035.59 19.675,1035.82 19.709,1036.09C19.734,1036.29 19.684,1036.74 19.47,1036.67C19.292,1036.62 19.211,1036.1 19.156,1035.92C19.052,1035.57 19.037,1035.51 18.955,1035.52C18.876,1035.53 18.832,1035.85 18.52,1035.47C18.299,1035.2 17.63,1035.27 17.532,1035.53C17.468,1035.71 17.343,1035.7 17.164,1035.57C17.004,1035.45 16.402,1035.57 16.36,1035.67C16.281,1035.86 16.16,1035.73 16.093,1035.82C16.007,1035.93 15.758,1036.97 15.775,1037.43C15.775,1037.76 15.992,1038.35 16.31,1038.53C16.461,1038.62 16.932,1038.65 17.114,1038.58C17.288,1038.51 17.315,1038.3 17.398,1038.1C17.482,1037.88 17.583,1037.78 17.834,1037.76C18.554,1037.73 18.057,1038.33 17.917,1038.61C17.811,1038.83 17.717,1039.11 17.817,1039.28C17.867,1039.37 18.007,1039.41 18.068,1039.3C18.1,1039.24 18.146,1039 18.203,1039.13C18.314,1039.37 18.445,1039.4 18.557,1039.14C18.624,1038.99 18.931,1039.49 19.039,1039.7C19.107,1039.84 19.287,1040.19 18.972,1040.19C18.738,1040.19 19.006,1040.66 19.039,1040.74C19.223,1041.08 19.436,1041.21 19.718,1040.99C19.918,1040.84 19.812,1041.58 19.625,1041.58C19.013,1041.57 18.608,1040.96 18.487,1040.72C18.147,1040.08 18.141,1040.07 17.181,1039.77C16.802,1039.65 16.779,1039.1 16.344,1039.17C16.042,1039.22 15.841,1039.26 15.607,1039.2C15.373,1039.15 15.172,1038.95 14.937,1038.83C14.67,1038.68 14.201,1038.53 14.1,1038.2C14,1037.93 14.084,1037.57 13.883,1037.36C13.384,1036.83 13.126,1036.48 13.029,1036.31C12.861,1036 12.34,1035.31 12.257,1035.05C12.211,1034.91 11.918,1034.74 11.907,1034.97C11.898,1035.17 11.991,1035.32 12.075,1035.47C12.158,1035.63 12.259,1035.79 12.359,1035.95C12.544,1036.26 13.005,1036.81 12.899,1036.85C12.616,1036.95 12.225,1036.3 12.108,1036.12C11.98,1035.92 11.891,1035.64 11.773,1035.4C11.77,1035.39 11.766,1035.39 11.763,1035.38C11.644,1035.13 11.534,1034.86 11.372,1034.63C11.221,1034.41 10.915,1034.36 10.752,1034.16C10.571,1033.94 9.954,1032.89 9.831,1032.39C9.731,1031.97 9.652,1030.68 9.831,1030.6C9.98,1030.52 10.04,1030.77 10.148,1030.79C10.258,1030.81 10.354,1030.56 10.305,1030.45C10.053,1029.86 9.573,1029.84 9.212,1029.71C8.99,1029.63 8.76,1029.65 8.643,1028.97C9.614,1027.43 10.97,1026.14 12.577,1025.26C13.289,1024.86 13.732,1024.69 14.285,1024.5C14.385,1024.57 14.511,1024.62 14.558,1024.74C14.606,1024.85 14.518,1025.06 14.608,1025.17C14.807,1025.4 15.128,1025.18 15.528,1025.31C15.765,1025.39 16.132,1025.75 16.26,1025.74C16.388,1025.74 16.245,1025.4 16.323,1025.29C16.401,1025.17 16.627,1025.12 16.729,1025.07C16.861,1025.01 16.761,1024.88 16.595,1024.84C16.408,1024.79 15.775,1024.69 16.093,1024.3C16.21,1024.17 16.579,1024.18 16.739,1024.26C16.929,1024.35 16.861,1024.66 16.942,1024.79C17.039,1024.96 17.34,1025.13 17.482,1025.16C17.603,1025.17 17.616,1024.91 17.75,1024.9C17.927,1024.9 17.864,1025.11 18.001,1025.36C18.196,1025.71 18.798,1025.16 18.704,1024.97C18.592,1024.75 18.968,1024.72 19.123,1024.75C19.403,1024.82 19.522,1025.06 19.187,1025.15C19.034,1025.2 19.369,1025.63 19.073,1025.71C18.845,1025.77 18.57,1025.37 18.353,1025.62C18.202,1025.79 18.135,1026.04 17.984,1026.19C17.75,1026.43 17.399,1026.45 17.132,1026.32C16.97,1026.23 16.918,1026.61 16.863,1026.85C16.83,1026.99 16.628,1027.2 16.609,1027.34C16.53,1027.9 17.373,1028.21 17.867,1028.27C18.612,1028.36 18.857,1028.48 19.024,1028.64C19.183,1028.8 19.257,1029.01 19.307,1029.19C19.374,1029.44 19.652,1029.7 19.795,1029.74C19.928,1029.78 20.295,1029.53 20.161,1029.42C20.027,1029.31 19.876,1029.01 20.01,1028.84C20.144,1028.65 20.462,1028.6 20.546,1028.37C20.68,1027.98 20.144,1028.04 20.144,1027.75C20.144,1027.58 20.362,1027.53 20.345,1027.33C20.345,1027.16 20.094,1026.83 20.295,1026.71C20.462,1026.61 21.266,1026.78 21.416,1026.88C21.567,1026.98 22.451,1027.85 22.571,1027.85C22.781,1027.85 23.124,1027.4 23.224,1027.41C23.375,1027.43 23.727,1027.95 23.793,1028.1C23.911,1028.39 23.942,1028.66 24.246,1028.75C24.363,1028.79 24.748,1028.72 24.764,1028.72C25.059,1028.79 24.72,1029.52 24.631,1029.76C24.564,1029.94 24.419,1030.14 24.229,1030.18C24.019,1030.22 23.667,1029.99 23.375,1029.99ZM19.575,1045.19C19.558,1045.11 19.551,1045.01 19.541,1044.92C19.491,1044.46 20.053,1043.91 19.88,1043.99C19.604,1044.11 19.6,1043.99 19.592,1043.79C19.578,1043.44 19.863,1043.29 20.077,1043.12C20.312,1042.93 20.362,1042.55 20.278,1042.31C20.143,1041.93 19.972,1041.34 20.006,1041.17C20.032,1041.04 20.133,1040.85 20.479,1041.29C20.552,1041.38 20.597,1041.04 20.663,1040.91C20.877,1040.5 21.393,1040.17 21.58,1040.39C21.747,1040.59 21.464,1041.03 21.634,1041.04C21.76,1041.05 21.689,1040.65 21.83,1040.52C22.039,1040.33 22.179,1040.55 22.419,1040.7C22.604,1040.81 23.083,1041.26 22.997,1040.99C22.949,1040.84 23.252,1040.83 23.392,1040.86C23.71,1040.92 23.86,1040.97 24.102,1041.1C24.366,1041.24 24.864,1041.53 24.549,1041.65C24.347,1041.73 24.779,1041.86 24.922,1041.86C25.145,1041.87 25.35,1041.93 25.451,1042.03C23.911,1043.65 21.868,1044.79 19.575,1045.19L19.575,1045.19Z" style="fill:white;fill-rule:nonzero;"/>
            </g>
        </g>
    </g>
</svg>
