<?xml version="1.0" encoding="UTF-8" standalone="no"?>
<!DOCTYPE svg PUBLIC "-//W3C//DTD SVG 1.1//EN" "http://www.w3.org/Graphics/SVG/1.1/DTD/svg11.dtd">
<svg width="100%" height="100%" viewBox="0 0 32 32" version="1.1" xmlns="http://www.w3.org/2000/svg" xmlns:xlink="http://www.w3.org/1999/xlink" xml:space="preserve" xmlns:serif="http://www.serif.com/" style="fill-rule:evenodd;clip-rule:evenodd;stroke-linejoin:round;stroke-miterlimit:1.41421;">
    <g transform="matrix(1,0,0,1,0,-178)">
        <g id="batch_render" transform="matrix(1,0,0,1,0,178)">
            <rect x="0" y="0" width="32" height="32" style="fill:none;"/>
            <g transform="matrix(1,0,0,1,0,-143)">
                <rect x="3" y="146" width="26" height="26" style="fill:rgb(0,153,90);"/>
                <path d="M29,172L3,172L3,146L29,146L29,172ZM5,148L5,170L27,170L27,148L5,148Z" style="fill:white;"/>
            </g>
            <g transform="matrix(1,0,0,1,0,-178)">
                <path d="M16.5,193.151L16.5,185.151L25.349,194L16.5,202.849L16.5,194.849L8.5,202.849L8.5,185.151L16.5,193.151Z" style="fill:white;fill-opacity:0.85098;"/>
            </g>
        </g>
    </g>
</svg>
