<?xml version="1.0" encoding="UTF-8" standalone="no"?>
<!DOCTYPE svg PUBLIC "-//W3C//DTD SVG 1.1//EN" "http://www.w3.org/Graphics/SVG/1.1/DTD/svg11.dtd">
<svg width="100%" height="100%" viewBox="0 0 32 32" version="1.1" xmlns="http://www.w3.org/2000/svg" xmlns:xlink="http://www.w3.org/1999/xlink" xml:space="preserve" xmlns:serif="http://www.serif.com/" style="fill-rule:evenodd;clip-rule:evenodd;stroke-linejoin:round;stroke-miterlimit:1.41421;">
    <g transform="matrix(1,0,0,1,-72,-107)">
        <g id="render" transform="matrix(1,0,0,1,72,107)">
            <rect x="0" y="0" width="32" height="32" style="fill:none;"/>
            <g transform="matrix(1,0,0,1,0,-143)">
                <rect x="3" y="146" width="26" height="26" style="fill:rgb(0,153,90);"/>
                <path d="M29,172L3,172L3,146L29,146L29,172ZM5,148L5,170L27,170L27,148L5,148Z" style="fill:white;"/>
            </g>
            <g transform="matrix(0.421392,0.421392,-0.421392,0.421392,27.6701,-72.071)">
                <path d="M97,112L76,112L97,133L97,112Z" style="fill:white;fill-opacity:0.85098;"/>
            </g>
        </g>
    </g>
</svg>
