<?xml version="1.0" encoding="UTF-8" standalone="no"?>
<!DOCTYPE svg PUBLIC "-//W3C//DTD SVG 1.1//EN" "http://www.w3.org/Graphics/SVG/1.1/DTD/svg11.dtd">
<svg width="100%" height="100%" viewBox="0 0 32 32" version="1.1" xmlns="http://www.w3.org/2000/svg" xmlns:xlink="http://www.w3.org/1999/xlink" xml:space="preserve" xmlns:serif="http://www.serif.com/" style="fill-rule:evenodd;clip-rule:evenodd;stroke-linejoin:round;stroke-miterlimit:1.41421;">
    <g transform="matrix(1,0,0,1,-36,-142)">
        <g id="stop_ipr" transform="matrix(1,0,0,1,36,142)">
            <rect x="0" y="0" width="32" height="32" style="fill:none;"/>
            <g transform="matrix(1,0,0,1,0,-143)">
                <rect x="3" y="146" width="26" height="26" style="fill:rgb(220,87,98);"/>
                <path d="M29,172L3,172L3,146L29,146L29,172ZM5,148L5,170L27,170L27,148L5,148Z" style="fill:white;"/>
            </g>
            <g id="ic_close_24px" transform="matrix(1,0,0,1,4,4)">
                <path d="M19,6.41L17.59,5L12,10.59L6.41,5L5,6.41L10.59,12L5,17.59L6.41,19L12,13.41L17.59,19L19,17.59L13.41,12L19,6.41Z" style="fill:white;fill-opacity:0.94902;fill-rule:nonzero;"/>
            </g>
        </g>
    </g>
</svg>
